{
.appVersion = "1230";
date = "2019-06-02 22:41:45 +0000";
disablesNiceNames = 1;
familyName = "Marfa Sans";
fontMaster = (
{
alignmentZones = (
"{693, 19}",
"{491, 19}",
"{0, -20}"
);
ascender = 750;
capHeight = 693;
custom = "Regular Italic";
customParameters = (
{
name = typoAscender;
value = 750;
},
{
name = typoDescender;
value = -250;
},
{
name = typoLineGap;
value = 0;
},
{
name = winAscent;
value = 941;
},
{
name = winDescent;
value = 213;
},
{
name = hheaAscender;
value = 750;
},
{
name = hheaDescender;
value = -250;
},
{
name = strikeoutPosition;
value = 250;
},
{
name = strikeoutSize;
value = 50;
},
{
name = "Prep Table Assembly";
value = "PUSHW[ ]	/* 1 value pushed */\0120 \012CALL[ ]	/* CallFunction */\012SVTCA[0]	/* SetFreedomAndProjectionVectorToAxis */\012PUSHW[ ]	/* 3 values pushed */\0121 1 2 \012CALL[ ]	/* CallFunction */\012SVTCA[1]	/* SetFreedomAndProjectionVectorToAxis */\012PUSHW[ ]	/* 3 values pushed */\0122 1 2 \012CALL[ ]	/* CallFunction */\012SVTCA[1]	/* SetFreedomAndProjectionVectorToAxis */\012PUSHW[ ]	/* 8 values pushed */\0122 67 58 46 33 20 0 8 \012CALL[ ]	/* CallFunction */\012SVTCA[0]	/* SetFreedomAndProjectionVectorToAxis */\012PUSHW[ ]	/* 8 values pushed */\0121 75 58 46 33 20 0 8 \012CALL[ ]	/* CallFunction */\012SVTCA[0]	/* SetFreedomAndProjectionVectorToAxis */\012PUSHW[ ]	/* 3 values pushed */\0123 3 7 \012CALL[ ]	/* CallFunction */\012PUSHW[ ]	/* 1 value pushed */\0120 \012DUP[ ]	/* DuplicateTopStack */\012RCVT[ ]	/* ReadCVT */\012RDTG[ ]	/* RoundDownToGrid */\012ROUND[01]	/* Round */\012RTG[ ]	/* RoundToGrid */\012WCVTP[ ]	/* WriteCVTInPixels */";
},
{
name = "Fpgm Table Assembly";

glyphs = (
{
glyphname = A;
lastChange = "2019-08-14 18:46:20 +0000";
layers = (
{
anchors = (
{
name = bottom;
position = "{341, 0}";
},
{
name = ogonek;
position = "{636, 10}";
},
{
name = top;
position = "{439, 693}";
}
);
layerId = "DA405910-5117-420C-9605-F5A44EE03BDF";
paths = (
{
closed = 1;
nodes = (
"54 0 LINE",
"156 167 LINE",
"574 167 LINE",
"628 0 LINE",
"700 0 LINE",
"475 693 LINE",
"403 693 LINE",
"-18 0 LINE"
);
},
{
closed = 1;
nodes = (
"428 616 LINE",
"553 232 LINE",
"195 232 LINE"
);
}
);
width = 752;
},
{
anchors = (
{
name = bottom;
position = "{351, 0}";
},
{
name = ogonek;
position = "{646, 10}";
},
{
name = top;
position = "{449, 693}";
}
);
layerId = "37B2A381-2B9F-4DE4-98E5-835D13A27EF0";
paths = (
{
closed = 1;
nodes = (
"81 0 LINE",
"179 161 LINE",
"569 161 LINE",
"621 0 LINE",
"716 0 LINE",
"491 693 LINE",
"407 693 LINE",
"-14 0 LINE"
);
},
{
closed = 1;
nodes = (
"433 580 LINE",
"541 247 LINE",
"231 247 LINE"
);
}
);
width = 772;
}
);
unicode = 0041;
},
{
glyphname = AE;
lastChange = "2019-08-14 18:46:20 +0000";
layers = (
{
layerId = "DA405910-5117-420C-9605-F5A44EE03BDF";
paths = (
{
closed = 1;
nodes = (
"21 0 LINE",
"123 167 LINE",
"332 167 LINE",
"308 0 LINE",
"906 0 LINE",
"916 65 LINE",
"384 65 LINE",
"427 372 LINE",
"758 372 LINE",
"767 437 LINE",
"436 437 LINE",
"463 628 LINE",
"995 628 LINE",
"1004 693 LINE",
"370 693 LINE",
"-51 0 LINE"
);
},
{
closed = 1;
nodes = (
"395 616 LINE",
"341 232 LINE",
"162 232 LINE"
);
}
);
width = 979;
},
{
layerId = "37B2A381-2B9F-4DE4-98E5-835D13A27EF0";
paths = (
{
closed = 1;
nodes = (
"44 0 LINE",
"142 161 LINE",
"325 161 LINE",
"302 0 LINE",
"903 0 LINE",
"916 86 LINE",
"402 86 LINE",
"440 360 LINE",
"760 360 LINE",
"772 446 LINE",
"452 446 LINE",
"475 607 LINE",
"989 607 LINE",
"1001 693 LINE",
"370 693 LINE",
"-51 0 LINE"
);
},
{
closed = 1;
nodes = (
"380 555 LINE",
"337 247 LINE",
"194 247 LINE"
);
}
);
width = 979;
}
);
unicode = 00C6;
},
{
glyphname = B;
lastChange = "2019-08-14 18:46:20 +0000";
layers = (
{
anchors = (
{
name = bottom;
position = "{363, 0}";
},
{
name = top;
position = "{461, 693}";
}
);
background = {
paths = (
{
closed = 1;
nodes = (
"666 134 OFFCURVE",
"605 65 OFFCURVE",
"508 65 CURVE",
"191 65 LINE",
"139 65 LINE",
"139 346 LINE",
"508 346 LINE",
"624 346 OFFCURVE",
"666 272 OFFCURVE",
"666 204 CURVE"
);
},
{
closed = 1;
nodes = (
"191 628 LINE",
"508 628 LINE",
"580 628 OFFCURVE",
"628 583 OFFCURVE",
"628 521 CURVE",
"628 461 OFFCURVE",
"587 412 OFFCURVE",
"508 412 CURVE",
"139 412 LINE",
"139 628 LINE"
);
},
{
closed = 1;
nodes = (
"508 693 LINE",
"73 693 LINE",
"73 0 LINE",
"508 0 LINE",
"656 0 OFFCURVE",
"736 81 OFFCURVE",
"736 208 CURVE",
"736 288 OFFCURVE",
"702 323 OFFCURVE",
"662 354 CURVE",
"626 379 LINE",
"657 409 LINE",
"681 434 OFFCURVE",
"698 479 OFFCURVE",
"698 520 CURVE",
"698 637 OFFCURVE",
"626 693 OFFCURVE",
"508 693 CURVE"
);
}
);
};
layerId = "DA405910-5117-420C-9605-F5A44EE03BDF";
paths = (
{
closed = 1;
nodes = (
"478 0 LINE SMOOTH",
"626 0 OFFCURVE",
"718 81 OFFCURVE",
"736 208 CURVE",
"750 307 OFFCURVE",
"687 356 OFFCURVE",
"648 380 CURVE",
"694 408 OFFCURVE",
"734 464 OFFCURVE",
"742 520 CURVE SMOOTH",
"758 637 OFFCURVE",
"694 693 OFFCURVE",
"576 693 CURVE",
"141 693 LINE",
"43 0 LINE"
);
},
{
closed = 1;
nodes = (
"158 347 LINE",
"527 347 LINE SMOOTH",
"634 347 OFFCURVE",
"675 272 OFFCURVE",
"665 204 CURVE SMOOTH",
"655 134 OFFCURVE",
"595 65 OFFCURVE",
"488 65 CURVE SMOOTH",
"119 65 LINE"
);
},
{
closed = 1;
nodes = (
"198 628 LINE",
"567 628 LINE SMOOTH",
"646 628 OFFCURVE",
"680 583 OFFCURVE",
"672 521 CURVE SMOOTH",
"663 461 OFFCURVE",
"615 412 OFFCURVE",
"536 412 CURVE SMOOTH",
"167 412 LINE"
);
}
);
width = 795;
},
{
anchors = (
{
name = bottom;
position = "{363, 0}";
},
{
name = top;
position = "{461, 693}";
}
);
layerId = "37B2A381-2B9F-4DE4-98E5-835D13A27EF0";
paths = (
{
closed = 1;
nodes = (
"475 0 LINE SMOOTH",
"620 0 OFFCURVE",
"719 79 OFFCURVE",
"737 213 CURVE SMOOTH",
"747 282 OFFCURVE",
"721 338 OFFCURVE",
"661 380 CURVE",
"703 412 OFFCURVE",
"736 465 OFFCURVE",
"743 514 CURVE SMOOTH",
"759 629 OFFCURVE",
"698 693 OFFCURVE",
"573 693 CURVE SMOOTH",
"140 693 LINE",
"42 0 LINE"
);
},
{
closed = 1;
nodes = (
"177 335 LINE",
"523 335 LINE SMOOTH",
"605 335 OFFCURVE",
"656 282 OFFCURVE",
"646 209 CURVE SMOOTH",
"636 136 OFFCURVE",
"572 86 OFFCURVE",
"488 86 CURVE SMOOTH",
"142 86 LINE"
);
},
{
closed = 1;
nodes = (
"215 607 LINE",
"561 607 LINE SMOOTH",
"626 607 OFFCURVE",
"660 573 OFFCURVE",
"652 515 CURVE SMOOTH",
"644 458 OFFCURVE",
"598 421 OFFCURVE",
"535 421 CURVE SMOOTH",
"189 421 LINE"
);
}
);
width = 795;
}
);
unicode = 0042;
},
{
glyphname = C;
lastChange = "2019-08-14 18:46:20 +0000";
layers = (
{
anchors = (
{
name = bottom;
position = "{363, 0}";
},
{
name = top;
position = "{461, 693}";
}
);
background = {
paths = (
{
closed = 1;
nodes = (
"571 -20 OFFCURVE",
"698 67 OFFCURVE",
"750 203 CURVE",
"682 228 LINE",
"641 117 OFFCURVE",
"539 44 OFFCURVE",
"410 44 CURVE SMOOTH",
"241 44 OFFCURVE",
"118 170 OFFCURVE",
"118 345 CURVE SMOOTH",
"118 520 OFFCURVE",
"241 648 OFFCURVE",
"410 648 CURVE SMOOTH",
"538 648 OFFCURVE",
"639 575 OFFCURVE",
"681 465 CURVE",
"749 489 LINE",
"697 625 OFFCURVE",
"571 712 OFFCURVE",
"410 712 CURVE SMOOTH",
"199 712 OFFCURVE",
"46 560 OFFCURVE",
"46 345 CURVE SMOOTH",
"46 132 OFFCURVE",
"199 -20 OFFCURVE",
"410 -20 CURVE SMOOTH"
);
}
);
};
guideLines = (
{
position = "{1327, 719}";
},
{
position = "{911, -19}";
}
);
hints = (
{
horizontal = 1;
origin = "{0, 19}";
target = down;
type = TopGhost;
},
{
horizontal = 1;
origin = "{0, 25}";
target = up;
type = BottomGhost;
}
);
layerId = "DA405910-5117-420C-9605-F5A44EE03BDF";
paths = (
{
closed = 1;
nodes = (
"534 -20 OFFCURVE",
"673 67 OFFCURVE",
"744 203 CURVE",
"680 228 LINE",
"623 117 OFFCURVE",
"511 44 OFFCURVE",
"382 44 CURVE SMOOTH",
"213 44 OFFCURVE",
"107 170 OFFCURVE",
"132 345 CURVE SMOOTH",
"157 520 OFFCURVE",
"298 648 OFFCURVE",
"467 648 CURVE SMOOTH",
"595 648 OFFCURVE",
"685 575 OFFCURVE",
"712 465 CURVE",
"783 489 LINE",
"750 625 OFFCURVE",
"637 712 OFFCURVE",
"476 712 CURVE SMOOTH",
"265 712 OFFCURVE",
"90 560 OFFCURVE",
"60 345 CURVE SMOOTH",
"30 132 OFFCURVE",
"162 -20 OFFCURVE",
"373 -20 CURVE SMOOTH"
);
}
);
width = 796;
},
{
anchors = (
{
name = bottom;
position = "{363, 0}";
},
{
name = top;
position = "{461, 693}";
}
);
guideLines = (
{
position = "{996, -19}";
}
);
hints = (
{
horizontal = 1;
origin = "{0, 19}";
target = down;
type = TopGhost;
},
{
horizontal = 1;
origin = "{0, 25}";
target = up;
type = BottomGhost;
}
);
layerId = "37B2A381-2B9F-4DE4-98E5-835D13A27EF0";
paths = (
{
closed = 1;
nodes = (
"535 -20 OFFCURVE",
"679 70 OFFCURVE",
"750 214 CURVE",
"666 247 LINE",
"614 135 OFFCURVE",
"506 65 OFFCURVE",
"385 65 CURVE SMOOTH",
"227 65 OFFCURVE",
"130 182 OFFCURVE",
"153 345 CURVE SMOOTH",
"176 508 OFFCURVE",
"307 627 OFFCURVE",
"464 627 CURVE SMOOTH",
"583 627 OFFCURVE",
"671 558 OFFCURVE",
"693 446 CURVE",
"786 477 LINE",
"756 623 OFFCURVE",
"637 712 OFFCURVE",
"476 712 CURVE SMOOTH",
"264 712 OFFCURVE",
"90 559 OFFCURVE",
"60 345 CURVE SMOOTH",
"30 133 OFFCURVE",
"161 -20 OFFCURVE",
"373 -20 CURVE SMOOTH"
);
}
);
width = 796;
}
);
unicode = 0043;
},
{
glyphname = D;
lastChange = "2019-08-14 18:46:20 +0000";
layers = (
{
anchors = (
{
name = bottom;
position = "{345, 0}";
},
{
name = center;
position = "{416, 347}";
},
{
name = top;
position = "{443, 693}";
}
);
background = {
paths = (
{
closed = 1;
nodes = (
"397 0 LINE SMOOTH",
"533 0 OFFCURVE",
"601 29 OFFCURVE",
"657 96 CURVE SMOOTH",
"704 154 OFFCURVE",
"742 232 OFFCURVE",
"742 348 CURVE SMOOTH",
"742 463 OFFCURVE",
"714 547 OFFCURVE",
"657 605 CURVE SMOOTH",
"600 664 OFFCURVE",
"533 693 OFFCURVE",
"397 693 CURVE SMOOTH",
"78 693 LINE",
"78 0 LINE"
);
},
{
closed = 1;
nodes = (
"143 66 LINE",
"143 628 LINE",
"386 628 LINE SMOOTH",
"502 628 OFFCURVE",
"555 620 OFFCURVE",
"601 571 CURVE SMOOTH",
"647 522 OFFCURVE",
"670 436 OFFCURVE",
"670 348 CURVE SMOOTH",
"670 260 OFFCURVE",
"647 185 OFFCURVE",
"601 133 CURVE SMOOTH",
"555 82 OFFCURVE",
"501 65 OFFCURVE",
"385 65 CURVE SMOOTH"
);
}
);
};
layerId = "DA405910-5117-420C-9605-F5A44EE03BDF";
paths = (
{
closed = 1;
nodes = (
"362 0 LINE SMOOTH",
"498 0 OFFCURVE",
"571 29 OFFCURVE",
"636 96 CURVE SMOOTH",
"691 154 OFFCURVE",
"740 232 OFFCURVE",
"756 348 CURVE SMOOTH",
"773 463 OFFCURVE",
"756 547 OFFCURVE",
"708 605 CURVE SMOOTH",
"659 664 OFFCURVE",
"596 693 OFFCURVE",
"460 693 CURVE SMOOTH",
"141 693 LINE",
"43 0 LINE"
);
},
{
closed = 1;
nodes = (
"118 66 LINE",
"197 628 LINE",
"440 628 LINE SMOOTH",
"556 628 OFFCURVE",
"608 620 OFFCURVE",
"647 571 CURVE SMOOTH",
"686 522 OFFCURVE",
"697 436 OFFCURVE",
"684 348 CURVE SMOOTH",
"672 260 OFFCURVE",
"638 185 OFFCURVE",
"585 133 CURVE SMOOTH",
"532 82 OFFCURVE",
"476 65 OFFCURVE",
"360 65 CURVE SMOOTH"
);
}
);
width = 798;
},
{
anchors = (
{
name = bottom;
position = "{346, 0}";
},
{
name = center;
position = "{416, 347}";
},
{
name = top;
position = "{444, 693}";
}
);
layerId = "37B2A381-2B9F-4DE4-98E5-835D13A27EF0";
paths = (
{
closed = 1;
nodes = (
"362 0 LINE SMOOTH",
"492 0 OFFCURVE",
"568 27 OFFCURVE",
"637 97 CURVE SMOOTH",
"691 154 OFFCURVE",
"740 233 OFFCURVE",
"756 348 CURVE SMOOTH",
"772 462 OFFCURVE",
"756 546 OFFCURVE",
"707 604 CURVE SMOOTH",
"654 668 OFFCURVE",
"586 693 OFFCURVE",
"460 693 CURVE SMOOTH",
"141 693 LINE",
"43 0 LINE"
);
},
{
closed = 1;
nodes = (
"142 87 LINE",
"215 607 LINE",
"438 607 LINE SMOOTH",
"558 607 OFFCURVE",
"597 596 OFFCURVE",
"630 556 CURVE SMOOTH",
"664 513 OFFCURVE",
"677 436 OFFCURVE",
"664 348 CURVE SMOOTH",
"653 264 OFFCURVE",
"621 195 OFFCURVE",
"572 148 CURVE SMOOTH",
"524 101 OFFCURVE",
"473 86 OFFCURVE",
"364 86 CURVE SMOOTH"
);
}
);
width = 798;
}
);
unicode = 0044;
},
{
glyphname = Eth;
lastChange = "2019-08-14 18:46:20 +0000";
layers = (
{
layerId = "DA405910-5117-420C-9605-F5A44EE03BDF";
paths = (
{
closed = 1;
nodes = (
"514 0 LINE SMOOTH",
"650 0 OFFCURVE",
"723 29 OFFCURVE",
"788 96 CURVE SMOOTH",
"843 154 OFFCURVE",
"892 232 OFFCURVE",
"908 348 CURVE SMOOTH",
"925 463 OFFCURVE",
"908 547 OFFCURVE",
"860 605 CURVE SMOOTH",
"811 664 OFFCURVE",
"748 693 OFFCURVE",
"612 693 CURVE SMOOTH",
"293 693 LINE",
"195 0 LINE"
);
},
{
closed = 1;
nodes = (
"270 66 LINE",
"349 628 LINE",
"592 628 LINE SMOOTH",
"708 628 OFFCURVE",
"760 620 OFFCURVE",
"799 571 CURVE SMOOTH",
"838 522 OFFCURVE",
"849 436 OFFCURVE",
"836 348 CURVE SMOOTH",
"824 260 OFFCURVE",
"790 185 OFFCURVE",
"737 133 CURVE SMOOTH",
"684 82 OFFCURVE",
"628 65 OFFCURVE",
"512 65 CURVE SMOOTH"
);
},
{
closed = 1;
nodes = (
"85 334 LINE",
"468 334 LINE",
"478 399 LINE",
"95 399 LINE"
);
}
);
width = 950;
},
{
layerId = "37B2A381-2B9F-4DE4-98E5-835D13A27EF0";
paths = (
{
closed = 1;
nodes = (
"512 0 LINE SMOOTH",
"641 0 OFFCURVE",
"717 27 OFFCURVE",
"786 97 CURVE SMOOTH",
"840 154 OFFCURVE",
"890 233 OFFCURVE",
"906 348 CURVE SMOOTH",
"922 462 OFFCURVE",
"906 546 OFFCURVE",
"856 604 CURVE SMOOTH",
"804 668 OFFCURVE",
"735 693 OFFCURVE",
"610 693 CURVE SMOOTH",
"290 693 LINE",
"192 0 LINE"
);
},
{
closed = 1;
nodes = (
"291 87 LINE",
"364 607 LINE",
"587 607 LINE SMOOTH",
"707 607 OFFCURVE",
"746 596 OFFCURVE",
"780 556 CURVE SMOOTH",
"813 513 OFFCURVE",
"826 436 OFFCURVE",
"813 348 CURVE SMOOTH",
"802 264 OFFCURVE",
"770 195 OFFCURVE",
"721 148 CURVE SMOOTH",
"673 101 OFFCURVE",
"622 86 OFFCURVE",
"513 86 CURVE SMOOTH"
);
},
{
closed = 1;
nodes = (
"86 323 LINE",
"480 323 LINE",
"492 408 LINE",
"98 408 LINE"
);
}
);
width = 950;
}
);
unicode = 00D0;
},
{
glyphname = E;
lastChange = "2019-08-14 18:46:20 +0000";
layers = (
{
anchors = (
{
name = bottom;
position = "{341, 0}";
},
{
name = ogonek;
position = "{611, 10}";
},
{
name = top;
position = "{439, 693}";
},
{
name = topleft;
position = "{85, 693}";
}
);
layerId = "DA405910-5117-420C-9605-F5A44EE03BDF";
paths = (
{
closed = 1;
nodes = (
"645 0 LINE",
"655 65 LINE",
"123 65 LINE",
"166 372 LINE",
"497 372 LINE",
"506 437 LINE",
"175 437 LINE",
"202 628 LINE",
"734 628 LINE",
"743 693 LINE",
"145 693 LINE",
"47 0 LINE"
);
}
);
width = 700;
},
{
anchors = (
{
name = bottom;
position = "{341, 0}";
},
{
name = ogonek;
position = "{611, 10}";
},
{
name = top;
position = "{439, 693}";
},
{
name = topleft;
position = "{85, 693}";
}
);
layerId = "37B2A381-2B9F-4DE4-98E5-835D13A27EF0";
paths = (
{
closed = 1;
nodes = (
"647 0 LINE",
"660 86 LINE",
"145 86 LINE",
"183 360 LINE",
"503 360 LINE",
"515 446 LINE",
"195 446 LINE",
"218 607 LINE",
"733 607 LINE",
"745 693 LINE",
"143 693 LINE",
"45 0 LINE"
);
}
);
width = 700;
}
);
unicode = 0045;
},
{
glyphname = F;
lastChange = "2019-08-14 18:46:20 +0000";
layers = (
{
anchors = (
{
name = bottom;
position = "{246, 0}";
},
{
name = top;
position = "{344, 693}";
}
);
layerId = "DA405910-5117-420C-9605-F5A44EE03BDF";
paths = (
{
closed = 1;
nodes = (
"108 0 LINE",
"153 314 LINE",
"443 314 LINE",
"452 379 LINE",
"162 379 LINE",
"197 628 LINE",
"736 628 LINE",
"745 693 LINE",
"141 693 LINE",
"43 0 LINE"
);
}
);
width = 582;
},
{
anchors = (
{
name = bottom;
position = "{246, 0}";
},
{
name = top;
position = "{344, 693}";
}
);
layerId = "37B2A381-2B9F-4DE4-98E5-835D13A27EF0";
paths = (
{
closed = 1;
nodes = (
"128 0 LINE",
"171 303 LINE",
"451 303 LINE",
"463 390 LINE",
"183 390 LINE",
"214 607 LINE",
"734 607 LINE",
"746 693 LINE",
"140 693 LINE",
"42 0 LINE"
);
}
);
width = 582;
}
);
unicode = 0046;
},
{
glyphname = G;
lastChange = "2019-08-14 18:46:20 +0000";
layers = (
{
anchors = (
{
name = bottom;
position = "{369, 0}";
},
{
name = top;
position = "{467, 693}";
}
);
layerId = "DA405910-5117-420C-9605-F5A44EE03BDF";
paths = (
{
closed = 1;
nodes = (
"545 -20 OFFCURVE",
"726 83 OFFCURVE",
"754 280 CURVE",
"415 280 LINE",
"406 216 LINE",
"670 216 LINE",
"652 148 OFFCURVE",
"543 44 OFFCURVE",
"386 44 CURVE SMOOTH",
"217 44 OFFCURVE",
"107 170 OFFCURVE",
"132 345 CURVE SMOOTH",
"157 520 OFFCURVE",
"298 648 OFFCURVE",
"467 648 CURVE SMOOTH",
"595 648 OFFCURVE",
"685 575 OFFCURVE",
"712 465 CURVE",
"783 489 LINE",
"750 625 OFFCURVE",
"637 712 OFFCURVE",
"476 712 CURVE SMOOTH",
"265 712 OFFCURVE",
"90 560 OFFCURVE",
"60 345 CURVE SMOOTH",
"30 132 OFFCURVE",
"166 -20 OFFCURVE",
"377 -20 CURVE SMOOTH"
);
}
);
width = 813;
},
{
anchors = (
{
name = bottom;
position = "{369, 0}";
},
{
name = top;
position = "{467, 693}";
}
);
layerId = "37B2A381-2B9F-4DE4-98E5-835D13A27EF0";
paths = (
{
closed = 1;
nodes = (
"575 -20 OFFCURVE",
"737 112 OFFCURVE",
"756 294 CURVE",
"405 294 LINE",
"393 209 LINE",
"646 209 LINE",
"621 147 OFFCURVE",
"526 65 OFFCURVE",
"389 65 CURVE SMOOTH",
"230 65 OFFCURVE",
"130 184 OFFCURVE",
"153 345 CURVE SMOOTH",
"176 508 OFFCURVE",
"307 627 OFFCURVE",
"464 627 CURVE SMOOTH",
"583 627 OFFCURVE",
"671 558 OFFCURVE",
"693 446 CURVE",
"786 477 LINE",
"756 623 OFFCURVE",
"637 712 OFFCURVE",
"476 712 CURVE SMOOTH",
"264 712 OFFCURVE",
"90 559 OFFCURVE",
"60 345 CURVE SMOOTH",
"30 134 OFFCURVE",
"164 -20 OFFCURVE",
"377 -20 CURVE SMOOTH"
);
}
);
width = 813;
}
);
unicode = 0047;
},
{
glyphname = H;
lastChange = "2019-08-14 18:46:20 +0000";
layers = (
{
anchors = (
{
name = bottom;
position = "{376, 0}";
},
{
name = center;
position = "{425, 347}";
},
{
name = top;
position = "{474, 693}";
},
{
name = topleft;
position = "{93, 693}";
}
);
layerId = "DA405910-5117-420C-9605-F5A44EE03BDF";
paths = (
{
closed = 1;
nodes = (
"108 0 LINE",
"156 334 LINE",
"689 334 LINE",
"643 0 LINE",
"708 0 LINE",
"806 693 LINE",
"741 693 LINE",
"699 399 LINE",
"166 399 LINE",
"206 693 LINE",
"141 693 LINE",
"43 0 LINE"
);
}
);
width = 821;
},
{
anchors = (
{
name = bottom;
position = "{376, 0}";
},
{
name = center;
position = "{425, 347}";
},
{
name = top;
position = "{474, 693}";
},
{
name = topleft;
position = "{93, 693}";
}
);
layerId = "37B2A381-2B9F-4DE4-98E5-835D13A27EF0";
paths = (
{
closed = 1;
nodes = (
"129 0 LINE",
"175 323 LINE",
"668 323 LINE",
"622 0 LINE",
"708 0 LINE",
"806 693 LINE",
"720 693 LINE",
"680 409 LINE",
"187 409 LINE",
"227 693 LINE",
"141 693 LINE",
"43 0 LINE"
);
}
);
width = 821;
}
);
unicode = 0048;
},
{
glyphname = Hbar;
lastChange = "2019-08-14 18:46:20 +0000";
layers = (
{
layerId = "DA405910-5117-420C-9605-F5A44EE03BDF";
paths = (
{
closed = 1;
nodes = (
"192 0 LINE",
"240 334 LINE",
"773 334 LINE",
"727 0 LINE",
"792 0 LINE",
"890 693 LINE",
"825 693 LINE",
"783 399 LINE",
"250 399 LINE",
"290 693 LINE",
"225 693 LINE",
"127 0 LINE"
);
},
{
closed = 1;
nodes = (
"110 510 LINE",
"952 510 LINE",
"961 574 LINE",
"119 574 LINE"
);
}
);
width = 988;
},
{
layerId = "37B2A381-2B9F-4DE4-98E5-835D13A27EF0";
paths = (
{
closed = 1;
nodes = (
"213 0 LINE",
"259 323 LINE",
"751 323 LINE",
"706 0 LINE",
"792 0 LINE",
"890 693 LINE",
"804 693 LINE",
"764 409 LINE",
"271 409 LINE",
"310 693 LINE",
"225 693 LINE",
"127 0 LINE"
);
},
{
closed = 1;
nodes = (
"111 500 LINE",
"949 500 LINE",
"961 585 LINE",
"123 585 LINE"
);
}
);
width = 988;
}
);
unicode = 0126;
},
{
glyphname = I;
lastChange = "2019-08-14 18:46:20 +0000";
layers = (
{
anchors = (
{
name = bottom;
position = "{170, 0}";
},
{
name = ogonek;
position = "{295, 10}";
},
{
name = top;
position = "{268, 693}";
},
{
name = topleft;
position = "{145, 693}";
}
);
layerId = "DA405910-5117-420C-9605-F5A44EE03BDF";
paths = (
{
closed = 1;
nodes = (
"293 0 LINE",
"303 65 LINE",
"213 65 LINE",
"292 628 LINE",
"382 628 LINE",
"391 693 LINE",
"145 693 LINE",
"136 628 LINE",
"226 628 LINE",
"147 65 LINE",
"57 65 LINE",
"47 0 LINE"
);
}
);
width = 410;
},
{
anchors = (
{
name = bottom;
position = "{170, 0}";
},
{
name = ogonek;
position = "{295, 10}";
},
{
name = top;
position = "{268, 693}";
},
{
name = topleft;
position = "{145, 693}";
}
);
layerId = "37B2A381-2B9F-4DE4-98E5-835D13A27EF0";
paths = (
{
closed = 1;
nodes = (
"300 0 LINE",
"313 86 LINE",
"226 86 LINE",
"299 607 LINE",
"386 607 LINE",
"398 693 LINE",
"138 693 LINE",
"126 607 LINE",
"213 607 LINE",
"140 86 LINE",
"53 86 LINE",
"40 0 LINE"
);
}
);
width = 410;
}
);
unicode = 0049;
},
{
glyphname = J;
lastChange = "2019-08-14 18:46:20 +0000";
layers = (
{
anchors = (
{
name = bottom;
position = "{264, 0}";
},
{
name = top;
position = "{362, 693}";
}
);
layerId = "DA405910-5117-420C-9605-F5A44EE03BDF";
paths = (
{
closed = 1;
nodes = (
"403 -20 OFFCURVE",
"539 77 OFFCURVE",
"570 280 CURVE SMOOTH",
"628 693 LINE",
"266 693 LINE",
"257 628 LINE",
"553 628 LINE",
"509 320 LINE SMOOTH",
"485 145 OFFCURVE",
"397 44 OFFCURVE",
"243 44 CURVE SMOOTH",
"163 44 OFFCURVE",
"79 76 OFFCURVE",
"51 196 CURVE",
"-18 172 LINE",
"9 37 OFFCURVE",
"113 -20 OFFCURVE",
"234 -20 CURVE SMOOTH"
);
}
);
width = 647;
},
{
anchors = (
{
name = bottom;
position = "{264, 0}";
},
{
name = top;
position = "{362, 693}";
}
);
layerId = "37B2A381-2B9F-4DE4-98E5-835D13A27EF0";
paths = (
{
closed = 1;
nodes = (
"418 -20 OFFCURVE",
"544 93 OFFCURVE",
"572 282 CURVE SMOOTH",
"630 693 LINE",
"257 693 LINE",
"245 607 LINE",
"531 607 LINE",
"491 321 LINE SMOOTH",
"467 152 OFFCURVE",
"384 65 OFFCURVE",
"246 65 CURVE SMOOTH",
"149 65 OFFCURVE",
"88 115 OFFCURVE",
"68 215 CURVE",
"-22 184 LINE",
"-1 55 OFFCURVE",
"94 -20 OFFCURVE",
"234 -20 CURVE SMOOTH"
);
}
);
width = 647;
}
);
unicode = 004A;
},
{
glyphname = K;
lastChange = "2019-08-14 18:46:20 +0000";
layers = (
{
anchors = (
{
name = bottom;
position = "{331, 0}";
},
{
name = top;
position = "{429, 693}";
}
);
layerId = "DA405910-5117-420C-9605-F5A44EE03BDF";
paths = (
{
closed = 1;
nodes = (
"120 0 LINE",
"140 139 LINE",
"334 309 LINE",
"598 0 LINE",
"688 0 LINE",
"384 354 LINE",
"771 693 LINE",
"681 693 LINE",
"153 230 LINE",
"218 693 LINE",
"153 693 LINE",
"55 0 LINE"
);
}
);
width = 708;
},
{
anchors = (
{
name = bottom;
position = "{331, 0}";
},
{
name = top;
position = "{429, 693}";
}
);
layerId = "37B2A381-2B9F-4DE4-98E5-835D13A27EF0";
paths = (
{
closed = 1;
nodes = (
"140 0 LINE",
"160 141 LINE",
"335 294 LINE",
"586 0 LINE",
"706 0 LINE",
"402 354 LINE",
"789 693 LINE",
"669 693 LINE",
"177 262 LINE",
"238 693 LINE",
"152 693 LINE",
"54 0 LINE"
);
}
);
width = 708;
}
);
unicode = 004B;
},
{
glyphname = L;
lastChange = "2019-08-14 18:46:20 +0000";
layers = (
{
anchors = (
{
name = bottom;
position = "{305, 0}";
},
{
name = center;
position = "{354, 347}";
},
{
name = top;
position = "{173, 693}";
},
{
name = topright;
position = "{713, 693}";
}
);
layerId = "DA405910-5117-420C-9605-F5A44EE03BDF";
paths = (
{
closed = 1;
nodes = (
"607 0 LINE",
"617 65 LINE",
"118 65 LINE",
"206 693 LINE",
"141 693 LINE",
"43 0 LINE"
);
}
);
width = 629;
},
{
anchors = (
{
name = bottom;
position = "{305, 0}";
},
{
name = center;
position = "{354, 347}";
},
{
name = top;
position = "{182, 693}";
},
{
name = topright;
position = "{713, 693}";
}
);
layerId = "37B2A381-2B9F-4DE4-98E5-835D13A27EF0";
paths = (
{
closed = 1;
nodes = (
"609 0 LINE",
"622 86 LINE",
"140 86 LINE",
"225 693 LINE",
"139 693 LINE",
"41 0 LINE"
);
}
);
width = 629;
}
);
unicode = 004C;
},
{
glyphname = Lslash;
lastChange = "2019-08-14 18:46:20 +0000";
layers = (
{
layerId = "DA405910-5117-420C-9605-F5A44EE03BDF";
paths = (
{
closed = 1;
nodes = (
"729 -2 LINE",
"738 63 LINE",
"239 63 LINE",
"328 693 LINE",
"263 693 LINE",
"165 -2 LINE"
);
},
{
closed = 1;
nodes = (
"71 226 LINE",
"522 437 LINE",
"532 509 LINE",
"81 298 LINE"
);
}
);
width = 797;
},
{
background = {
paths = (
{
closed = 1;
nodes = (
"764 -2 LINE",
"764 63 LINE",
"265 63 LINE",
"265 693 LINE",
"200 693 LINE",
"200 -2 LINE"
);
}
);
};
layerId = "37B2A381-2B9F-4DE4-98E5-835D13A27EF0";
paths = (
{
closed = 1;
nodes = (
"57 208 LINE",
"533 431 LINE",
"547 527 LINE",
"70 304 LINE"
);
},
{
closed = 1;
nodes = (
"734 0 LINE",
"747 86 LINE",
"265 86 LINE",
"350 693 LINE",
"264 693 LINE",
"166 0 LINE"
);
}
);
width = 797;
}
);
unicode = 0141;
},
{
glyphname = M;
lastChange = "2019-08-14 18:46:20 +0000";
layers = (
{
anchors = (
{
name = bottom;
position = "{413, 0}";
},
{
name = top;
position = "{511, 693}";
}
);
layerId = "DA405910-5117-420C-9605-F5A44EE03BDF";
paths = (
{
closed = 1;
nodes = (
"108 0 LINE",
"193 600 LINE",
"437 169 LINE",
"803 600 LINE",
"718 0 LINE",
"783 0 LINE",
"881 693 LINE",
"795 693 LINE",
"453 284 LINE",
"227 693 LINE",
"141 693 LINE",
"43 0 LINE"
);
}
);
width = 896;
},
{
anchors = (
{
name = bottom;
position = "{413, 0}";
},
{
name = top;
position = "{511, 693}";
}
);
layerId = "37B2A381-2B9F-4DE4-98E5-835D13A27EF0";
paths = (
{
closed = 1;
nodes = (
"130 0 LINE",
"208 555 LINE",
"435 155 LINE",
"774 555 LINE",
"696 0 LINE",
"782 0 LINE",
"880 693 LINE",
"779 693 LINE",
"457 306 LINE",
"243 693 LINE",
"142 693 LINE",
"44 0 LINE"
);
}
);
width = 896;
}
);
unicode = 004D;
},
{
glyphname = N;
lastChange = "2019-08-14 18:46:20 +0000";
layers = (
{
anchors = (
{
name = bottom;
position = "{389, 0}";
},
{
name = top;
position = "{487, 693}";
}
);
layerId = "DA405910-5117-420C-9605-F5A44EE03BDF";
paths = (
{
closed = 1;
nodes = (
"108 0 LINE",
"195 615 LINE",
"624 0 LINE",
"710 0 LINE",
"808 693 LINE",
"743 693 LINE",
"656 78 LINE",
"227 693 LINE",
"141 693 LINE",
"43 0 LINE"
);
}
);
width = 823;
},
{
anchors = (
{
name = bottom;
position = "{389, 0}";
},
{
name = top;
position = "{487, 693}";
}
);
layerId = "37B2A381-2B9F-4DE4-98E5-835D13A27EF0";
paths = (
{
closed = 1;
nodes = (
"129 0 LINE",
"210 574 LINE",
"610 0 LINE",
"710 0 LINE",
"808 693 LINE",
"722 693 LINE",
"641 119 LINE",
"241 693 LINE",
"141 693 LINE",
"43 0 LINE"
);
}
);
width = 823;
}
);
unicode = 004E;
},
{
glyphname = Eng;
lastChange = "2019-08-14 18:46:20 +0000";
layers = (
{
layerId = "DA405910-5117-420C-9605-F5A44EE03BDF";
paths = (
{
closed = 1;
nodes = (
"125 0 LINE",
"212 615 LINE",
"640 0 LINE",
"636 -31 LINE SMOOTH",
"629 -84 OFFCURVE",
"627 -95 OFFCURVE",
"613 -108 CURVE SMOOTH",
"601 -120 OFFCURVE",
"579 -128 OFFCURVE",
"542 -128 CURVE SMOOTH",
"452 -128 LINE",
"444 -184 LINE",
"533 -184 LINE SMOOTH",
"588 -184 OFFCURVE",
"624 -177 OFFCURVE",
"651 -154 CURVE",
"679 -132 OFFCURVE",
"690 -110 OFFCURVE",
"696 -67 CURVE SMOOTH",
"803 693 LINE",
"738 693 LINE",
"654 93 LINE",
"244 693 LINE",
"158 693 LINE",
"60 0 LINE"
);
}
);
width = 813;
},
{
layerId = "37B2A381-2B9F-4DE4-98E5-835D13A27EF0";
paths = (
{
closed = 1;
nodes = (
"137 -5 LINE",
"218 573 LINE",
"628 0 LINE",
"625 -23 LINE SMOOTH",
"618 -77 OFFCURVE",
"616 -82 OFFCURVE",
"607 -90 CURVE SMOOTH",
"595 -101 OFFCURVE",
"576 -106 OFFCURVE",
"545 -106 CURVE SMOOTH",
"443 -106 LINE",
"432 -184 LINE",
"533 -184 LINE SMOOTH",
"595 -184 OFFCURVE",
"631 -175 OFFCURVE",
"659 -152 CURVE",
"690 -128 OFFCURVE",
"703 -104 OFFCURVE",
"709 -58 CURVE SMOOTH",
"815 693 LINE",
"726 693 LINE",
"647 130 LINE",
"250 693 LINE",
"146 693 LINE",
"48 -5 LINE"
);
}
);
width = 813;
}
);
unicode = 014A;
},
{
glyphname = O;
lastChange = "2019-08-14 18:46:20 +0000";
layers = (
{
anchors = (
{
name = bottom;
position = "{378, 0}";
},
{
name = center;
position = "{427, 347}";
},
{
name = horn;
position = "{762, 491}";
},
{
name = ogonek;
position = "{703, 10}";
},
{
name = top;
position = "{476, 693}";
},
{
name = topleft;
position = "{91, 693}";
},
{
name = topright;
position = "{860, 693}";
}
);
layerId = "DA405910-5117-420C-9605-F5A44EE03BDF";
paths = (
{
closed = 1;
nodes = (
"587 -20 OFFCURVE",
"761 132 OFFCURVE",
"791 345 CURVE SMOOTH",
"821 560 OFFCURVE",
"690 712 OFFCURVE",
"478 712 CURVE SMOOTH",
"267 712 OFFCURVE",
"92 560 OFFCURVE",
"62 345 CURVE SMOOTH",
"32 132 OFFCURVE",
"164 -20 OFFCURVE",
"375 -20 CURVE SMOOTH"
);
},
{
closed = 1;
nodes = (
"215 44 OFFCURVE",
"109 170 OFFCURVE",
"134 345 CURVE SMOOTH",
"159 520 OFFCURVE",
"300 648 OFFCURVE",
"469 648 CURVE SMOOTH",
"639 648 OFFCURVE",
"744 520 OFFCURVE",
"719 345 CURVE SMOOTH",
"694 170 OFFCURVE",
"554 44 OFFCURVE",
"384 44 CURVE SMOOTH"
);
}
);
width = 825;
},
{
anchors = (
{
name = bottom;
position = "{378, 0}";
},
{
name = center;
position = "{427, 347}";
},
{
name = horn;
position = "{762, 491}";
},
{
name = ogonek;
position = "{703, 10}";
},
{
name = top;
position = "{476, 693}";
},
{
name = topleft;
position = "{91, 693}";
},
{
name = topright;
position = "{860, 693}";
}
);
layerId = "37B2A381-2B9F-4DE4-98E5-835D13A27EF0";
paths = (
{
closed = 1;
nodes = (
"587 -20 OFFCURVE",
"761 133 OFFCURVE",
"791 345 CURVE SMOOTH",
"821 559 OFFCURVE",
"691 712 OFFCURVE",
"478 712 CURVE SMOOTH",
"266 712 OFFCURVE",
"92 559 OFFCURVE",
"62 345 CURVE SMOOTH",
"32 133 OFFCURVE",
"164 -20 OFFCURVE",
"375 -20 CURVE SMOOTH"
);
},
{
closed = 1;
nodes = (
"229 65 OFFCURVE",
"132 182 OFFCURVE",
"155 345 CURVE SMOOTH",
"178 508 OFFCURVE",
"309 627 OFFCURVE",
"466 627 CURVE SMOOTH",
"624 627 OFFCURVE",
"721 508 OFFCURVE",
"698 345 CURVE SMOOTH",
"675 182 OFFCURVE",
"545 65 OFFCURVE",
"387 65 CURVE SMOOTH"
);
}
);
width = 825;
}
);
unicode = 004F;
},
{
glyphname = Oslash;
lastChange = "2019-08-14 18:46:20 +0000";
layers = (
{
layerId = "DA405910-5117-420C-9605-F5A44EE03BDF";
paths = (
{
closed = 1;
nodes = (
"585 -20 OFFCURVE",
"759 132 OFFCURVE",
"789 345 CURVE SMOOTH",
"819 560 OFFCURVE",
"688 712 OFFCURVE",
"476 712 CURVE SMOOTH",
"265 712 OFFCURVE",
"89 560 OFFCURVE",
"59 345 CURVE SMOOTH",
"29 132 OFFCURVE",
"162 -20 OFFCURVE",
"373 -20 CURVE SMOOTH"
);
},
{
closed = 1;
nodes = (
"213 44 OFFCURVE",
"107 170 OFFCURVE",
"132 345 CURVE SMOOTH",
"157 520 OFFCURVE",
"298 648 OFFCURVE",
"467 648 CURVE SMOOTH",
"637 648 OFFCURVE",
"742 520 OFFCURVE",
"717 345 CURVE SMOOTH",
"692 170 OFFCURVE",
"551 44 OFFCURVE",
"382 44 CURVE SMOOTH"
);
},
{
closed = 1;
nodes = (
"48 -52 LINE",
"133 -52 LINE",
"801 750 LINE",
"716 750 LINE"
);
}
);
width = 860;
},
{
background = {
paths = (
{
closed = 1;
nodes = (
"622 -20 OFFCURVE",
"775 132 OFFCURVE",
"775 345 CURVE SMOOTH",
"775 560 OFFCURVE",
"622 712 OFFCURVE",
"410 712 CURVE SMOOTH",
"199 712 OFFCURVE",
"45 560 OFFCURVE",
"45 345 CURVE SMOOTH",
"45 132 OFFCURVE",
"199 -20 OFFCURVE",
"410 -20 CURVE SMOOTH"
);
},
{
closed = 1;
nodes = (
"241 44 OFFCURVE",
"118 170 OFFCURVE",
"118 345 CURVE SMOOTH",
"118 520 OFFCURVE",
"241 648 OFFCURVE",
"410 648 CURVE SMOOTH",
"580 648 OFFCURVE",
"703 520 OFFCURVE",
"703 345 CURVE SMOOTH",
"703 170 OFFCURVE",
"579 44 OFFCURVE",
"410 44 CURVE SMOOTH"
);
},
{
closed = 1;
nodes = (
"90 -52 LINE",
"175 -52 LINE",
"730 750 LINE",
"645 750 LINE"
);
}
);
};
layerId = "37B2A381-2B9F-4DE4-98E5-835D13A27EF0";
paths = (
{
closed = 1;
nodes = (
"37 -52 LINE",
"143 -52 LINE",
"811 750 LINE",
"705 750 LINE"
);
},
{
closed = 1;
nodes = (
"587 -20 OFFCURVE",
"761 133 OFFCURVE",
"791 345 CURVE SMOOTH",
"821 559 OFFCURVE",
"691 712 OFFCURVE",
"478 712 CURVE SMOOTH",
"266 712 OFFCURVE",
"92 559 OFFCURVE",
"62 345 CURVE SMOOTH",
"32 133 OFFCURVE",
"164 -20 OFFCURVE",
"375 -20 CURVE SMOOTH"
);
},
{
closed = 1;
nodes = (
"229 65 OFFCURVE",
"132 182 OFFCURVE",
"155 345 CURVE SMOOTH",
"178 508 OFFCURVE",
"309 627 OFFCURVE",
"466 627 CURVE SMOOTH",
"624 627 OFFCURVE",
"721 508 OFFCURVE",
"698 345 CURVE SMOOTH",
"675 182 OFFCURVE",
"545 65 OFFCURVE",
"387 65 CURVE SMOOTH"
);
}
);
width = 860;
}
);
unicode = 00D8;
},
{
glyphname = OE;
lastChange = "2019-08-14 18:46:20 +0000";
layers = (
{
layerId = "DA405910-5117-420C-9605-F5A44EE03BDF";
paths = (
{
closed = 1;
nodes = (
"29 132 OFFCURVE",
"161 -20 OFFCURVE",
"372 -20 CURVE SMOOTH",
"500 -20 OFFCURVE",
"614 35 OFFCURVE",
"691 127 CURVE",
"673 0 LINE",
"1271 0 LINE",
"1281 65 LINE",
"749 65 LINE",
"792 372 LINE",
"1123 372 LINE",
"1132 437 LINE",
"801 437 LINE",
"828 628 LINE",
"1360 628 LINE",
"1369 693 LINE",
"771 693 LINE",
"753 565 LINE",
"702 657 OFFCURVE",
"603 712 OFFCURVE",
"475 712 CURVE SMOOTH",
"264 712 OFFCURVE",
"89 560 OFFCURVE",
"59 345 CURVE SMOOTH"
);
},
{
closed = 1;
nodes = (
"156 520 OFFCURVE",
"297 648 OFFCURVE",
"466 648 CURVE SMOOTH",
"636 648 OFFCURVE",
"741 520 OFFCURVE",
"716 345 CURVE SMOOTH",
"691 170 OFFCURVE",
"551 44 OFFCURVE",
"381 44 CURVE SMOOTH",
"212 44 OFFCURVE",
"106 170 OFFCURVE",
"131 345 CURVE SMOOTH"
);
}
);
width = 1344;
},
{
layerId = "37B2A381-2B9F-4DE4-98E5-835D13A27EF0";
paths = (
{
closed = 1;
nodes = (
"37 133 OFFCURVE",
"169 -20 OFFCURVE",
"380 -20 CURVE SMOOTH",
"493 -20 OFFCURVE",
"598 23 OFFCURVE",
"675 100 CURVE",
"660 -1 LINE",
"1263 -1 LINE",
"1276 86 LINE",
"760 86 LINE",
"798 360 LINE",
"1119 360 LINE",
"1131 446 LINE",
"810 446 LINE",
"833 607 LINE",
"1349 607 LINE",
"1361 694 LINE",
"758 694 LINE",
"744 592 LINE",
"689 669 OFFCURVE",
"596 712 OFFCURVE",
"483 712 CURVE SMOOTH",
"272 712 OFFCURVE",
"97 559 OFFCURVE",
"67 345 CURVE SMOOTH"
);
},
{
closed = 1;
nodes = (
"183 508 OFFCURVE",
"314 627 OFFCURVE",
"471 627 CURVE SMOOTH",
"629 627 OFFCURVE",
"727 508 OFFCURVE",
"704 345 CURVE SMOOTH",
"681 182 OFFCURVE",
"551 65 OFFCURVE",
"392 65 CURVE SMOOTH",
"235 65 OFFCURVE",
"137 182 OFFCURVE",
"160 345 CURVE SMOOTH"
);
}
);
width = 1344;
}
);
unicode = 0152;
},
{
glyphname = P;
lastChange = "2019-08-14 18:46:20 +0000";
layers = (
{
anchors = (
{
name = bottom;
position = "{345, 0}";
},
{
name = top;
position = "{443, 693}";
}
);
background = {
paths = (
{
closed = 1;
nodes = (
"150 0 LINE",
"150 65 LINE",
"150 118 LINE",
"150 307 LINE",
"524 307 LINE SMOOTH",
"602 307 OFFCURVE",
"645 337 OFFCURVE",
"672 372 CURVE SMOOTH",
"694 400 OFFCURVE",
"712 458 OFFCURVE",
"712 499 CURVE SMOOTH",
"712 616 OFFCURVE",
"637 693 OFFCURVE",
"520 693 CURVE SMOOTH",
"85 693 LINE",
"85 0 LINE"
);
},
{
closed = 1;
nodes = (
"150 628 LINE",
"203 628 LINE",
"520 628 LINE SMOOTH",
"591 628 OFFCURVE",
"641 562 OFFCURVE",
"641 500 CURVE SMOOTH",
"641 440 OFFCURVE",
"599 372 OFFCURVE",
"520 372 CURVE SMOOTH",
"150 372 LINE"
);
}
);
};
layerId = "DA405910-5117-420C-9605-F5A44EE03BDF";
paths = (
{
closed = 1;
nodes = (
"120 0 LINE",
"164 307 LINE",
"538 307 LINE SMOOTH",
"653 307 OFFCURVE",
"737 385 OFFCURVE",
"753 500 CURVE SMOOTH",
"769 616 OFFCURVE",
"707 693 OFFCURVE",
"592 693 CURVE SMOOTH",
"153 693 LINE",
"55 0 LINE"
);
},
{
closed = 1;
nodes = (
"209 628 LINE",
"579 628 LINE SMOOTH",
"650 628 OFFCURVE",
"693 568 OFFCURVE",
"684 500 CURVE SMOOTH",
"674 434 OFFCURVE",
"622 372 OFFCURVE",
"543 372 CURVE SMOOTH",
"173 372 LINE"
);
}
);
width = 759;
},
{
anchors = (
{
name = bottom;
position = "{345, 0}";
},
{
name = top;
position = "{443, 693}";
}
);
layerId = "37B2A381-2B9F-4DE4-98E5-835D13A27EF0";
paths = (
{
closed = 1;
nodes = (
"140 0 LINE",
"182 297 LINE",
"532 297 LINE SMOOTH",
"648 297 OFFCURVE",
"736 376 OFFCURVE",
"753 495 CURVE SMOOTH",
"770 614 OFFCURVE",
"704 693 OFFCURVE",
"588 693 CURVE SMOOTH",
"152 693 LINE",
"54 0 LINE"
);
},
{
closed = 1;
nodes = (
"226 607 LINE",
"572 607 LINE SMOOTH",
"631 607 OFFCURVE",
"672 557 OFFCURVE",
"663 495 CURVE SMOOTH",
"654 430 OFFCURVE",
"603 383 OFFCURVE",
"540 383 CURVE SMOOTH",
"194 383 LINE"
);
}
);
width = 759;
}
);
unicode = 0050;
},
{
glyphname = Thorn;
lastChange = "2019-08-14 18:46:20 +0000";
layers = (
{
layerId = "DA405910-5117-420C-9605-F5A44EE03BDF";
paths = (
{
closed = 1;
nodes = (
"115 0 LINE",
"139 170 LINE",
"513 170 LINE SMOOTH",
"628 170 OFFCURVE",
"712 248 OFFCURVE",
"729 363 CURVE SMOOTH",
"745 479 OFFCURVE",
"683 556 OFFCURVE",
"568 556 CURVE SMOOTH",
"194 556 LINE",
"213 693 LINE",
"148 693 LINE",
"50 0 LINE"
);
},
{
closed = 1;
nodes = (
"185 491 LINE",
"555 491 LINE SMOOTH",
"626 491 OFFCURVE",
"669 431 OFFCURVE",
"660 363 CURVE SMOOTH",
"650 297 OFFCURVE",
"598 235 OFFCURVE",
"519 235 CURVE SMOOTH",
"149 235 LINE"
);
}
);
width = 745;
},
{
layerId = "37B2A381-2B9F-4DE4-98E5-835D13A27EF0";
paths = (
{
closed = 1;
nodes = (
"135 0 LINE",
"159 164 LINE",
"509 164 LINE SMOOTH",
"625 164 OFFCURVE",
"713 243 OFFCURVE",
"729 362 CURVE SMOOTH",
"746 482 OFFCURVE",
"680 561 OFFCURVE",
"564 561 CURVE SMOOTH",
"214 561 LINE",
"233 693 LINE",
"147 693 LINE",
"49 0 LINE"
);
},
{
closed = 1;
nodes = (
"202 475 LINE",
"548 475 LINE SMOOTH",
"607 475 OFFCURVE",
"648 425 OFFCURVE",
"639 362 CURVE SMOOTH",
"630 297 OFFCURVE",
"580 250 OFFCURVE",
"517 250 CURVE SMOOTH",
"171 250 LINE"
);
}
);
width = 745;
}
);
unicode = 00DE;
},
{
glyphname = Q;
lastChange = "2019-08-14 18:46:20 +0000";
layers = (
{
anchors = (
{
name = bottom;
position = "{376, 0}";
},
{
name = top;
position = "{474, 693}";
}
);
layerId = "DA405910-5117-420C-9605-F5A44EE03BDF";
paths = (
{
closed = 1;
nodes = (
"585 -19 OFFCURVE",
"759 133 OFFCURVE",
"789 346 CURVE SMOOTH",
"819 560 OFFCURVE",
"688 712 OFFCURVE",
"476 712 CURVE SMOOTH",
"265 712 OFFCURVE",
"90 560 OFFCURVE",
"60 346 CURVE SMOOTH",
"30 133 OFFCURVE",
"162 -19 OFFCURVE",
"373 -19 CURVE SMOOTH"
);
},
{
closed = 1;
nodes = (
"213 45 OFFCURVE",
"108 172 OFFCURVE",
"132 346 CURVE SMOOTH",
"157 520 OFFCURVE",
"298 648 OFFCURVE",
"467 648 CURVE SMOOTH",
"637 648 OFFCURVE",
"742 520 OFFCURVE",
"717 346 CURVE SMOOTH",
"693 171 OFFCURVE",
"552 45 OFFCURVE",
"382 45 CURVE SMOOTH"
);
},
{
closed = 1;
nodes = (
"663 -70 LINE",
"716 -24 LINE",
"450 285 LINE",
"397 239 LINE"
);
}
);
width = 821;
},
{
anchors = (
{
name = bottom;
position = "{376, 0}";
},
{
name = top;
position = "{474, 693}";
}
);
layerId = "37B2A381-2B9F-4DE4-98E5-835D13A27EF0";
paths = (
{
closed = 1;
nodes = (
"584 -19 OFFCURVE",
"758 134 OFFCURVE",
"788 345 CURVE SMOOTH",
"818 557 OFFCURVE",
"687 710 OFFCURVE",
"475 710 CURVE SMOOTH",
"264 710 OFFCURVE",
"91 557 OFFCURVE",
"61 345 CURVE SMOOTH",
"31 134 OFFCURVE",
"162 -19 OFFCURVE",
"373 -19 CURVE SMOOTH"
);
},
{
closed = 1;
nodes = (
"229 66 OFFCURVE",
"131 184 OFFCURVE",
"154 345 CURVE SMOOTH",
"177 507 OFFCURVE",
"307 625 OFFCURVE",
"463 625 CURVE SMOOTH",
"620 625 OFFCURVE",
"718 507 OFFCURVE",
"695 345 CURVE SMOOTH",
"672 183 OFFCURVE",
"543 66 OFFCURVE",
"385 66 CURVE SMOOTH"
);
},
{
closed = 1;
nodes = (
"651 -72 LINE",
"722 -12 LINE",
"451 303 LINE",
"382 242 LINE"
);
}
);
width = 821;
}
);
unicode = 0051;
},
{
glyphname = R;
lastChange = "2019-08-14 18:46:20 +0000";
layers = (
{
anchors = (
{
name = bottom;
position = "{333, 0}";
},
{
name = top;
position = "{431, 693}";
}
);
layerId = "DA405910-5117-420C-9605-F5A44EE03BDF";
paths = (
{
closed = 1;
nodes = (
"112 0 LINE",
"156 307 LINE",
"437 307 LINE",
"594 0 LINE",
"674 0 LINE",
"517 307 LINE",
"530 307 LINE SMOOTH",
"645 307 OFFCURVE",
"729 385 OFFCURVE",
"745 500 CURVE SMOOTH",
"761 616 OFFCURVE",
"699 693 OFFCURVE",
"584 693 CURVE SMOOTH",
"145 693 LINE",
"47 0 LINE"
);
},
{
closed = 1;
nodes = (
"201 628 LINE",
"571 628 LINE SMOOTH",
"642 628 OFFCURVE",
"685 568 OFFCURVE",
"676 500 CURVE SMOOTH",
"666 434 OFFCURVE",
"614 372 OFFCURVE",
"535 372 CURVE SMOOTH",
"165 372 LINE"
);
}
);
width = 751;
},
{
anchors = (
{
name = bottom;
position = "{332, 0}";
},
{
name = top;
position = "{430, 693}";
}
);
layerId = "37B2A381-2B9F-4DE4-98E5-835D13A27EF0";
paths = (
{
closed = 1;
nodes = (
"131 0 LINE",
"173 297 LINE",
"427 297 LINE",
"579 0 LINE",
"684 0 LINE",
"532 297 LINE",
"523 297 LINE",
"639 297 OFFCURVE",
"727 376 OFFCURVE",
"744 495 CURVE SMOOTH",
"761 614 OFFCURVE",
"696 693 OFFCURVE",
"579 693 CURVE SMOOTH",
"143 693 LINE",
"45 0 LINE"
);
},
{
closed = 1;
nodes = (
"217 607 LINE",
"563 607 LINE SMOOTH",
"623 607 OFFCURVE",
"663 557 OFFCURVE",
"654 495 CURVE SMOOTH",
"645 430 OFFCURVE",
"594 383 OFFCURVE",
"531 383 CURVE SMOOTH",
"185 383 LINE"
);
}
);
width = 750;
}
);
unicode = 0052;
},
{
glyphname = S;
lastChange = "2019-08-14 18:46:20 +0000";
layers = (
{
anchors = (
{
name = bottom;
position = "{327, 0}";
},
{
name = top;
position = "{425, 693}";
}
);
background = {
paths = (
{
closed = 1;
nodes = (
"577 -20 OFFCURVE",
"666 77 OFFCURVE",
"666 175 CURVE SMOOTH",
"666 288 OFFCURVE",
"570 332 OFFCURVE",
"479 350 CURVE SMOOTH",
"401 365 OFFCURVE",
"311 381 OFFCURVE",
"267 391 CURVE SMOOTH",
"193 408 OFFCURVE",
"132 441 OFFCURVE",
"132 516 CURVE SMOOTH",
"132 565 OFFCURVE",
"189 650 OFFCURVE",
"364 648 CURVE SMOOTH",
"539 646 OFFCURVE",
"603 527 OFFCURVE",
"611 490 CURVE",
"677 509 LINE",
"660 572 OFFCURVE",
"584 712 OFFCURVE",
"364 712 CURVE SMOOTH",
"133 712 OFFCURVE",
"60 594 OFFCURVE",
"60 516 CURVE SMOOTH",
"60 403 OFFCURVE",
"134 352 OFFCURVE",
"250 327 CURVE SMOOTH",
"306 315 OFFCURVE",
"371 306 OFFCURVE",
"458 288 CURVE SMOOTH",
"524 274 OFFCURVE",
"596 249 OFFCURVE",
"596 175 CURVE SMOOTH",
"596 113 OFFCURVE",
"522 44 OFFCURVE",
"371 44 CURVE SMOOTH",
"207 44 OFFCURVE",
"132 156 OFFCURVE",
"119 194 CURVE",
"46 176 LINE",
"71 105 OFFCURVE",
"157 -20 OFFCURVE",
"369 -20 CURVE SMOOTH"
);
}
);
};
hints = (
{
horizontal = 1;
origin = "{0, 21}";
target = down;
type = TopGhost;
}
);
layerId = "DA405910-5117-420C-9605-F5A44EE03BDF";
paths = (
{
closed = 1;
nodes = (
"546 -20 OFFCURVE",
"642 77 OFFCURVE",
"657 175 CURVE SMOOTH",
"674 288 OFFCURVE",
"582 329 OFFCURVE",
"494 350 CURVE SMOOTH",
"418 368 OFFCURVE",
"330 381 OFFCURVE",
"287 391 CURVE SMOOTH",
"216 408 OFFCURVE",
"159 441 OFFCURVE",
"170 516 CURVE SMOOTH",
"177 565 OFFCURVE",
"246 650 OFFCURVE",
"421 648 CURVE SMOOTH",
"595 646 OFFCURVE",
"643 527 OFFCURVE",
"645 490 CURVE",
"714 509 LINE",
"706 572 OFFCURVE",
"650 712 OFFCURVE",
"430 712 CURVE SMOOTH",
"199 712 OFFCURVE",
"109 594 OFFCURVE",
"98 516 CURVE SMOOTH",
"82 403 OFFCURVE",
"149 352 OFFCURVE",
"261 327 CURVE SMOOTH",
"316 315 OFFCURVE",
"387 305 OFFCURVE",
"472 285 CURVE SMOOTH",
"535 270 OFFCURVE",
"596 247 OFFCURVE",
"586 177 CURVE SMOOTH",
"577 110 OFFCURVE",
"494 44 OFFCURVE",
"343 44 CURVE SMOOTH",
"179 44 OFFCURVE",
"117 156 OFFCURVE",
"112 194 CURVE",
"36 176 LINE",
"51 103 OFFCURVE",
"120 -20 OFFCURVE",
"332 -20 CURVE SMOOTH"
);
}
);
width = 723;
},
{
anchors = (
{
name = bottom;
position = "{327, 0}";
},
{
name = top;
position = "{425, 693}";
}
);
background = {
paths = (
{
closed = 1;
nodes = (
"549 -20 OFFCURVE",
"668 60 OFFCURVE",
"668 180 CURVE SMOOTH",
"668 275 OFFCURVE",
"602 337 OFFCURVE",
"477 361 CURVE SMOOTH",
"402 376 OFFCURVE",
"315 391 OFFCURVE",
"273 401 CURVE SMOOTH",
"189 420 OFFCURVE",
"151 455 OFFCURVE",
"151 511 CURVE SMOOTH",
"151 577 OFFCURVE",
"242 628 OFFCURVE",
"364 627 CURVE SMOOTH",
"526 625 OFFCURVE",
"584 517 OFFCURVE",
"594 471 CURVE",
"681 496 LINE",
"671 550 OFFCURVE",
"598 712 OFFCURVE",
"364 712 CURVE SMOOTH",
"134 712 OFFCURVE",
"58 594 OFFCURVE",
"58 511 CURVE SMOOTH",
"58 406 OFFCURVE",
"119 345 OFFCURVE",
"251 316 CURVE SMOOTH",
"306 305 OFFCURVE",
"369 296 OFFCURVE",
"453 278 CURVE SMOOTH",
"539 260 OFFCURVE",
"577 231 OFFCURVE",
"577 180 CURVE SMOOTH",
"577 116 OFFCURVE",
"490 65 OFFCURVE",
"371 65 CURVE SMOOTH",
"197 65 OFFCURVE",
"141 187 OFFCURVE",
"135 212 CURVE",
"41 190 LINE",
"60 123 OFFCURVE",
"144 -20 OFFCURVE",
"369 -20 CURVE SMOOTH"
);
}
);
};
hints = (
{
horizontal = 1;
place = "{677, -20}";
target = down;
type = TopGhost;
}
);
layerId = "37B2A381-2B9F-4DE4-98E5-835D13A27EF0";
paths = (
{
closed = 1;
nodes = (
"515 -20 OFFCURVE",
"642 57 OFFCURVE",
"660 180 CURVE SMOOTH",
"674 273 OFFCURVE",
"620 331 OFFCURVE",
"494 361 CURVE SMOOTH",
"421 379 OFFCURVE",
"335 391 OFFCURVE",
"295 401 CURVE SMOOTH",
"214 420 OFFCURVE",
"180 455 OFFCURVE",
"188 511 CURVE SMOOTH",
"198 577 OFFCURVE",
"296 628 OFFCURVE",
"418 627 CURVE SMOOTH",
"579 625 OFFCURVE",
"622 517 OFFCURVE",
"626 471 CURVE",
"716 496 LINE",
"714 550 OFFCURVE",
"664 712 OFFCURVE",
"430 712 CURVE SMOOTH",
"200 712 OFFCURVE",
"106 589 OFFCURVE",
"95 511 CURVE SMOOTH",
"81 406 OFFCURVE",
"133 345 OFFCURVE",
"261 316 CURVE SMOOTH",
"314 305 OFFCURVE",
"383 295 OFFCURVE",
"464 276 CURVE SMOOTH",
"545 257 OFFCURVE",
"575 231 OFFCURVE",
"568 182 CURVE SMOOTH",
"559 114 OFFCURVE",
"468 65 OFFCURVE",
"346 65 CURVE SMOOTH",
"193 65 OFFCURVE",
"137 167 OFFCURVE",
"130 213 CURVE",
"36 190 LINE",
"46 121 OFFCURVE",
"109 -20 OFFCURVE",
"333 -20 CURVE SMOOTH"
);
}
);
width = 723;
}
);
unicode = 0053;
},
{
glyphname = Germandbls;
lastChange = "2019-08-14 18:46:20 +0000";
layers = (
{
layerId = "DA405910-5117-420C-9605-F5A44EE03BDF";
paths = (
{
closed = 1;
nodes = (
"43 70 OFFCURVE",
"92 -20 OFFCURVE",
"252 -20 CURVE SMOOTH",
"421 -20 OFFCURVE",
"489 61 OFFCURVE",
"498 122 CURVE SMOOTH",
"515 246 OFFCURVE",
"371 255 OFFCURVE",
"294 265 CURVE SMOOTH",
"216 275 OFFCURVE",
"117 288 OFFCURVE",
"128 365 CURVE SMOOTH",
"133 405 OFFCURVE",
"191 458 OFFCURVE",
"317 454 CURVE SMOOTH",
"444 450 OFFCURVE",
"472 378 OFFCURVE",
"476 357 CURVE",
"538 378 LINE",
"528 411 OFFCURVE",
"490 510 OFFCURVE",
"325 510 CURVE SMOOTH",
"158 510 OFFCURVE",
"77 438 OFFCURVE",
"67 365 CURVE SMOOTH",
"49 235 OFFCURVE",
"188 221 OFFCURVE",
"286 208 CURVE SMOOTH",
"384 195 OFFCURVE",
"446 187 OFFCURVE",
"437 123 CURVE SMOOTH",
"431 79 OFFCURVE",
"371 34 OFFCURVE",
"259 36 CURVE SMOOTH",
"149 38 OFFCURVE",
"105 98 OFFCURVE",
"91 139 CURVE",
"28 118 LINE"
);
},
{
closed = 1;
nodes = (
"599 70 OFFCURVE",
"648 -20 OFFCURVE",
"808 -20 CURVE SMOOTH",
"977 -20 OFFCURVE",
"1045 61 OFFCURVE",
"1054 122 CURVE SMOOTH",
"1071 246 OFFCURVE",
"927 255 OFFCURVE",
"850 265 CURVE SMOOTH",
"772 275 OFFCURVE",
"673 288 OFFCURVE",
"684 365 CURVE SMOOTH",
"689 405 OFFCURVE",
"747 458 OFFCURVE",
"873 454 CURVE SMOOTH",
"1000 450 OFFCURVE",
"1028 378 OFFCURVE",
"1032 357 CURVE",
"1094 378 LINE",
"1084 411 OFFCURVE",
"1046 510 OFFCURVE",
"881 510 CURVE SMOOTH",
"714 510 OFFCURVE",
"633 438 OFFCURVE",
"623 365 CURVE SMOOTH",
"605 235 OFFCURVE",
"744 221 OFFCURVE",
"842 208 CURVE SMOOTH",
"940 195 OFFCURVE",
"1002 187 OFFCURVE",
"993 123 CURVE SMOOTH",
"987 79 OFFCURVE",
"927 34 OFFCURVE",
"815 36 CURVE SMOOTH",
"705 38 OFFCURVE",
"661 98 OFFCURVE",
"647 139 CURVE",
"584 118 LINE"
);
}
);
width = 1121;
},
{
background = {
paths = (
{
closed = 1;
nodes = (
"68 70 OFFCURVE",
"129 -20 OFFCURVE",
"289 -20 CURVE SMOOTH",
"458 -20 OFFCURVE",
"515 61 OFFCURVE",
"515 122 CURVE SMOOTH",
"515 246 OFFCURVE",
"370 255 OFFCURVE",
"291 265 CURVE SMOOTH",
"212 275 OFFCURVE",
"111 288 OFFCURVE",
"111 365 CURVE SMOOTH",
"111 405 OFFCURVE",
"161 458 OFFCURVE",
"288 454 CURVE SMOOTH",
"415 450 OFFCURVE",
"453 378 OFFCURVE",
"460 357 CURVE",
"519 378 LINE",
"505 411 OFFCURVE",
"453 510 OFFCURVE",
"288 510 CURVE SMOOTH",
"121 510 OFFCURVE",
"50 438 OFFCURVE",
"50 365 CURVE SMOOTH",
"50 235 OFFCURVE",
"191 221 OFFCURVE",
"291 208 CURVE SMOOTH",
"391 195 OFFCURVE",
"454 187 OFFCURVE",
"454 123 CURVE SMOOTH",
"454 79 OFFCURVE",
"401 34 OFFCURVE",
"288 36 CURVE SMOOTH",
"178 38 OFFCURVE",
"126 98 OFFCURVE",
"106 139 CURVE",
"46 118 LINE"
);
},
{
closed = 1;
nodes = (
"624 70 OFFCURVE",
"685 -20 OFFCURVE",
"845 -20 CURVE SMOOTH",
"1014 -20 OFFCURVE",
"1071 61 OFFCURVE",
"1071 122 CURVE SMOOTH",
"1071 246 OFFCURVE",
"926 255 OFFCURVE",
"847 265 CURVE SMOOTH",
"768 275 OFFCURVE",
"667 288 OFFCURVE",
"667 365 CURVE SMOOTH",
"667 405 OFFCURVE",
"717 458 OFFCURVE",
"844 454 CURVE SMOOTH",
"971 450 OFFCURVE",
"1009 378 OFFCURVE",
"1016 357 CURVE",
"1075 378 LINE",
"1061 411 OFFCURVE",
"1009 510 OFFCURVE",
"844 510 CURVE SMOOTH",
"677 510 OFFCURVE",
"606 438 OFFCURVE",
"606 365 CURVE SMOOTH",
"606 235 OFFCURVE",
"747 221 OFFCURVE",
"847 208 CURVE SMOOTH",
"947 195 OFFCURVE",
"1010 187 OFFCURVE",
"1010 123 CURVE SMOOTH",
"1010 79 OFFCURVE",
"957 34 OFFCURVE",
"844 36 CURVE SMOOTH",
"734 38 OFFCURVE",
"682 98 OFFCURVE",
"662 139 CURVE",
"602 118 LINE"
);
}
);
};
layerId = "37B2A381-2B9F-4DE4-98E5-835D13A27EF0";
paths = (
{
closed = 1;
nodes = (
"390 -20 OFFCURVE",
"485 39 OFFCURVE",
"498 130 CURVE SMOOTH",
"514 249 OFFCURVE",
"371 269 OFFCURVE",
"297 278 CURVE SMOOTH",
"222 287 OFFCURVE",
"141 296 OFFCURVE",
"149 353 CURVE SMOOTH",
"156 401 OFFCURVE",
"223 435 OFFCURVE",
"313 433 CURVE SMOOTH",
"391 431 OFFCURVE",
"444 398 OFFCURVE",
"463 339 CURVE",
"540 365 LINE",
"539 383 OFFCURVE",
"499 510 OFFCURVE",
"322 510 CURVE SMOOTH",
"177 510 OFFCURVE",
"79 451 OFFCURVE",
"65 353 CURVE SMOOTH",
"47 223 OFFCURVE",
"189 210 OFFCURVE",
"282 198 CURVE SMOOTH",
"382 185 OFFCURVE",
"420 166 OFFCURVE",
"415 130 CURVE SMOOTH",
"409 86 OFFCURVE",
"349 56 OFFCURVE",
"265 57 CURVE SMOOTH",
"184 58 OFFCURVE",
"123 97 OFFCURVE",
"108 158 CURVE",
"25 130 LINE",
"46 35 OFFCURVE",
"131 -20 OFFCURVE",
"255 -20 CURVE SMOOTH"
);
},
{
closed = 1;
nodes = (
"947 -20 OFFCURVE",
"1042 39 OFFCURVE",
"1055 130 CURVE SMOOTH",
"1071 249 OFFCURVE",
"928 269 OFFCURVE",
"854 278 CURVE SMOOTH",
"779 287 OFFCURVE",
"698 296 OFFCURVE",
"706 353 CURVE SMOOTH",
"713 401 OFFCURVE",
"780 435 OFFCURVE",
"870 433 CURVE SMOOTH",
"948 431 OFFCURVE",
"1001 398 OFFCURVE",
"1020 339 CURVE",
"1097 365 LINE",
"1096 383 OFFCURVE",
"1056 510 OFFCURVE",
"879 510 CURVE SMOOTH",
"734 510 OFFCURVE",
"636 451 OFFCURVE",
"622 353 CURVE SMOOTH",
"604 223 OFFCURVE",
"746 210 OFFCURVE",
"839 198 CURVE SMOOTH",
"939 185 OFFCURVE",
"977 166 OFFCURVE",
"972 130 CURVE SMOOTH",
"966 86 OFFCURVE",
"906 56 OFFCURVE",
"822 57 CURVE SMOOTH",
"741 58 OFFCURVE",
"680 97 OFFCURVE",
"665 158 CURVE",
"582 130 LINE",
"603 35 OFFCURVE",
"688 -20 OFFCURVE",
"812 -20 CURVE SMOOTH"
);
}
);
width = 1121;
}
);
unicode = 1E9E;
},
{
glyphname = T;
lastChange = "2019-08-14 18:46:20 +0000";
layers = (
{
anchors = (
{
name = bottom;
position = "{269, 0}";
},
{
name = center;
position = "{322, 347}";
},
{
name = top;
position = "{371, 693}";
}
);
layerId = "DA405910-5117-420C-9605-F5A44EE03BDF";
paths = (
{
closed = 1;
nodes = (
"305 0 LINE",
"394 628 LINE",
"673 628 LINE",
"682 693 LINE",
"59 693 LINE",
"50 628 LINE",
"329 628 LINE",
"240 0 LINE"
);
}
);
width = 615;
},
{
anchors = (
{
name = bottom;
position = "{265, 0}";
},
{
name = center;
position = "{322, 347}";
},
{
name = top;
position = "{371, 693}";
}
);
layerId = "37B2A381-2B9F-4DE4-98E5-835D13A27EF0";
paths = (
{
closed = 1;
nodes = (
"316 0 LINE",
"402 607 LINE",
"671 607 LINE",
"683 693 LINE",
"58 693 LINE",
"46 607 LINE",
"315 607 LINE",
"229 0 LINE"
);
}
);
width = 615;
}
);
unicode = 0054;
},
{
glyphname = Tbar;
lastChange = "2019-08-14 18:46:20 +0000";
layers = (
{
layerId = "DA405910-5117-420C-9605-F5A44EE03BDF";
paths = (
{
closed = 1;
nodes = (
"314 0 LINE",
"403 628 LINE",
"682 628 LINE",
"691 693 LINE",
"68 693 LINE",
"59 628 LINE",
"338 628 LINE",
"249 0 LINE"
);
},
{
closed = 1;
nodes = (
"521 334 LINE",
"530 398 LINE",
"147 398 LINE",
"138 334 LINE"
);
}
);
width = 633;
},
{
background = {
paths = (
{
closed = 1;
nodes = (
"345 0 LINE",
"345 628 LINE",
"624 628 LINE",
"624 693 LINE",
"1 693 LINE",
"1 628 LINE",
"280 628 LINE",
"280 0 LINE"
);
}
);
};
layerId = "37B2A381-2B9F-4DE4-98E5-835D13A27EF0";
paths = (
{
closed = 1;
nodes = (
"520 324 LINE",
"532 409 LINE",
"139 409 LINE",
"127 324 LINE"
);
},
{
closed = 1;
nodes = (
"321 0 LINE",
"407 607 LINE",
"676 607 LINE",
"688 693 LINE",
"63 693 LINE",
"51 607 LINE",
"320 607 LINE",
"234 0 LINE"
);
}
);
width = 625;
}
);
unicode = 0166;
},
{
glyphname = U;
lastChange = "2019-08-14 18:46:20 +0000";
layers = (
{
anchors = (
{
name = bottom;
position = "{381, 0}";
},
{
name = horn;
position = "{790, 528}";
},
{
name = ogonek;
position = "{708, 10}";
},
{
name = top;
position = "{479, 693}";
},
{
name = topright;
position = "{865, 693}";
}
);
layerId = "DA405910-5117-420C-9605-F5A44EE03BDF";
paths = (
{
closed = 1;
nodes = (
"562 -20 OFFCURVE",
"731 108 OFFCURVE",
"760 315 CURVE SMOOTH",
"813 693 LINE",
"747 693 LINE",
"697 339 LINE SMOOTH",
"671 155 OFFCURVE",
"536 50 OFFCURVE",
"389 50 CURVE SMOOTH",
"242 50 OFFCURVE",
"134 147 OFFCURVE",
"161 339 CURVE SMOOTH",
"211 693 LINE",
"145 693 LINE",
"92 315 LINE SMOOTH",
"62 100 OFFCURVE",
"196 -20 OFFCURVE",
"379 -20 CURVE SMOOTH"
);
}
);
width = 832;
},
{
anchors = (
{
name = bottom;
position = "{381, 0}";
},
{
name = horn;
position = "{790, 528}";
},
{
name = ogonek;
position = "{708, 10}";
},
{
name = top;
position = "{479, 693}";
},
{
name = topright;
position = "{865, 693}";
}
);
layerId = "37B2A381-2B9F-4DE4-98E5-835D13A27EF0";
paths = (
{
closed = 1;
nodes = (
"573 -20 OFFCURVE",
"733 120 OFFCURVE",
"761 316 CURVE SMOOTH",
"814 693 LINE",
"727 693 LINE",
"677 339 LINE SMOOTH",
"655 179 OFFCURVE",
"538 71 OFFCURVE",
"391 71 CURVE SMOOTH",
"240 71 OFFCURVE",
"158 175 OFFCURVE",
"181 339 CURVE SMOOTH",
"231 693 LINE",
"144 693 LINE",
"91 316 LINE SMOOTH",
"63 116 OFFCURVE",
"180 -20 OFFCURVE",
"379 -20 CURVE SMOOTH"
);
}
);
width = 832;
}
);
unicode = 0055;
},
{
glyphname = V;
lastChange = "2019-08-14 18:46:20 +0000";
layers = (
{
anchors = (
{
name = bottom;
position = "{321, 0}";
},
{
name = top;
position = "{419, 693}";
}
);
layerId = "DA405910-5117-420C-9605-F5A44EE03BDF";
paths = (
{
closed = 1;
nodes = (
"284 0 LINE",
"358 0 LINE",
"779 693 LINE",
"704 693 LINE",
"331 78 LINE",
"134 693 LINE",
"59 693 LINE"
);
}
);
width = 712;
},
{
anchors = (
{
name = bottom;
position = "{321, 0}";
},
{
name = top;
position = "{419, 693}";
}
);
layerId = "37B2A381-2B9F-4DE4-98E5-835D13A27EF0";
paths = (
{
closed = 1;
nodes = (
"278 0 LINE",
"364 0 LINE",
"785 693 LINE",
"687 693 LINE",
"337 115 LINE",
"151 693 LINE",
"53 693 LINE"
);
}
);
width = 712;
}
);
unicode = 0056;
},
{
glyphname = W;
lastChange = "2019-08-14 18:46:20 +0000";
layers = (
{
anchors = (
{
name = bottom;
position = "{448, 0}";
},
{
name = top;
position = "{546, 693}";
}
);
layerId = "DA405910-5117-420C-9605-F5A44EE03BDF";
paths = (
{
closed = 1;
nodes = (
"300 0 LINE",
"498 354 LINE",
"596 0 LINE",
"662 0 LINE",
"1032 693 LINE",
"958 693 LINE",
"643 95 LINE",
"519 510 LINE",
"281 96 LINE",
"133 693 LINE",
"59 693 LINE",
"234 0 LINE"
);
}
);
width = 965;
},
{
anchors = (
{
name = bottom;
position = "{448, 0}";
},
{
name = top;
position = "{546, 693}";
}
);
layerId = "37B2A381-2B9F-4DE4-98E5-835D13A27EF0";
paths = (
{
closed = 1;
nodes = (
"313 0 LINE",
"494 324 LINE",
"583 0 LINE",
"663 0 LINE",
"1033 693 LINE",
"936 693 LINE",
"641 134 LINE",
"523 534 LINE",
"293 135 LINE",
"155 693 LINE",
"58 693 LINE",
"233 0 LINE"
);
}
);
width = 965;
}
);
unicode = 0057;
},
{
glyphname = X;
lastChange = "2019-08-14 18:46:20 +0000";
layers = (
{
anchors = (
{
name = bottom;
position = "{306, 0}";
},
{
name = top;
position = "{404, 693}";
}
);
layerId = "DA405910-5117-420C-9605-F5A44EE03BDF";
paths = (
{
closed = 1;
nodes = (
"50 0 LINE",
"342 297 LINE",
"549 0 LINE",
"637 0 LINE",
"394 349 LINE",
"730 693 LINE",
"642 693 LINE",
"357 402 LINE",
"153 693 LINE",
"66 693 LINE",
"306 349 LINE",
"-37 0 LINE"
);
}
);
width = 670;
},
{
anchors = (
{
name = bottom;
position = "{306, 0}";
},
{
name = top;
position = "{404, 693}";
}
);
layerId = "37B2A381-2B9F-4DE4-98E5-835D13A27EF0";
paths = (
{
closed = 1;
nodes = (
"64 0 LINE",
"340 281 LINE",
"535 0 LINE",
"651 0 LINE",
"408 349 LINE",
"744 693 LINE",
"628 693 LINE",
"359 418 LINE",
"167 693 LINE",
"52 693 LINE",
"292 349 LINE",
"-51 0 LINE"
);
}
);
width = 670;
}
);
unicode = 0058;
},
{
glyphname = Y;
lastChange = "2019-08-14 18:46:20 +0000";
layers = (
{
anchors = (
{
name = bottom;
position = "{343, 0}";
},
{
name = top;
position = "{441, 693}";
},
{
name = topleft;
position = "{94, 693}";
}
);
layerId = "DA405910-5117-420C-9605-F5A44EE03BDF";
paths = (
{
closed = 1;
nodes = (
"223 0 LINE",
"783 693 LINE",
"702 693 LINE",
"405 325 LINE",
"148 693 LINE",
"61 693 LINE",
"359 268 LINE",
"143 0 LINE"
);
}
);
width = 718;
},
{
anchors = (
{
name = bottom;
position = "{343, 0}";
},
{
name = top;
position = "{441, 693}";
},
{
name = topleft;
position = "{94, 693}";
}
);
layerId = "37B2A381-2B9F-4DE4-98E5-835D13A27EF0";
paths = (
{
closed = 1;
nodes = (
"233 0 LINE",
"793 693 LINE",
"686 693 LINE",
"406 345 LINE",
"163 693 LINE",
"48 693 LINE",
"345 270 LINE",
"127 0 LINE"
);
}
);
width = 718;
}
);
unicode = 0059;
},
{
glyphname = Z;
lastChange = "2019-08-14 18:46:20 +0000";
layers = (
{
anchors = (
{
name = bottom;
position = "{336, 0}";
},
{
name = center;
position = "{385, 347}";
},
{
name = top;
position = "{434, 693}";
}
);
layerId = "DA405910-5117-420C-9605-F5A44EE03BDF";
paths = (
{
closed = 1;
nodes = (
"670 0 LINE",
"680 65 LINE",
"107 65 LINE",
"759 628 LINE",
"768 693 LINE",
"99 693 LINE",
"90 628 LINE",
"663 628 LINE",
"12 65 LINE",
"2 0 LINE"
);
}
);
width = 741;
},
{
anchors = (
{
name = bottom;
position = "{336, 0}";
},
{
name = center;
position = "{385, 347}";
},
{
name = top;
position = "{434, 693}";
}
);
layerId = "37B2A381-2B9F-4DE4-98E5-835D13A27EF0";
paths = (
{
closed = 1;
nodes = (
"670 0 LINE",
"683 86 LINE",
"146 86 LINE",
"757 614 LINE",
"768 693 LINE",
"99 693 LINE",
"87 607 LINE",
"624 607 LINE",
"14 79 LINE",
"2 0 LINE"
);
}
);
width = 741;
}
);
unicode = 005A;
},
{
glyphname = a;
lastChange = "2019-08-14 18:46:20 +0000";
layers = (
{
anchors = (
{
name = bottom;
position = "{253, 0}";
},
{
name = ogonek;
position = "{477, 10}";
},
{
name = top;
position = "{333, 491}";
}
);
layerId = "DA405910-5117-420C-9605-F5A44EE03BDF";
paths = (
{
closed = 1;
nodes = (
"19 59 OFFCURVE",
"61 -20 OFFCURVE",
"234 -20 CURVE SMOOTH",
"342 -20 OFFCURVE",
"426 22 OFFCURVE",
"459 61 CURVE",
"455 33 OFFCURVE",
"454 16 OFFCURVE",
"453 0 CURVE",
"516 0 LINE",
"516 14 OFFCURVE",
"519 38 OFFCURVE",
"523 66 CURVE SMOOTH",
"550 260 LINE SMOOTH",
"575 436 OFFCURVE",
"509 510 OFFCURVE",
"335 510 CURVE SMOOTH",
"211 510 OFFCURVE",
"107 447 OFFCURVE",
"72 366 CURVE",
"128 345 LINE",
"155 403 OFFCURVE",
"227 454 OFFCURVE",
"327 454 CURVE SMOOTH",
"439 454 OFFCURVE",
"507 418 OFFCURVE",
"488 283 CURVE",
"297 277 LINE SMOOTH",
"195 274 OFFCURVE",
"144 263 OFFCURVE",
"108 246 CURVE SMOOTH",
"69 227 OFFCURVE",
"31 186 OFFCURVE",
"25 125 CURVE SMOOTH"
);
},
{
closed = 1;
nodes = (
"102 206 OFFCURVE",
"168 216 OFFCURVE",
"292 220 CURVE SMOOTH",
"481 226 LINE",
"479 211 OFFCURVE",
"479 208 OFFCURVE",
"476 188 CURVE SMOOTH",
"461 82 OFFCURVE",
"341 36 OFFCURVE",
"242 36 CURVE SMOOTH",
"146 36 OFFCURVE",
"83 70 OFFCURVE",
"92 129 CURVE SMOOTH"
);
}
);
width = 611;
},
{
anchors = (
{
name = bottom;
position = "{253, 0}";
},
{
name = ogonek;
position = "{477, 10}";
},
{
name = top;
position = "{333, 491}";
}
);
layerId = "37B2A381-2B9F-4DE4-98E5-835D13A27EF0";
paths = (
{
closed = 1;
nodes = (
"17 36 OFFCURVE",
"96 -20 OFFCURVE",
"235 -20 CURVE SMOOTH",
"312 -20 OFFCURVE",
"389 4 OFFCURVE",
"437 40 CURVE",
"435 25 OFFCURVE",
"435 14 OFFCURVE",
"435 0 CURVE",
"518 0 LINE",
"519 26 OFFCURVE",
"521 47 OFFCURVE",
"525 74 CURVE SMOOTH",
"551 259 LINE SMOOTH",
"575 433 OFFCURVE",
"509 510 OFFCURVE",
"335 510 CURVE SMOOTH",
"212 510 OFFCURVE",
"100 446 OFFCURVE",
"67 354 CURVE",
"141 326 LINE",
"164 390 OFFCURVE",
"238 433 OFFCURVE",
"324 433 CURVE SMOOTH",
"437 433 OFFCURVE",
"481 392 OFFCURVE",
"470 292 CURVE",
"299 287 LINE SMOOTH",
"208 284 OFFCURVE",
"153 275 OFFCURVE",
"112 256 CURVE SMOOTH",
"63 232 OFFCURVE",
"30 184 OFFCURVE",
"26 130 CURVE SMOOTH"
);
},
{
closed = 1;
nodes = (
"120 190 OFFCURVE",
"156 205 OFFCURVE",
"291 210 CURVE SMOOTH",
"460 215 LINE",
"459 209 OFFCURVE",
"458 203 OFFCURVE",
"456 190 CURVE SMOOTH",
"445 112 OFFCURVE",
"359 57 OFFCURVE",
"246 57 CURVE SMOOTH",
"157 57 OFFCURVE",
"106 87 OFFCURVE",
"112 134 CURVE SMOOTH"
);
}
);
width = 611;
}
);
leftKerningGroup = "0";
unicode = 0061;
},
{
glyphname = ae;
lastChange = "2019-08-14 18:46:20 +0000";
layers = (
{
layerId = "DA405910-5117-420C-9605-F5A44EE03BDF";
paths = (
{
closed = 1;
nodes = (
"25 59 OFFCURVE",
"67 -20 OFFCURVE",
"240 -20 CURVE SMOOTH",
"389 -20 OFFCURVE",
"478 52 OFFCURVE",
"507 98 CURVE",
"523 60 OFFCURVE",
"578 -20 OFFCURVE",
"726 -20 CURVE SMOOTH",
"857 -20 OFFCURVE",
"961 41 OFFCURVE",
"1012 142 CURVE",
"950 166 LINE",
"910 84 OFFCURVE",
"833 36 OFFCURVE",
"734 36 CURVE SMOOTH",
"610 36 OFFCURVE",
"539 105 OFFCURVE",
"550 225 CURVE",
"1038 225 LINE",
"1040 241 LINE SMOOTH",
"1063 403 OFFCURVE",
"971 510 OFFCURVE",
"800 510 CURVE SMOOTH",
"692 510 OFFCURVE",
"604 464 OFFCURVE",
"549 396 CURVE",
"519 468 OFFCURVE",
"460 509 OFFCURVE",
"341 509 CURVE SMOOTH",
"217 509 OFFCURVE",
"113 446 OFFCURVE",
"78 365 CURVE",
"134 344 LINE",
"158 396 OFFCURVE",
"233 453 OFFCURVE",
"333 453 CURVE SMOOTH",
"445 453 OFFCURVE",
"512 407 OFFCURVE",
"494 282 CURVE",
"303 276 LINE SMOOTH",
"201 273 OFFCURVE",
"150 262 OFFCURVE",
"114 245 CURVE SMOOTH",
"75 227 OFFCURVE",
"37 186 OFFCURVE",
"31 125 CURVE SMOOTH"
);
},
{
closed = 1;
nodes = (
"108 206 OFFCURVE",
"174 216 OFFCURVE",
"298 220 CURVE SMOOTH",
"487 226 LINE",
"482 188 LINE SMOOTH",
"467 82 OFFCURVE",
"347 36 OFFCURVE",
"248 36 CURVE SMOOTH",
"152 36 OFFCURVE",
"89 70 OFFCURVE",
"98 129 CURVE SMOOTH"
);
},
{
closed = 1;
nodes = (
"593 389 OFFCURVE",
"679 454 OFFCURVE",
"792 454 CURVE SMOOTH",
"907 454 OFFCURVE",
"975 389 OFFCURVE",
"976 282 CURVE",
"561 282 LINE"
);
}
);
width = 1089;
},
{
layerId = "37B2A381-2B9F-4DE4-98E5-835D13A27EF0";
paths = (
{
closed = 1;
nodes = (
"23 36 OFFCURVE",
"101 -20 OFFCURVE",
"240 -20 CURVE SMOOTH",
"370 -20 OFFCURVE",
"461 33 OFFCURVE",
"508 98 CURVE",
"536 23 OFFCURVE",
"627 -20 OFFCURVE",
"728 -20 CURVE SMOOTH",
"856 -20 OFFCURVE",
"962 40 OFFCURVE",
"1014 143 CURVE",
"933 174 LINE",
"897 98 OFFCURVE",
"827 56 OFFCURVE",
"738 56 CURVE SMOOTH",
"630 56 OFFCURVE",
"568 117 OFFCURVE",
"572 218 CURVE",
"1038 218 LINE",
"1041 241 LINE SMOOTH",
"1064 404 OFFCURVE",
"970 510 OFFCURVE",
"802 510 CURVE SMOOTH",
"695 510 OFFCURVE",
"607 469 OFFCURVE",
"550 398 CURVE",
"518 469 OFFCURVE",
"458 510 OFFCURVE",
"340 510 CURVE SMOOTH",
"217 510 OFFCURVE",
"105 446 OFFCURVE",
"72 354 CURVE",
"146 326 LINE",
"169 390 OFFCURVE",
"243 433 OFFCURVE",
"329 433 CURVE SMOOTH",
"442 433 OFFCURVE",
"486 392 OFFCURVE",
"475 292 CURVE",
"304 287 LINE SMOOTH",
"213 284 OFFCURVE",
"158 275 OFFCURVE",
"117 256 CURVE SMOOTH",
"68 233 OFFCURVE",
"35 184 OFFCURVE",
"31 130 CURVE SMOOTH"
);
},
{
closed = 1;
nodes = (
"125 190 OFFCURVE",
"161 206 OFFCURVE",
"296 210 CURVE SMOOTH",
"465 215 LINE",
"461 190 LINE SMOOTH",
"450 112 OFFCURVE",
"364 57 OFFCURVE",
"251 57 CURVE SMOOTH",
"162 57 OFFCURVE",
"111 87 OFFCURVE",
"117 134 CURVE SMOOTH"
);
},
{
closed = 1;
nodes = (
"619 384 OFFCURVE",
"693 434 OFFCURVE",
"791 434 CURVE SMOOTH",
"891 434 OFFCURVE",
"951 384 OFFCURVE",
"957 296 CURVE",
"588 296 LINE"
);
}
);
width = 1089;
}
);
unicode = 00E6;
},
{
glyphname = b;
lastChange = "2019-08-14 18:46:20 +0000";
layers = (
{
anchors = (
{
name = bottom;
position = "{314, 0}";
},
{
name = top;
position = "{420, 750}";
}
);
layerId = "DA405910-5117-420C-9605-F5A44EE03BDF";
paths = (
{
closed = 1;
nodes = (
"491 -20 OFFCURVE",
"615 83 OFFCURVE",
"638 244 CURVE SMOOTH",
"661 407 OFFCURVE",
"565 510 OFFCURVE",
"394 510 CURVE SMOOTH",
"302 510 OFFCURVE",
"213 471 OFFCURVE",
"166 417 CURVE",
"205 693 LINE",
"141 693 LINE",
"43 0 LINE",
"107 0 LINE",
"118 72 LINE",
"161 12 OFFCURVE",
"228 -20 OFFCURVE",
"320 -20 CURVE SMOOTH"
);
},
{
closed = 1;
nodes = (
"193 35 OFFCURVE",
"124 117 OFFCURVE",
"142 244 CURVE SMOOTH",
"160 373 OFFCURVE",
"252 455 OFFCURVE",
"381 455 CURVE SMOOTH",
"508 455 OFFCURVE",
"582 373 OFFCURVE",
"566 244 CURVE SMOOTH",
"550 117 OFFCURVE",
"453 35 OFFCURVE",
"322 35 CURVE SMOOTH"
);
}
);
width = 678;
},
{
anchors = (
{
name = bottom;
position = "{314, 0}";
},
{
name = top;
position = "{420, 750}";
}
);
layerId = "37B2A381-2B9F-4DE4-98E5-835D13A27EF0";
paths = (
{
closed = 1;
nodes = (
"492 -20 OFFCURVE",
"617 85 OFFCURVE",
"640 247 CURVE SMOOTH",
"663 411 OFFCURVE",
"567 516 OFFCURVE",
"395 516 CURVE SMOOTH",
"319 516 OFFCURVE",
"240 488 OFFCURVE",
"189 445 CURVE",
"224 693 LINE",
"139 693 LINE",
"41 -1 LINE",
"126 -1 LINE",
"134 52 LINE",
"178 4 OFFCURVE",
"241 -20 OFFCURVE",
"320 -20 CURVE SMOOTH"
);
},
{
closed = 1;
nodes = (
"207 56 OFFCURVE",
"145 130 OFFCURVE",
"161 247 CURVE SMOOTH",
"178 366 OFFCURVE",
"261 440 OFFCURVE",
"379 440 CURVE SMOOTH",
"497 440 OFFCURVE",
"563 364 OFFCURVE",
"548 247 CURVE SMOOTH",
"533 131 OFFCURVE",
"446 56 OFFCURVE",
"325 56 CURVE SMOOTH"
);
}
);
width = 678;
}
);
unicode = 0062;
},
{
glyphname = c;
lastChange = "2019-08-14 18:46:20 +0000";
layers = (
{
anchors = (
{
name = bottom;
position = "{277, 0}";
},
{
name = top;
position = "{347, 491}";
}
);
hints = (
{
horizontal = 1;
origin = "{0, 19}";
target = down;
type = TopGhost;
}
);
layerId = "DA405910-5117-420C-9605-F5A44EE03BDF";
paths = (
{
closed = 1;
nodes = (
"413 -20 OFFCURVE",
"517 41 OFFCURVE",
"569 143 CURVE",
"506 167 LINE",
"466 85 OFFCURVE",
"388 36 OFFCURVE",
"290 36 CURVE SMOOTH",
"161 36 OFFCURVE",
"91 118 OFFCURVE",
"109 246 CURVE SMOOTH",
"127 373 OFFCURVE",
"219 455 OFFCURVE",
"348 455 CURVE SMOOTH",
"449 455 OFFCURVE",
"515 406 OFFCURVE",
"530 325 CURVE",
"597 348 LINE",
"575 449 OFFCURVE",
"487 510 OFFCURVE",
"356 510 CURVE SMOOTH",
"186 510 OFFCURVE",
"63 407 OFFCURVE",
"40 246 CURVE SMOOTH",
"17 84 OFFCURVE",
"112 -20 OFFCURVE",
"282 -20 CURVE SMOOTH"
);
}
);
width = 623;
},
{
anchors = (
{
name = bottom;
position = "{277, 0}";
},
{
name = top;
position = "{347, 491}";
}
);
hints = (
{
horizontal = 1;
origin = "{0, 19}";
target = down;
type = TopGhost;
}
);
layerId = "37B2A381-2B9F-4DE4-98E5-835D13A27EF0";
paths = (
{
closed = 1;
nodes = (
"415 -21 OFFCURVE",
"524 44 OFFCURVE",
"573 153 CURVE",
"492 184 LINE",
"457 102 OFFCURVE",
"384 55 OFFCURVE",
"292 55 CURVE SMOOTH",
"175 55 OFFCURVE",
"112 128 OFFCURVE",
"129 245 CURVE SMOOTH",
"145 361 OFFCURVE",
"228 434 OFFCURVE",
"345 434 CURVE SMOOTH",
"440 434 OFFCURVE",
"500 387 OFFCURVE",
"512 306 CURVE",
"599 336 LINE",
"580 445 OFFCURVE",
"489 510 OFFCURVE",
"356 510 CURVE SMOOTH",
"186 510 OFFCURVE",
"63 406 OFFCURVE",
"40 245 CURVE SMOOTH",
"17 84 OFFCURVE",
"112 -21 OFFCURVE",
"282 -21 CURVE SMOOTH"
);
}
);
width = 623;
}
);
unicode = 0063;
},
{
glyphname = d;
lastChange = "2019-08-14 18:46:20 +0000";
layers = (
{
anchors = (
{
name = bottom;
position = "{293, 0}";
},
{
name = center;
position = "{328, 246}";
},
{
name = top;
position = "{358, 510}";
},
{
name = topright;
position = "{674, 491}";
}
);
layerId = "DA405910-5117-420C-9605-F5A44EE03BDF";
paths = (
{
closed = 1;
nodes = (
"376 -20 OFFCURVE",
"451 12 OFFCURVE",
"512 72 CURVE",
"501 0 LINE",
"565 0 LINE",
"663 693 LINE",
"599 693 LINE",
"560 417 LINE",
"529 471 OFFCURVE",
"450 510 OFFCURVE",
"358 510 CURVE SMOOTH",
"187 510 OFFCURVE",
"63 407 OFFCURVE",
"40 244 CURVE SMOOTH",
"17 83 OFFCURVE",
"113 -20 OFFCURVE",
"284 -20 CURVE SMOOTH"
);
},
{
closed = 1;
nodes = (
"165 35 OFFCURVE",
"92 117 OFFCURVE",
"112 244 CURVE SMOOTH",
"132 373 OFFCURVE",
"228 455 OFFCURVE",
"355 455 CURVE SMOOTH",
"484 455 OFFCURVE",
"554 373 OFFCURVE",
"536 244 CURVE SMOOTH",
"518 117 OFFCURVE",
"425 35 OFFCURVE",
"296 35 CURVE SMOOTH"
);
}
);
width = 678;
},
{
anchors = (
{
name = bottom;
position = "{293, 0}";
},
{
name = center;
position = "{328, 246}";
},
{
name = top;
position = "{359, 516}";
},
{
name = topright;
position = "{674, 491}";
}
);
layerId = "37B2A381-2B9F-4DE4-98E5-835D13A27EF0";
paths = (
{
closed = 1;
nodes = (
"363 -20 OFFCURVE",
"432 4 OFFCURVE",
"490 52 CURVE",
"482 0 LINE",
"567 0 LINE",
"665 693 LINE",
"580 693 LINE",
"545 445 LINE",
"506 488 OFFCURVE",
"435 516 OFFCURVE",
"359 516 CURVE SMOOTH",
"187 516 OFFCURVE",
"61 411 OFFCURVE",
"38 247 CURVE SMOOTH",
"15 85 OFFCURVE",
"112 -20 OFFCURVE",
"284 -20 CURVE SMOOTH"
);
},
{
closed = 1;
nodes = (
"178 56 OFFCURVE",
"113 131 OFFCURVE",
"130 247 CURVE SMOOTH",
"149 364 OFFCURVE",
"235 440 OFFCURVE",
"353 440 CURVE SMOOTH",
"471 440 OFFCURVE",
"534 366 OFFCURVE",
"517 247 CURVE SMOOTH",
"501 130 OFFCURVE",
"417 56 OFFCURVE",
"299 56 CURVE SMOOTH"
);
}
);
width = 678;
}
);
unicode = 0064;
},
{
glyphname = eth;
lastChange = "2019-08-14 18:46:20 +0000";
layers = (
{
layerId = "DA405910-5117-420C-9605-F5A44EE03BDF";
paths = (
{
closed = 1;
nodes = (
"561 289 OFFCURVE",
"537 363 OFFCURVE",
"486 448 CURVE",
"346 693 LINE",
"264 693 LINE",
"415 433 LINE",
"403 441 OFFCURVE",
"364 452 OFFCURVE",
"332 452 CURVE SMOOTH",
"175 452 OFFCURVE",
"64 351 OFFCURVE",
"46 217 CURVE SMOOTH",
"28 82 OFFCURVE",
"109 -20 OFFCURVE",
"266 -20 CURVE SMOOTH",
"418 -20 OFFCURVE",
"529 82 OFFCURVE",
"550 217 CURVE SMOOTH"
);
},
{
closed = 1;
nodes = (
"466 107 OFFCURVE",
"383 41 OFFCURVE",
"274 41 CURVE SMOOTH",
"166 41 OFFCURVE",
"104 107 OFFCURVE",
"116 217 CURVE SMOOTH",
"129 324 OFFCURVE",
"213 394 OFFCURVE",
"324 394 CURVE SMOOTH",
"430 394 OFFCURVE",
"493 320 OFFCURVE",
"480 217 CURVE SMOOTH"
);
},
{
closed = 1;
nodes = (
"229 493 LINE",
"515 646 LINE",
"494 695 LINE",
"208 542 LINE"
);
}
);
width = 610;
},
{
layerId = "37B2A381-2B9F-4DE4-98E5-835D13A27EF0";
paths = (
{
closed = 1;
nodes = (
"563 289 OFFCURVE",
"543 359 OFFCURVE",
"490 451 CURVE SMOOTH",
"352 693 LINE",
"252 693 LINE",
"391 449 LINE",
"382 453 OFFCURVE",
"357 459 OFFCURVE",
"333 459 CURVE SMOOTH",
"181 459 OFFCURVE",
"63 362 OFFCURVE",
"45 222 CURVE SMOOTH",
"26 79 OFFCURVE",
"115 -18 OFFCURVE",
"266 -18 CURVE SMOOTH",
"413 -18 OFFCURVE",
"531 80 OFFCURVE",
"553 221 CURVE SMOOTH"
);
},
{
closed = 1;
nodes = (
"449 124 OFFCURVE",
"378 64 OFFCURVE",
"277 64 CURVE SMOOTH",
"178 64 OFFCURVE",
"124 124 OFFCURVE",
"135 222 CURVE SMOOTH",
"147 318 OFFCURVE",
"221 380 OFFCURVE",
"322 380 CURVE SMOOTH",
"417 380 OFFCURVE",
"475 315 OFFCURVE",
"463 222 CURVE SMOOTH"
);
},
{
closed = 1;
nodes = (
"222 473 LINE",
"519 632 LINE",
"493 693 LINE",
"196 535 LINE"
);
}
);
width = 610;
}
);
unicode = 00F0;
},
{
glyphname = dcroat;
lastChange = "2019-08-14 18:46:20 +0000";
layers = (
{
layerId = "DA405910-5117-420C-9605-F5A44EE03BDF";
paths = (
{
closed = 1;
nodes = (
"607 693 LINE",
"568 417 LINE",
"537 471 OFFCURVE",
"458 510 OFFCURVE",
"366 510 CURVE SMOOTH",
"195 510 OFFCURVE",
"71 407 OFFCURVE",
"48 244 CURVE SMOOTH",
"25 83 OFFCURVE",
"121 -20 OFFCURVE",
"292 -20 CURVE SMOOTH",
"384 -20 OFFCURVE",
"459 12 OFFCURVE",
"520 72 CURVE",
"509 0 LINE",
"573 0 LINE",
"671 693 LINE"
);
},
{
closed = 1;
nodes = (
"526 117 OFFCURVE",
"433 35 OFFCURVE",
"304 35 CURVE SMOOTH",
"173 35 OFFCURVE",
"100 117 OFFCURVE",
"120 244 CURVE SMOOTH",
"140 373 OFFCURVE",
"236 455 OFFCURVE",
"363 455 CURVE SMOOTH",
"492 455 OFFCURVE",
"562 373 OFFCURVE",
"544 244 CURVE SMOOTH"
);
},
{
closed = 1;
nodes = (
"450 556 LINE",
"724 556 LINE",
"731 610 LINE",
"457 610 LINE"
);
}
);
width = 722;
},
{
layerId = "37B2A381-2B9F-4DE4-98E5-835D13A27EF0";
paths = (
{
closed = 1;
nodes = (
"432 556 LINE",
"724 556 LINE",
"733 622 LINE",
"441 622 LINE"
);
},
{
closed = 1;
nodes = (
"369 -20 OFFCURVE",
"438 4 OFFCURVE",
"496 52 CURVE",
"488 0 LINE",
"573 0 LINE",
"671 693 LINE",
"586 693 LINE",
"551 445 LINE",
"512 488 OFFCURVE",
"441 516 OFFCURVE",
"365 516 CURVE SMOOTH",
"193 516 OFFCURVE",
"67 411 OFFCURVE",
"44 247 CURVE SMOOTH",
"21 85 OFFCURVE",
"118 -20 OFFCURVE",
"290 -20 CURVE SMOOTH"
);
},
{
closed = 1;
nodes = (
"184 56 OFFCURVE",
"119 131 OFFCURVE",
"136 247 CURVE SMOOTH",
"154 364 OFFCURVE",
"241 440 OFFCURVE",
"359 440 CURVE SMOOTH",
"477 440 OFFCURVE",
"540 366 OFFCURVE",
"523 247 CURVE SMOOTH",
"507 130 OFFCURVE",
"423 56 OFFCURVE",
"305 56 CURVE SMOOTH"
);
}
);
width = 722;
}
);
unicode = 0111;
},
{
glyphname = e;
lastChange = "2019-08-14 18:46:20 +0000";
layers = (
{
anchors = (
{
name = bottom;
position = "{284, 0}";
},
{
name = ogonek;
position = "{543, 10}";
},
{
name = top;
position = "{354, 491}";
}
);
background = {
paths = (
{
closed = 1;
nodes = (
"35 83 OFFCURVE",
"144 -20 OFFCURVE",
"314 -20 CURVE SMOOTH",
"445 -20 OFFCURVE",
"541 41 OFFCURVE",
"578 142 CURVE",
"512 166 LINE",
"484 84 OFFCURVE",
"413 35 OFFCURVE",
"314 35 CURVE SMOOTH",
"190 35 OFFCURVE",
"110 109 OFFCURVE",
"104 229 CURVE",
"592 229 LINE",
"592 241 LINE SMOOTH",
"592 403 OFFCURVE",
"485 510 OFFCURVE",
"314 510 CURVE SMOOTH",
"144 510 OFFCURVE",
"35 407 OFFCURVE",
"35 246 CURVE SMOOTH"
);
},
{
closed = 1;
nodes = (
"124 393 OFFCURVE",
"201 455 OFFCURVE",
"314 455 CURVE SMOOTH",
"429 455 OFFCURVE",
"506 393 OFFCURVE",
"522 286 CURVE",
"107 286 LINE"
);
}
);
};
layerId = "DA405910-5117-420C-9605-F5A44EE03BDF";
paths = (
{
closed = 1;
nodes = (
"413 -20 OFFCURVE",
"517 41 OFFCURVE",
"568 142 CURVE",
"506 166 LINE",
"466 84 OFFCURVE",
"388 35 OFFCURVE",
"289 35 CURVE SMOOTH",
"165 35 OFFCURVE",
"96 109 OFFCURVE",
"107 229 CURVE",
"595 229 LINE",
"596 241 LINE SMOOTH",
"619 403 OFFCURVE",
"527 510 OFFCURVE",
"356 510 CURVE SMOOTH",
"186 510 OFFCURVE",
"63 407 OFFCURVE",
"40 246 CURVE SMOOTH",
"17 83 OFFCURVE",
"112 -20 OFFCURVE",
"282 -20 CURVE SMOOTH"
);
},
{
closed = 1;
nodes = (
"150 393 OFFCURVE",
"235 455 OFFCURVE",
"348 455 CURVE SMOOTH",
"463 455 OFFCURVE",
"532 393 OFFCURVE",
"533 286 CURVE",
"118 286 LINE"
);
}
);
width = 637;
},
{
anchors = (
{
name = bottom;
position = "{284, 0}";
},
{
name = ogonek;
position = "{533, 20}";
},
{
name = top;
position = "{354, 491}";
}
);
layerId = "37B2A381-2B9F-4DE4-98E5-835D13A27EF0";
paths = (
{
closed = 1;
nodes = (
"410 -20 OFFCURVE",
"517 40 OFFCURVE",
"568 143 CURVE",
"488 174 LINE",
"452 98 OFFCURVE",
"382 56 OFFCURVE",
"292 56 CURVE SMOOTH",
"184 56 OFFCURVE",
"122 117 OFFCURVE",
"126 218 CURVE",
"592 218 LINE",
"595 241 LINE SMOOTH",
"618 404 OFFCURVE",
"524 510 OFFCURVE",
"356 510 CURVE SMOOTH",
"187 510 OFFCURVE",
"64 406 OFFCURVE",
"41 246 CURVE SMOOTH",
"18 84 OFFCURVE",
"113 -20 OFFCURVE",
"282 -20 CURVE SMOOTH"
);
},
{
closed = 1;
nodes = (
"173 384 OFFCURVE",
"247 434 OFFCURVE",
"345 434 CURVE SMOOTH",
"445 434 OFFCURVE",
"505 384 OFFCURVE",
"511 296 CURVE",
"142 296 LINE"
);
}
);
width = 637;
}
);
unicode = 0065;
},
{
glyphname = f;
lastChange = "2019-08-14 18:46:20 +0000";
layers = (
{
anchors = (
{
name = bottom;
position = "{192, 0}";
},
{
name = top;
position = "{298, 750}";
}
);
layerId = "DA405910-5117-420C-9605-F5A44EE03BDF";
paths = (
{
closed = 1;
nodes = (
"160 0 LINE",
"216 396 LINE",
"435 396 LINE",
"443 454 LINE",
"224 454 LINE",
"238 553 LINE",
"246 606 OFFCURVE",
"248 616 OFFCURVE",
"262 629 CURVE SMOOTH",
"275 641 OFFCURVE",
"296 650 OFFCURVE",
"333 650 CURVE",
"471 650 LINE",
"479 706 LINE",
"342 706 LINE",
"287 706 OFFCURVE",
"253 698 OFFCURVE",
"225 675 CURVE SMOOTH",
"197 653 OFFCURVE",
"185 632 OFFCURVE",
"179 589 CURVE",
"160 454 LINE",
"49 454 LINE",
"41 396 LINE",
"152 396 LINE",
"96 0 LINE"
);
}
);
width = 434;
},
{
anchors = (
{
name = bottom;
position = "{192, 0}";
},
{
name = top;
position = "{298, 750}";
}
);
layerId = "37B2A381-2B9F-4DE4-98E5-835D13A27EF0";
paths = (
{
closed = 1;
nodes = (
"172 0 LINE",
"225 375 LINE",
"437 375 LINE",
"448 454 LINE",
"236 454 LINE",
"249 546 LINE SMOOTH",
"256 597 OFFCURVE",
"258 603 OFFCURVE",
"269 612 CURVE SMOOTH",
"280 623 OFFCURVE",
"300 629 OFFCURVE",
"328 629 CURVE SMOOTH",
"473 629 LINE",
"484 706 LINE",
"340 706 LINE SMOOTH",
"282 706 OFFCURVE",
"246 697 OFFCURVE",
"219 673 CURVE",
"189 649 OFFCURVE",
"175 625 OFFCURVE",
"169 581 CURVE SMOOTH",
"151 454 LINE",
"44 454 LINE",
"33 375 LINE",
"140 375 LINE",
"87 0 LINE"
);
}
);
width = 434;
}
);
unicode = 0066;
},
{
glyphname = g;
lastChange = "2019-08-14 18:46:20 +0000";
layers = (
{
anchors = (
{
name = bottom;
position = "{263, -250}";
},
{
name = top;
position = "{368, 491}";
}
);
background = {
paths = (
{
closed = 1;
nodes = (
"195 35 OFFCURVE",
"110 117 OFFCURVE",
"112 244 CURVE SMOOTH",
"114 373 OFFCURVE",
"199 455 OFFCURVE",
"326 455 CURVE SMOOTH",
"455 455 OFFCURVE",
"536 373 OFFCURVE",
"536 245 CURVE SMOOTH",
"536 118 OFFCURVE",
"455 35 OFFCURVE",
"326 35 CURVE SMOOTH"
);
},
{
closed = 1;
nodes = (
"600 491 LINE",
"536 491 LINE",
"536 417 LINE",
"497 471 OFFCURVE",
"413 510 OFFCURVE",
"321 510 CURVE SMOOTH",
"150 510 OFFCURVE",
"40 407 OFFCURVE",
"40 244 CURVE SMOOTH",
"40 83 OFFCURVE",
"150 -20 OFFCURVE",
"321 -20 CURVE SMOOTH",
"413 -20 OFFCURVE",
"484 12 OFFCURVE",
"536 72 CURVE",
"536 2 LINE",
"600 5 LINE"
);
},
{
closed = 1;
nodes = (
"596 -44 OFFCURVE",
"593 -105 OFFCURVE",
"537 -154 CURVE",
"488 -196 OFFCURVE",
"429 -221 OFFCURVE",
"347 -222 CURVE",
"264 -224 OFFCURVE",
"203 -203 OFFCURVE",
"156 -175 CURVE",
"114 -149 OFFCURVE",
"89 -121 OFFCURVE",
"70 -84 CURVE",
"123 -55 LINE",
"149 -96 OFFCURVE",
"167 -113 OFFCURVE",
"205 -137 CURVE",
"233 -154 OFFCURVE",
"276 -164 OFFCURVE",
"343 -164 CURVE",
"392 -165 OFFCURVE",
"447 -150 OFFCURVE",
"486 -122 CURVE",
"532 -88 OFFCURVE",
"533 -44 OFFCURVE",
"536 -14 CURVE",
"597 -12 LINE"
);
}
);
};
layerId = "DA405910-5117-420C-9605-F5A44EE03BDF";
paths = (
{
closed = 1;
nodes = (
"17 83 OFFCURVE",
"113 -20 OFFCURVE",
"284 -20 CURVE SMOOTH",
"376 -20 OFFCURVE",
"451 12 OFFCURVE",
"512 72 CURVE",
"499 -20 LINE",
"488 -91 OFFCURVE",
"415 -165 OFFCURVE",
"279 -165 CURVE SMOOTH",
"155 -165 OFFCURVE",
"107 -106 OFFCURVE",
"81 -55 CURVE",
"20 -77 LINE",
"44 -142 OFFCURVE",
"114 -222 OFFCURVE",
"271 -222 CURVE SMOOTH",
"435 -222 OFFCURVE",
"547 -134 OFFCURVE",
"563 -20 CURVE",
"635 491 LINE",
"571 491 LINE",
"560 417 LINE",
"529 471 OFFCURVE",
"450 510 OFFCURVE",
"358 510 CURVE SMOOTH",
"187 510 OFFCURVE",
"63 407 OFFCURVE",
"40 244 CURVE SMOOTH"
);
},
{
closed = 1;
nodes = (
"132 373 OFFCURVE",
"228 455 OFFCURVE",
"355 455 CURVE SMOOTH",
"484 455 OFFCURVE",
"554 373 OFFCURVE",
"536 245 CURVE SMOOTH",
"518 118 OFFCURVE",
"425 35 OFFCURVE",
"296 35 CURVE SMOOTH",
"165 35 OFFCURVE",
"92 117 OFFCURVE",
"112 244 CURVE SMOOTH"
);
}
);
width = 674;
},
{
anchors = (
{
name = bottom;
position = "{263, -250}";
},
{
name = top;
position = "{368, 491}";
}
);
layerId = "37B2A381-2B9F-4DE4-98E5-835D13A27EF0";
paths = (
{
closed = 1;
nodes = (
"14 79 OFFCURVE",
"111 -26 OFFCURVE",
"283 -26 CURVE SMOOTH",
"362 -26 OFFCURVE",
"431 -2 OFFCURVE",
"490 45 CURVE",
"481 -15 LINE SMOOTH",
"469 -91 OFFCURVE",
"389 -144 OFFCURVE",
"281 -144 CURVE SMOOTH",
"188 -144 OFFCURVE",
"129 -109 OFFCURVE",
"95 -34 CURVE",
"14 -64 LINE",
"44 -163 OFFCURVE",
"140 -222 OFFCURVE",
"270 -222 CURVE SMOOTH",
"428 -222 OFFCURVE",
"549 -137 OFFCURVE",
"566 -15 CURVE SMOOTH",
"638 492 LINE",
"553 492 LINE",
"545 439 LINE",
"505 483 OFFCURVE",
"434 510 OFFCURVE",
"358 510 CURVE SMOOTH",
"185 510 OFFCURVE",
"59 405 OFFCURVE",
"36 241 CURVE SMOOTH"
);
},
{
closed = 1;
nodes = (
"148 358 OFFCURVE",
"234 434 OFFCURVE",
"352 434 CURVE SMOOTH",
"470 434 OFFCURVE",
"534 360 OFFCURVE",
"518 242 CURVE SMOOTH",
"501 124 OFFCURVE",
"416 50 OFFCURVE",
"299 50 CURVE SMOOTH",
"178 50 OFFCURVE",
"111 125 OFFCURVE",
"129 241 CURVE SMOOTH"
);
}
);
width = 674;
}
);
unicode = 0067;
},
{
glyphname = h;
lastChange = "2019-08-14 18:46:20 +0000";
layers = (
{
anchors = (
{
name = bottom;
position = "{298, 0}";
},
{
name = center;
position = "{351, 375}";
},
{
name = top;
position = "{404, 750}";
}
);
layerId = "DA405910-5117-420C-9605-F5A44EE03BDF";
paths = (
{
closed = 1;
nodes = (
"107 0 LINE",
"145 269 LINE SMOOTH",
"160 371 OFFCURVE",
"245 455 OFFCURVE",
"379 455 CURVE SMOOTH",
"474 455 OFFCURVE",
"548 422 OFFCURVE",
"528 279 CURVE SMOOTH",
"488 0 LINE",
"553 0 LINE",
"594 288 LINE SMOOTH",
"619 466 OFFCURVE",
"509 510 OFFCURVE",
"394 510 CURVE SMOOTH",
"281 510 OFFCURVE",
"213 469 OFFCURVE",
"166 414 CURVE",
"205 693 LINE",
"141 693 LINE",
"43 0 LINE"
);
}
);
width = 652;
},
{
anchors = (
{
name = bottom;
position = "{298, 0}";
},
{
name = center;
position = "{351, 375}";
},
{
name = top;
position = "{404, 750}";
}
);
layerId = "37B2A381-2B9F-4DE4-98E5-835D13A27EF0";
paths = (
{
closed = 1;
nodes = (
"125 0 LINE",
"164 272 LINE SMOOTH",
"178 372 OFFCURVE",
"263 440 OFFCURVE",
"376 440 CURVE SMOOTH",
"485 440 OFFCURVE",
"526 392 OFFCURVE",
"510 281 CURVE SMOOTH",
"470 0 LINE",
"556 0 LINE",
"597 290 LINE SMOOTH",
"618 438 OFFCURVE",
"548 516 OFFCURVE",
"394 516 CURVE SMOOTH",
"309 516 OFFCURVE",
"242 492 OFFCURVE",
"188 444 CURVE",
"223 693 LINE",
"138 693 LINE",
"40 0 LINE"
);
}
);
width = 652;
}
);
unicode = 0068;
},
{
glyphname = hbar;
lastChange = "2019-08-14 18:46:20 +0000";
layers = (
{
layerId = "DA405910-5117-420C-9605-F5A44EE03BDF";
paths = (
{
closed = 1;
nodes = (
"120 0 LINE",
"158 269 LINE SMOOTH",
"173 371 OFFCURVE",
"258 455 OFFCURVE",
"392 455 CURVE SMOOTH",
"487 455 OFFCURVE",
"561 422 OFFCURVE",
"541 279 CURVE SMOOTH",
"501 0 LINE",
"566 0 LINE",
"607 288 LINE SMOOTH",
"632 466 OFFCURVE",
"522 510 OFFCURVE",
"407 510 CURVE SMOOTH",
"294 510 OFFCURVE",
"226 469 OFFCURVE",
"179 414 CURVE",
"218 693 LINE",
"154 693 LINE",
"56 0 LINE"
);
},
{
closed = 1;
nodes = (
"63 556 LINE",
"337 556 LINE",
"344 610 LINE",
"70 610 LINE"
);
}
);
width = 638;
},
{
layerId = "37B2A381-2B9F-4DE4-98E5-835D13A27EF0";
paths = (
{
closed = 1;
nodes = (
"161 0 LINE",
"200 272 LINE SMOOTH",
"214 372 OFFCURVE",
"299 440 OFFCURVE",
"412 440 CURVE SMOOTH",
"521 440 OFFCURVE",
"562 392 OFFCURVE",
"546 281 CURVE SMOOTH",
"506 0 LINE",
"592 0 LINE",
"633 290 LINE SMOOTH",
"654 438 OFFCURVE",
"584 516 OFFCURVE",
"430 516 CURVE SMOOTH",
"345 516 OFFCURVE",
"278 492 OFFCURVE",
"224 444 CURVE",
"259 693 LINE",
"174 693 LINE",
"76 0 LINE"
);
},
{
closed = 1;
nodes = (
"87 556 LINE",
"379 556 LINE",
"388 622 LINE",
"96 622 LINE"
);
}
);
width = 685;
}
);
unicode = 0127;
},
{
glyphname = i;
lastChange = "2019-08-14 18:46:20 +0000";
layers = (
{
anchors = (
{
name = bottom;
position = "{78, 0}";
},
{
name = top;
position = "{148, 491}";
}
);
layerId = "DA405910-5117-420C-9605-F5A44EE03BDF";
paths = (
{
closed = 1;
nodes = (
"110 0 LINE",
"180 491 LINE",
"116 491 LINE",
"46 0 LINE"
);
},
{
closed = 1;
nodes = (
"197 593 LINE",
"211 693 LINE",
"141 693 LINE",
"127 593 LINE"
);
}
);
width = 226;
},
{
anchors = (
{
name = bottom;
position = "{78, 0}";
},
{
name = top;
position = "{148, 491}";
}
);
layerId = "37B2A381-2B9F-4DE4-98E5-835D13A27EF0";
paths = (
{
closed = 1;
nodes = (
"121 0 LINE",
"191 491 LINE",
"105 491 LINE",
"35 0 LINE"
);
},
{
closed = 1;
nodes = (
"207 593 LINE",
"221 693 LINE",
"131 693 LINE",
"117 593 LINE"
);
}
);
width = 226;
}
);
unicode = 0069;
},
{
glyphname = idotless;
lastChange = "2019-08-14 18:46:20 +0000";
layers = (
{
anchors = (
{
name = bottom;
position = "{72, 0}";
},
{
name = top;
position = "{140, 491}";
}
);
layerId = "DA405910-5117-420C-9605-F5A44EE03BDF";
paths = (
{
closed = 1;
nodes = (
"101 0 LINE",
"171 491 LINE",
"107 491 LINE",
"37 0 LINE"
);
}
);
width = 208;
},
{
anchors = (
{
name = bottom;
position = "{72, 0}";
},
{
name = top;
position = "{140, 491}";
}
);
layerId = "37B2A381-2B9F-4DE4-98E5-835D13A27EF0";
paths = (
{
closed = 1;
nodes = (
"112 0 LINE",
"182 491 LINE",
"96 491 LINE",
"26 0 LINE"
);
}
);
width = 208;
}
);
unicode = 0131;
},
{
glyphname = j;
lastChange = "2019-08-14 18:46:20 +0000";
layers = (
{
layerId = "DA405910-5117-420C-9605-F5A44EE03BDF";
paths = (
{
closed = 1;
nodes = (
"-40 -202 LINE",
"15 -202 OFFCURVE",
"50 -195 OFFCURVE",
"77 -172 CURVE",
"105 -150 OFFCURVE",
"117 -128 OFFCURVE",
"123 -85 CURVE",
"204 491 LINE",
"140 491 LINE",
"64 -49 LINE",
"56 -102 OFFCURVE",
"55 -113 OFFCURVE",
"41 -126 CURVE",
"28 -138 OFFCURVE",
"6 -146 OFFCURVE",
"-31 -146 CURVE",
"-120 -146 LINE",
"-128 -202 LINE"
);
},
{
closed = 1;
nodes = (
"223 607 LINE",
"235 693 LINE",
"165 693 LINE",
"153 607 LINE"
);
}
);
width = 252;
},
{
layerId = "37B2A381-2B9F-4DE4-98E5-835D13A27EF0";
paths = (
{
closed = 1;
nodes = (
"-39 -202 LINE SMOOTH",
"21 -202 OFFCURVE",
"56 -193 OFFCURVE",
"84 -170 CURVE SMOOTH",
"113 -146 OFFCURVE",
"126 -122 OFFCURVE",
"133 -76 CURVE SMOOTH",
"213 491 LINE",
"127 491 LINE",
"52 -41 LINE SMOOTH",
"44 -95 OFFCURVE",
"42 -100 OFFCURVE",
"33 -108 CURVE SMOOTH",
"23 -119 OFFCURVE",
"3 -124 OFFCURVE",
"-27 -124 CURVE SMOOTH",
"-126 -124 LINE",
"-137 -202 LINE"
);
},
{
closed = 1;
nodes = (
"232 607 LINE",
"244 693 LINE",
"152 693 LINE",
"140 607 LINE"
);
}
);
width = 252;
}
);
unicode = 006A;
},
{
glyphname = k;
lastChange = "2019-08-14 18:46:20 +0000";
layers = (
{
anchors = (
{
name = bottom;
position = "{256, 0}";
},
{
name = top;
position = "{362, 750}";
}
);
layerId = "DA405910-5117-420C-9605-F5A44EE03BDF";
paths = (
{
closed = 1;
nodes = (
"107 0 LINE",
"126 130 LINE",
"265 240 LINE",
"450 0 LINE",
"528 0 LINE",
"316 282 LINE",
"573 491 LINE",
"489 491 LINE",
"137 210 LINE",
"205 693 LINE",
"141 693 LINE",
"43 0 LINE"
);
}
);
width = 563;
},
{
anchors = (
{
name = bottom;
position = "{256, 0}";
},
{
name = top;
position = "{362, 750}";
}
);
layerId = "37B2A381-2B9F-4DE4-98E5-835D13A27EF0";
paths = (
{
closed = 1;
nodes = (
"125 0 LINE",
"144 132 LINE",
"264 227 LINE",
"440 0 LINE",
"546 0 LINE",
"333 283 LINE",
"588 491 LINE",
"472 491 LINE",
"159 241 LINE",
"223 693 LINE",
"138 693 LINE",
"40 0 LINE"
);
}
);
width = 563;
}
);
unicode = 006B;
},
{
glyphname = l;
lastChange = "2019-08-14 18:46:20 +0000";
layers = (
{
anchors = (
{
name = bottom;
position = "{75, 0}";
},
{
name = center;
position = "{128, 375}";
},
{
name = top;
position = "{181, 750}";
},
{
name = topright;
position = "{213, 750}";
}
);
layerId = "DA405910-5117-420C-9605-F5A44EE03BDF";
paths = (
{
closed = 1;
nodes = (
"107 0 LINE",
"205 693 LINE",
"141 693 LINE",
"43 0 LINE"
);
}
);
width = 220;
},
{
anchors = (
{
name = bottom;
position = "{81, 0}";
},
{
name = center;
position = "{134, 375}";
},
{
name = top;
position = "{187, 750}";
},
{
name = topright;
position = "{219, 750}";
}
);
layerId = "37B2A381-2B9F-4DE4-98E5-835D13A27EF0";
paths = (
{
closed = 1;
nodes = (
"124 0 LINE",
"222 693 LINE",
"136 693 LINE",
"38 0 LINE"
);
}
);
width = 232;
}
);
unicode = 006C;
},
{
glyphname = lslash;
lastChange = "2019-08-14 18:46:20 +0000";
layers = (
{
layerId = "DA405910-5117-420C-9605-F5A44EE03BDF";
paths = (
{
closed = 1;
nodes = (
"148 0 LINE",
"212 0 LINE",
"310 693 LINE",
"246 693 LINE"
);
},
{
closed = 1;
nodes = (
"65 198 LINE",
"371 341 LINE",
"382 413 LINE",
"75 270 LINE"
);
}
);
width = 430;
},
{
background = {
paths = (
{
closed = 1;
nodes = (
"183 0 LINE",
"247 0 LINE",
"247 693 LINE",
"183 693 LINE"
);
},
{
closed = 1;
nodes = (
"72 198 LINE",
"358 341 LINE",
"358 413 LINE",
"72 270 LINE"
);
}
);
};
layerId = "37B2A381-2B9F-4DE4-98E5-835D13A27EF0";
paths = (
{
closed = 1;
nodes = (
"61 186 LINE",
"373 332 LINE",
"386 425 LINE",
"74 279 LINE"
);
},
{
closed = 1;
nodes = (
"223 0 LINE",
"321 693 LINE",
"235 693 LINE",
"137 0 LINE"
);
}
);
width = 430;
}
);
unicode = 0142;
},
{
glyphname = m;
lastChange = "2019-08-14 18:46:20 +0000";
layers = (
{
anchors = (
{
name = bottom;
position = "{507, 0}";
},
{
name = top;
position = "{577, 491}";
}
);
layerId = "DA405910-5117-420C-9605-F5A44EE03BDF";
paths = (
{
closed = 1;
nodes = (
"107 0 LINE",
"145 269 LINE SMOOTH",
"160 371 OFFCURVE",
"243 455 OFFCURVE",
"373 455 CURVE SMOOTH",
"465 455 OFFCURVE",
"536 422 OFFCURVE",
"516 279 CURVE SMOOTH",
"476 0 LINE",
"540 0 LINE",
"578 269 LINE SMOOTH",
"593 371 OFFCURVE",
"675 455 OFFCURVE",
"805 455 CURVE SMOOTH",
"897 455 OFFCURVE",
"967 422 OFFCURVE",
"947 279 CURVE SMOOTH",
"907 0 LINE",
"971 0 LINE",
"1012 288 LINE SMOOTH",
"1037 466 OFFCURVE",
"931 510 OFFCURVE",
"820 510 CURVE SMOOTH",
"687 510 OFFCURVE",
"624 450 OFFCURVE",
"577 395 CURVE",
"554 485 OFFCURVE",
"472 510 OFFCURVE",
"388 510 CURVE SMOOTH",
"278 510 OFFCURVE",
"212 469 OFFCURVE",
"166 414 CURVE",
"177 491 LINE",
"113 491 LINE",
"43 0 LINE"
);
}
);
width = 1070;
},
{
anchors = (
{
name = bottom;
position = "{507, 0}";
},
{
name = top;
position = "{577, 491}";
}
);
layerId = "37B2A381-2B9F-4DE4-98E5-835D13A27EF0";
paths = (
{
closed = 1;
nodes = (
"136 0 LINE",
"174 268 LINE SMOOTH",
"188 368 OFFCURVE",
"271 435 OFFCURVE",
"380 435 CURVE SMOOTH",
"483 435 OFFCURVE",
"521 388 OFFCURVE",
"506 278 CURVE SMOOTH",
"466 0 LINE",
"550 0 LINE",
"588 268 LINE SMOOTH",
"602 368 OFFCURVE",
"683 435 OFFCURVE",
"792 435 CURVE SMOOTH",
"895 435 OFFCURVE",
"933 388 OFFCURVE",
"918 278 CURVE SMOOTH",
"878 0 LINE",
"962 0 LINE",
"1003 287 LINE SMOOTH",
"1023 432 OFFCURVE",
"956 510 OFFCURVE",
"809 510 CURVE SMOOTH",
"690 510 OFFCURVE",
"625 460 OFFCURVE",
"581 411 CURVE",
"555 476 OFFCURVE",
"493 510 OFFCURVE",
"397 510 CURVE SMOOTH",
"315 510 OFFCURVE",
"251 487 OFFCURVE",
"198 439 CURVE",
"206 491 LINE",
"122 491 LINE",
"52 0 LINE"
);
}
);
width = 1070;
}
);
unicode = 006D;
},
{
glyphname = n;
lastChange = "2019-08-14 18:46:20 +0000";
layers = (
{
anchors = (
{
name = bottom;
position = "{298, 0}";
},
{
name = top;
position = "{368, 491}";
}
);
layerId = "DA405910-5117-420C-9605-F5A44EE03BDF";
paths = (
{
closed = 1;
nodes = (
"107 0 LINE",
"145 269 LINE SMOOTH",
"160 371 OFFCURVE",
"245 455 OFFCURVE",
"379 455 CURVE SMOOTH",
"474 455 OFFCURVE",
"548 422 OFFCURVE",
"528 279 CURVE SMOOTH",
"488 0 LINE",
"553 0 LINE",
"594 288 LINE SMOOTH",
"619 466 OFFCURVE",
"509 510 OFFCURVE",
"394 510 CURVE SMOOTH",
"281 510 OFFCURVE",
"213 469 OFFCURVE",
"166 414 CURVE",
"177 491 LINE",
"113 491 LINE",
"43 0 LINE"
);
}
);
width = 652;
},
{
anchors = (
{
name = bottom;
position = "{298, 0}";
},
{
name = top;
position = "{368, 491}";
}
);
layerId = "37B2A381-2B9F-4DE4-98E5-835D13A27EF0";
paths = (
{
closed = 1;
nodes = (
"127 0 LINE",
"165 268 LINE SMOOTH",
"179 368 OFFCURVE",
"264 435 OFFCURVE",
"376 435 CURVE SMOOTH",
"483 435 OFFCURVE",
"523 387 OFFCURVE",
"508 278 CURVE SMOOTH",
"468 0 LINE",
"553 0 LINE",
"594 287 LINE SMOOTH",
"614 433 OFFCURVE",
"544 510 OFFCURVE",
"393 510 CURVE SMOOTH",
"309 510 OFFCURVE",
"242 487 OFFCURVE",
"189 438 CURVE",
"197 491 LINE",
"113 491 LINE",
"43 0 LINE"
);
}
);
width = 652;
}
);
unicode = 006E;
},
{
glyphname = eng;
lastChange = "2019-08-14 18:46:20 +0000";
layers = (
{
layerId = "DA405910-5117-420C-9605-F5A44EE03BDF";
paths = (
{
closed = 1;
nodes = (
"93 0 LINE",
"131 269 LINE SMOOTH",
"146 371 OFFCURVE",
"231 455 OFFCURVE",
"365 455 CURVE SMOOTH",
"460 455 OFFCURVE",
"534 422 OFFCURVE",
"514 279 CURVE SMOOTH",
"470 -31 LINE SMOOTH",
"463 -84 OFFCURVE",
"461 -95 OFFCURVE",
"447 -108 CURVE SMOOTH",
"435 -120 OFFCURVE",
"413 -128 OFFCURVE",
"376 -128 CURVE SMOOTH",
"286 -128 LINE",
"278 -184 LINE",
"367 -184 LINE SMOOTH",
"422 -184 OFFCURVE",
"458 -177 OFFCURVE",
"485 -154 CURVE SMOOTH",
"513 -132 OFFCURVE",
"524 -110 OFFCURVE",
"530 -67 CURVE SMOOTH",
"580 288 LINE SMOOTH",
"605 466 OFFCURVE",
"495 510 OFFCURVE",
"380 510 CURVE SMOOTH",
"267 510 OFFCURVE",
"199 469 OFFCURVE",
"152 414 CURVE",
"163 491 LINE",
"99 491 LINE",
"29 0 LINE"
);
}
);
width = 610;
},
{
layerId = "37B2A381-2B9F-4DE4-98E5-835D13A27EF0";
paths = (
{
closed = 1;
nodes = (
"110 0 LINE",
"148 265 LINE SMOOTH",
"162 366 OFFCURVE",
"247 434 OFFCURVE",
"360 434 CURVE SMOOTH",
"469 434 OFFCURVE",
"510 386 OFFCURVE",
"494 275 CURVE SMOOTH",
"452 -25 LINE SMOOTH",
"445 -78 OFFCURVE",
"443 -83 OFFCURVE",
"435 -91 CURVE SMOOTH",
"424 -102 OFFCURVE",
"403 -107 OFFCURVE",
"373 -107 CURVE SMOOTH",
"275 -107 LINE",
"265 -184 LINE",
"362 -184 LINE SMOOTH",
"422 -184 OFFCURVE",
"458 -175 OFFCURVE",
"484 -152 CURVE",
"514 -129 OFFCURVE",
"527 -104 OFFCURVE",
"533 -59 CURVE SMOOTH",
"581 284 LINE SMOOTH",
"602 432 OFFCURVE",
"532 510 OFFCURVE",
"378 510 CURVE SMOOTH",
"293 510 OFFCURVE",
"226 486 OFFCURVE",
"172 438 CURVE",
"180 491 LINE",
"96 491 LINE",
"26 0 LINE"
);
}
);
width = 610;
}
);
unicode = 014B;
},
{
glyphname = o;
lastChange = "2019-08-14 18:46:20 +0000";
layers = (
{
anchors = (
{
name = bottom;
position = "{285, 0}";
},
{
name = center;
position = "{320, 246}";
},
{
name = horn;
position = "{564, 334}";
},
{
name = ogonek;
position = "{545, 10}";
},
{
name = top;
position = "{355, 491}";
},
{
name = topright;
position = "{658, 491}";
}
);
layerId = "DA405910-5117-420C-9605-F5A44EE03BDF";
paths = (
{
closed = 1;
nodes = (
"453 -20 OFFCURVE",
"577 83 OFFCURVE",
"600 246 CURVE SMOOTH",
"623 407 OFFCURVE",
"527 510 OFFCURVE",
"356 510 CURVE SMOOTH",
"186 510 OFFCURVE",
"63 407 OFFCURVE",
"40 246 CURVE SMOOTH",
"17 83 OFFCURVE",
"112 -20 OFFCURVE",
"282 -20 CURVE SMOOTH"
);
},
{
closed = 1;
nodes = (
"160 35 OFFCURVE",
"91 117 OFFCURVE",
"109 246 CURVE SMOOTH",
"127 373 OFFCURVE",
"219 455 OFFCURVE",
"348 455 CURVE SMOOTH",
"479 455 OFFCURVE",
"550 373 OFFCURVE",
"530 246 CURVE SMOOTH",
"510 117 OFFCURVE",
"416 35 OFFCURVE",
"289 35 CURVE SMOOTH"
);
}
);
width = 640;
},
{
anchors = (
{
name = bottom;
position = "{285, 0}";
},
{
name = center;
position = "{320, 246}";
},
{
name = horn;
position = "{551, 334}";
},
{
name = ogonek;
position = "{545, 10}";
},
{
name = top;
position = "{355, 491}";
},
{
name = topright;
position = "{658, 491}";
}
);
layerId = "37B2A381-2B9F-4DE4-98E5-835D13A27EF0";
paths = (
{
closed = 1;
nodes = (
"452 -20 OFFCURVE",
"576 84 OFFCURVE",
"599 246 CURVE SMOOTH",
"622 406 OFFCURVE",
"526 510 OFFCURVE",
"356 510 CURVE SMOOTH",
"187 510 OFFCURVE",
"64 406 OFFCURVE",
"41 246 CURVE SMOOTH",
"18 84 OFFCURVE",
"113 -20 OFFCURVE",
"282 -20 CURVE SMOOTH"
);
},
{
closed = 1;
nodes = (
"175 56 OFFCURVE",
"114 129 OFFCURVE",
"130 246 CURVE SMOOTH",
"146 362 OFFCURVE",
"229 434 OFFCURVE",
"345 434 CURVE SMOOTH",
"464 434 OFFCURVE",
"527 362 OFFCURVE",
"509 246 CURVE SMOOTH",
"492 129 OFFCURVE",
"407 56 OFFCURVE",
"292 56 CURVE SMOOTH"
);
}
);
width = 640;
}
);
unicode = 006F;
},
{
glyphname = oslash;
lastChange = "2019-08-14 18:46:20 +0000";
layers = (
{
layerId = "DA405910-5117-420C-9605-F5A44EE03BDF";
paths = (
{
closed = 1;
nodes = (
"445 -20 OFFCURVE",
"569 83 OFFCURVE",
"592 246 CURVE SMOOTH",
"615 407 OFFCURVE",
"519 510 OFFCURVE",
"348 510 CURVE SMOOTH",
"178 510 OFFCURVE",
"55 407 OFFCURVE",
"32 246 CURVE SMOOTH",
"9 83 OFFCURVE",
"104 -20 OFFCURVE",
"274 -20 CURVE SMOOTH"
);
},
{
closed = 1;
nodes = (
"152 35 OFFCURVE",
"83 117 OFFCURVE",
"101 246 CURVE SMOOTH",
"119 373 OFFCURVE",
"211 455 OFFCURVE",
"340 455 CURVE SMOOTH",
"471 455 OFFCURVE",
"542 373 OFFCURVE",
"522 246 CURVE SMOOTH",
"502 117 OFFCURVE",
"408 35 OFFCURVE",
"281 35 CURVE SMOOTH"
);
},
{
closed = 1;
nodes = (
"38 -39 LINE",
"110 -39 LINE",
"587 528 LINE",
"515 528 LINE"
);
}
);
width = 610;
},
{
layerId = "37B2A381-2B9F-4DE4-98E5-835D13A27EF0";
paths = (
{
closed = 1;
nodes = (
"28 -39 LINE",
"118 -39 LINE",
"595 528 LINE",
"505 528 LINE"
);
},
{
closed = 1;
nodes = (
"444 -20 OFFCURVE",
"568 84 OFFCURVE",
"591 246 CURVE SMOOTH",
"614 406 OFFCURVE",
"518 510 OFFCURVE",
"348 510 CURVE SMOOTH",
"179 510 OFFCURVE",
"56 406 OFFCURVE",
"33 246 CURVE SMOOTH",
"10 84 OFFCURVE",
"105 -20 OFFCURVE",
"274 -20 CURVE SMOOTH"
);
},
{
closed = 1;
nodes = (
"167 56 OFFCURVE",
"106 129 OFFCURVE",
"122 246 CURVE SMOOTH",
"138 362 OFFCURVE",
"221 434 OFFCURVE",
"337 434 CURVE SMOOTH",
"456 434 OFFCURVE",
"519 362 OFFCURVE",
"501 246 CURVE SMOOTH",
"483 129 OFFCURVE",
"399 56 OFFCURVE",
"284 56 CURVE SMOOTH"
);
}
);
width = 610;
}
);
unicode = 00F8;
},
{
glyphname = oe;
lastChange = "2019-08-14 18:46:20 +0000";
layers = (
{
layerId = "DA405910-5117-420C-9605-F5A44EE03BDF";
paths = (
{
closed = 1;
nodes = (
"8 83 OFFCURVE",
"103 -20 OFFCURVE",
"273 -20 CURVE SMOOTH",
"387 -20 OFFCURVE",
"480 25 OFFCURVE",
"536 103 CURVE",
"570 25 OFFCURVE",
"650 -20 OFFCURVE",
"763 -20 CURVE SMOOTH",
"894 -20 OFFCURVE",
"998 41 OFFCURVE",
"1049 142 CURVE",
"987 166 LINE",
"947 84 OFFCURVE",
"869 35 OFFCURVE",
"770 35 CURVE SMOOTH",
"648 35 OFFCURVE",
"579 107 OFFCURVE",
"587 223 CURVE",
"589 229 LINE",
"1076 229 LINE",
"1077 241 LINE SMOOTH",
"1100 403 OFFCURVE",
"1008 510 OFFCURVE",
"837 510 CURVE SMOOTH",
"724 510 OFFCURVE",
"632 464 OFFCURVE",
"576 387 CURVE",
"542 464 OFFCURVE",
"461 510 OFFCURVE",
"347 510 CURVE SMOOTH",
"177 510 OFFCURVE",
"54 407 OFFCURVE",
"31 246 CURVE SMOOTH"
);
},
{
closed = 1;
nodes = (
"118 373 OFFCURVE",
"210 455 OFFCURVE",
"339 455 CURVE SMOOTH",
"468 455 OFFCURVE",
"539 375 OFFCURVE",
"522 251 CURVE SMOOTH",
"521 246 LINE SMOOTH",
"501 117 OFFCURVE",
"407 35 OFFCURVE",
"280 35 CURVE SMOOTH",
"151 35 OFFCURVE",
"82 117 OFFCURVE",
"100 246 CURVE SMOOTH"
);
},
{
closed = 1;
nodes = (
"631 393 OFFCURVE",
"716 455 OFFCURVE",
"829 455 CURVE SMOOTH",
"944 455 OFFCURVE",
"1013 393 OFFCURVE",
"1014 286 CURVE",
"599 286 LINE"
);
}
);
width = 1109;
},
{
background = {
paths = (
{
closed = 1;
nodes = (
"31 83 OFFCURVE",
"140 -20 OFFCURVE",
"310 -20 CURVE SMOOTH",
"424 -20 OFFCURVE",
"511 25 OFFCURVE",
"556 103 CURVE",
"601 25 OFFCURVE",
"687 -20 OFFCURVE",
"800 -20 CURVE SMOOTH",
"931 -20 OFFCURVE",
"1027 41 OFFCURVE",
"1064 142 CURVE",
"998 166 LINE",
"970 84 OFFCURVE",
"899 35 OFFCURVE",
"800 35 CURVE SMOOTH",
"678 35 OFFCURVE",
"598 107 OFFCURVE",
"590 223 CURVE",
"591 229 LINE",
"1078 229 LINE",
"1078 241 LINE SMOOTH",
"1078 403 OFFCURVE",
"971 510 OFFCURVE",
"800 510 CURVE SMOOTH",
"687 510 OFFCURVE",
"601 464 OFFCURVE",
"556 387 CURVE",
"511 464 OFFCURVE",
"424 510 OFFCURVE",
"310 510 CURVE SMOOTH",
"140 510 OFFCURVE",
"31 407 OFFCURVE",
"31 246 CURVE SMOOTH"
);
},
{
closed = 1;
nodes = (
"100 373 OFFCURVE",
"181 455 OFFCURVE",
"310 455 CURVE SMOOTH",
"439 455 OFFCURVE",
"521 375 OFFCURVE",
"521 251 CURVE SMOOTH",
"521 246 LINE SMOOTH",
"519 117 OFFCURVE",
"437 35 OFFCURVE",
"310 35 CURVE SMOOTH",
"181 35 OFFCURVE",
"100 117 OFFCURVE",
"100 246 CURVE SMOOTH"
);
},
{
closed = 1;
nodes = (
"610 393 OFFCURVE",
"687 455 OFFCURVE",
"800 455 CURVE SMOOTH",
"915 455 OFFCURVE",
"992 393 OFFCURVE",
"1008 286 CURVE",
"593 286 LINE"
);
}
);
};
layerId = "37B2A381-2B9F-4DE4-98E5-835D13A27EF0";
paths = (
{
closed = 1;
nodes = (
"448 -21 OFFCURVE",
"572 83 OFFCURVE",
"595 245 CURVE SMOOTH",
"617 405 OFFCURVE",
"522 509 OFFCURVE",
"352 509 CURVE SMOOTH",
"183 509 OFFCURVE",
"59 405 OFFCURVE",
"37 245 CURVE SMOOTH",
"14 83 OFFCURVE",
"109 -21 OFFCURVE",
"278 -21 CURVE SMOOTH"
);
},
{
closed = 1;
nodes = (
"171 55 OFFCURVE",
"109 128 OFFCURVE",
"126 245 CURVE SMOOTH",
"142 361 OFFCURVE",
"225 433 OFFCURVE",
"341 433 CURVE SMOOTH",
"460 433 OFFCURVE",
"523 361 OFFCURVE",
"505 245 CURVE SMOOTH",
"486 128 OFFCURVE",
"403 55 OFFCURVE",
"288 55 CURVE SMOOTH"
);
},
{
closed = 1;
nodes = (
"499 84 OFFCURVE",
"594 -20 OFFCURVE",
"763 -20 CURVE SMOOTH",
"892 -20 OFFCURVE",
"998 40 OFFCURVE",
"1050 143 CURVE",
"969 174 LINE",
"933 98 OFFCURVE",
"862 56 OFFCURVE",
"773 56 CURVE SMOOTH",
"665 56 OFFCURVE",
"603 117 OFFCURVE",
"607 218 CURVE",
"1073 218 LINE",
"1076 241 LINE SMOOTH",
"1099 404 OFFCURVE",
"1005 510 OFFCURVE",
"837 510 CURVE SMOOTH",
"668 510 OFFCURVE",
"545 406 OFFCURVE",
"522 246 CURVE SMOOTH"
);
},
{
closed = 1;
nodes = (
"654 384 OFFCURVE",
"728 434 OFFCURVE",
"826 434 CURVE SMOOTH",
"926 434 OFFCURVE",
"986 384 OFFCURVE",
"992 296 CURVE",
"623 296 LINE"
);
}
);
width = 1109;
}
);
unicode = 0153;
},
{
glyphname = p;
lastChange = "2019-08-14 18:46:20 +0000";
layers = (
{
anchors = (
{
name = bottom;
position = "{314, 0}";
},
{
name = top;
position = "{384, 491}";
}
);
layerId = "DA405910-5117-420C-9605-F5A44EE03BDF";
paths = (
{
closed = 1;
nodes = (
"79 -202 LINE",
"118 73 LINE",
"149 19 OFFCURVE",
"228 -20 OFFCURVE",
"320 -20 CURVE SMOOTH",
"491 -20 OFFCURVE",
"615 83 OFFCURVE",
"638 246 CURVE SMOOTH",
"661 407 OFFCURVE",
"565 510 OFFCURVE",
"394 510 CURVE SMOOTH",
"302 510 OFFCURVE",
"227 478 OFFCURVE",
"166 418 CURVE",
"177 491 LINE",
"113 491 LINE",
"15 -202 LINE"
);
},
{
closed = 1;
nodes = (
"193 35 OFFCURVE",
"124 117 OFFCURVE",
"142 246 CURVE SMOOTH",
"160 373 OFFCURVE",
"252 455 OFFCURVE",
"381 455 CURVE SMOOTH",
"512 455 OFFCURVE",
"586 373 OFFCURVE",
"566 246 CURVE SMOOTH",
"546 117 OFFCURVE",
"449 35 OFFCURVE",
"322 35 CURVE SMOOTH"
);
}
);
width = 678;
},
{
anchors = (
{
name = bottom;
position = "{314, 0}";
},
{
name = top;
position = "{384, 491}";
}
);
layerId = "37B2A381-2B9F-4DE4-98E5-835D13A27EF0";
paths = (
{
closed = 1;
nodes = (
"98 -202 LINE",
"133 45 LINE",
"172 2 OFFCURVE",
"243 -26 OFFCURVE",
"319 -26 CURVE SMOOTH",
"491 -26 OFFCURVE",
"617 79 OFFCURVE",
"640 243 CURVE SMOOTH",
"662 405 OFFCURVE",
"566 510 OFFCURVE",
"394 510 CURVE SMOOTH",
"315 510 OFFCURVE",
"246 486 OFFCURVE",
"188 438 CURVE",
"196 491 LINE",
"111 491 LINE",
"13 -202 LINE"
);
},
{
closed = 1;
nodes = (
"207 50 OFFCURVE",
"144 124 OFFCURVE",
"161 243 CURVE SMOOTH",
"177 360 OFFCURVE",
"260 434 OFFCURVE",
"378 434 CURVE SMOOTH",
"499 434 OFFCURVE",
"565 359 OFFCURVE",
"548 243 CURVE SMOOTH",
"529 126 OFFCURVE",
"443 50 OFFCURVE",
"325 50 CURVE SMOOTH"
);
}
);
width = 678;
}
);
unicode = 0070;
},
{
glyphname = thorn;
lastChange = "2019-08-14 18:46:20 +0000";
layers = (
{
anchors = (
{
name = bottom;
position = "{300, 0}";
},
{
name = top;
position = "{370, 491}";
}
);
layerId = "DA405910-5117-420C-9605-F5A44EE03BDF";
paths = (
{
closed = 1;
nodes = (
"65 -202 LINE",
"104 73 LINE",
"135 19 OFFCURVE",
"214 -20 OFFCURVE",
"306 -20 CURVE SMOOTH",
"477 -20 OFFCURVE",
"601 83 OFFCURVE",
"624 246 CURVE SMOOTH",
"647 407 OFFCURVE",
"551 510 OFFCURVE",
"380 510 CURVE SMOOTH",
"288 510 OFFCURVE",
"213 478 OFFCURVE",
"152 418 CURVE",
"193 701 LINE",
"129 701 LINE",
"1 -202 LINE"
);
},
{
closed = 1;
nodes = (
"146 373 OFFCURVE",
"238 455 OFFCURVE",
"367 455 CURVE SMOOTH",
"498 455 OFFCURVE",
"572 373 OFFCURVE",
"552 246 CURVE SMOOTH",
"532 117 OFFCURVE",
"435 35 OFFCURVE",
"308 35 CURVE SMOOTH",
"179 35 OFFCURVE",
"110 117 OFFCURVE",
"128 246 CURVE SMOOTH"
);
}
);
width = 670;
},
{
anchors = (
{
name = bottom;
position = "{300, 0}";
},
{
name = top;
position = "{370, 491}";
}
);
layerId = "37B2A381-2B9F-4DE4-98E5-835D13A27EF0";
paths = (
{
closed = 1;
nodes = (
"83 -202 LINE",
"118 45 LINE",
"157 2 OFFCURVE",
"228 -26 OFFCURVE",
"304 -26 CURVE SMOOTH",
"476 -26 OFFCURVE",
"602 79 OFFCURVE",
"625 243 CURVE SMOOTH",
"647 405 OFFCURVE",
"551 510 OFFCURVE",
"379 510 CURVE SMOOTH",
"300 510 OFFCURVE",
"231 486 OFFCURVE",
"173 438 CURVE",
"209 693 LINE",
"124 693 LINE",
"-2 -202 LINE"
);
},
{
closed = 1;
nodes = (
"192 50 OFFCURVE",
"129 124 OFFCURVE",
"146 243 CURVE SMOOTH",
"162 360 OFFCURVE",
"245 434 OFFCURVE",
"363 434 CURVE SMOOTH",
"484 434 OFFCURVE",
"550 359 OFFCURVE",
"533 243 CURVE SMOOTH",
"515 126 OFFCURVE",
"428 50 OFFCURVE",
"310 50 CURVE SMOOTH"
);
}
);
width = 670;
}
);
unicode = 00FE;
},
{
glyphname = q;
lastChange = "2019-08-14 18:46:20 +0000";
layers = (
{
anchors = (
{
name = bottom;
position = "{294, 0}";
},
{
name = top;
position = "{364, 491}";
}
);
layerId = "DA405910-5117-420C-9605-F5A44EE03BDF";
paths = (
{
closed = 1;
nodes = (
"537 -202 LINE",
"635 491 LINE",
"571 491 LINE",
"560 418 LINE",
"517 478 OFFCURVE",
"450 510 OFFCURVE",
"358 510 CURVE SMOOTH",
"187 510 OFFCURVE",
"63 407 OFFCURVE",
"40 246 CURVE SMOOTH",
"17 83 OFFCURVE",
"113 -20 OFFCURVE",
"284 -20 CURVE SMOOTH",
"376 -20 OFFCURVE",
"465 19 OFFCURVE",
"512 73 CURVE",
"473 -202 LINE"
);
},
{
closed = 1;
nodes = (
"169 35 OFFCURVE",
"96 117 OFFCURVE",
"112 246 CURVE SMOOTH",
"128 373 OFFCURVE",
"224 455 OFFCURVE",
"355 455 CURVE SMOOTH",
"484 455 OFFCURVE",
"554 373 OFFCURVE",
"536 246 CURVE SMOOTH",
"518 117 OFFCURVE",
"425 35 OFFCURVE",
"296 35 CURVE SMOOTH"
);
}
);
width = 678;
},
{
anchors = (
{
name = bottom;
position = "{294, 0}";
},
{
name = top;
position = "{364, 491}";
}
);
layerId = "37B2A381-2B9F-4DE4-98E5-835D13A27EF0";
paths = (
{
closed = 1;
nodes = (
"539 -202 LINE",
"637 491 LINE",
"552 491 LINE",
"544 438 LINE",
"500 486 OFFCURVE",
"437 510 OFFCURVE",
"358 510 CURVE SMOOTH",
"186 510 OFFCURVE",
"60 405 OFFCURVE",
"38 243 CURVE SMOOTH",
"15 79 OFFCURVE",
"111 -26 OFFCURVE",
"283 -26 CURVE SMOOTH",
"359 -26 OFFCURVE",
"438 2 OFFCURVE",
"489 45 CURVE",
"454 -202 LINE"
);
},
{
closed = 1;
nodes = (
"181 50 OFFCURVE",
"115 126 OFFCURVE",
"130 243 CURVE SMOOTH",
"145 359 OFFCURVE",
"231 434 OFFCURVE",
"352 434 CURVE SMOOTH",
"470 434 OFFCURVE",
"533 360 OFFCURVE",
"517 243 CURVE SMOOTH",
"500 124 OFFCURVE",
"417 50 OFFCURVE",
"299 50 CURVE SMOOTH"
);
}
);
width = 678;
}
);
unicode = 0071;
},
{
glyphname = r;
lastChange = "2019-08-14 18:46:20 +0000";
layers = (
{
anchors = (
{
name = bottom;
position = "{78, 0}";
},
{
name = top;
position = "{214, 491}";
}
);
background = {
paths = (
{
closed = 1;
nodes = (
"144 0 LINE",
"144 284 LINE",
"144 394 OFFCURVE",
"235 438 OFFCURVE",
"339 438 CURVE",
"347 503 LINE",
"235 503 OFFCURVE",
"180 465 OFFCURVE",
"144 413 CURVE",
"144 491 LINE",
"80 491 LINE",
"80 0 LINE"
);
}
);
};
layerId = "DA405910-5117-420C-9605-F5A44EE03BDF";
paths = (
{
closed = 1;
nodes = (
"109 0 LINE",
"149 284 LINE",
"165 394 OFFCURVE",
"262 438 OFFCURVE",
"366 438 CURVE",
"383 503 LINE",
"271 503 OFFCURVE",
"211 465 OFFCURVE",
"168 413 CURVE",
"179 491 LINE",
"115 491 LINE",
"45 0 LINE"
);
}
);
width = 367;
},
{
anchors = (
{
name = bottom;
position = "{78, 0}";
},
{
name = top;
position = "{214, 491}";
}
);
layerId = "37B2A381-2B9F-4DE4-98E5-835D13A27EF0";
paths = (
{
closed = 1;
nodes = (
"124 0 LINE",
"164 282 LINE SMOOTH",
"176 370 OFFCURVE",
"252 420 OFFCURVE",
"367 417 CURVE",
"389 502 LINE",
"301 504 OFFCURVE",
"237 484 OFFCURVE",
"186 437 CURVE",
"194 491 LINE",
"110 491 LINE",
"40 0 LINE"
);
}
);
width = 367;
}
);
unicode = 0072;
},
{
glyphname = s;
lastChange = "2019-08-14 18:46:20 +0000";
layers = (
{
anchors = (
{
name = bottom;
position = "{238, 0}";
},
{
name = top;
position = "{308, 491}";
}
);
hints = (
{
horizontal = 1;
origin = "{0, 18}";
target = down;
type = TopGhost;
}
);
layerId = "DA405910-5117-420C-9605-F5A44EE03BDF";
paths = (
{
closed = 1;
nodes = (
"410 -20 OFFCURVE",
"477 58 OFFCURVE",
"486 125 CURVE SMOOTH",
"502 239 OFFCURVE",
"362 258 OFFCURVE",
"284 268 CURVE SMOOTH",
"207 278 OFFCURVE",
"111 287 OFFCURVE",
"121 358 CURVE SMOOTH",
"127 400 OFFCURVE",
"180 456 OFFCURVE",
"306 453 CURVE SMOOTH",
"428 450 OFFCURVE",
"460 382 OFFCURVE",
"470 358 CURVE",
"528 378 LINE",
"517 415 OFFCURVE",
"467 510 OFFCURVE",
"312 510 CURVE SMOOTH",
"139 510 OFFCURVE",
"68 433 OFFCURVE",
"58 358 CURVE SMOOTH",
"40 233 OFFCURVE",
"177 220 OFFCURVE",
"276 208 CURVE SMOOTH",
"363 197 OFFCURVE",
"431 179 OFFCURVE",
"423 125 CURVE SMOOTH",
"417 81 OFFCURVE",
"364 35 OFFCURVE",
"252 37 CURVE SMOOTH",
"142 39 OFFCURVE",
"95 98 OFFCURVE",
"81 139 CURVE",
"18 118 LINE",
"33 66 OFFCURVE",
"85 -20 OFFCURVE",
"245 -20 CURVE SMOOTH"
);
}
);
width = 545;
},
{
anchors = (
{
name = bottom;
position = "{238, 0}";
},
{
name = top;
position = "{308, 491}";
}
);
hints = (
{
horizontal = 1;
origin = "{0, 18}";
target = down;
type = TopGhost;
}
);
layerId = "37B2A381-2B9F-4DE4-98E5-835D13A27EF0";
paths = (
{
closed = 1;
nodes = (
"380 -20 OFFCURVE",
"475 39 OFFCURVE",
"488 130 CURVE SMOOTH",
"504 249 OFFCURVE",
"361 269 OFFCURVE",
"287 278 CURVE SMOOTH",
"212 288 OFFCURVE",
"131 296 OFFCURVE",
"139 353 CURVE SMOOTH",
"146 401 OFFCURVE",
"213 435 OFFCURVE",
"303 433 CURVE SMOOTH",
"381 431 OFFCURVE",
"434 398 OFFCURVE",
"453 339 CURVE",
"530 365 LINE",
"529 383 OFFCURVE",
"489 510 OFFCURVE",
"312 510 CURVE SMOOTH",
"167 510 OFFCURVE",
"69 451 OFFCURVE",
"55 353 CURVE SMOOTH",
"37 223 OFFCURVE",
"179 210 OFFCURVE",
"272 198 CURVE SMOOTH",
"373 186 OFFCURVE",
"410 166 OFFCURVE",
"405 130 CURVE SMOOTH",
"399 86 OFFCURVE",
"339 56 OFFCURVE",
"255 57 CURVE SMOOTH",
"174 59 OFFCURVE",
"113 97 OFFCURVE",
"98 158 CURVE",
"15 130 LINE",
"36 35 OFFCURVE",
"121 -20 OFFCURVE",
"245 -20 CURVE SMOOTH"
);
}
);
width = 545;
}
);
unicode = 0073;
},
{
glyphname = germandbls;
lastChange = "2019-08-14 18:46:20 +0000";
layers = (
{
layerId = "DA405910-5117-420C-9605-F5A44EE03BDF";
paths = (
{
closed = 1;
nodes = (
"493 441 OFFCURVE",
"433 426 OFFCURVE",
"426 374 CURVE SMOOTH",
"419 322 OFFCURVE",
"468 310 OFFCURVE",
"524 293 CURVE SMOOTH",
"597 270 OFFCURVE",
"682 236 OFFCURVE",
"667 131 CURVE SMOOTH",
"655 46 OFFCURVE",
"567 -20 OFFCURVE",
"447 -20 CURVE SMOOTH",
"312 -20 OFFCURVE",
"266 42 OFFCURVE",
"251 93 CURVE",
"308 115 LINE",
"321 75 OFFCURVE",
"364 35 OFFCURVE",
"456 35 CURVE SMOOTH",
"542 35 OFFCURVE",
"601 80 OFFCURVE",
"608 131 CURVE SMOOTH",
"615 182 OFFCURVE",
"587 217 OFFCURVE",
"516 238 CURVE SMOOTH",
"438 261 OFFCURVE",
"353 283 OFFCURVE",
"366 375 CURVE SMOOTH",
"378 459 OFFCURVE",
"458 491 OFFCURVE",
"597 491 CURVE",
"604 541 LINE",
"614 617 OFFCURVE",
"545 650 OFFCURVE",
"454 650 CURVE SMOOTH",
"359 650 OFFCURVE",
"275 617 OFFCURVE",
"265 541 CURVE SMOOTH",
"188 0 LINE",
"124 0 LINE",
"185 433 LINE",
"74 433 LINE",
"83 491 LINE",
"194 491 LINE",
"201 541 LINE",
"217 661 OFFCURVE",
"330 708 OFFCURVE",
"462 708 CURVE SMOOTH",
"568 708 OFFCURVE",
"682 666 OFFCURVE",
"665 541 CURVE",
"650 441 LINE",
"594 441 LINE"
);
}
);
width = 727;
},
{
layerId = "37B2A381-2B9F-4DE4-98E5-835D13A27EF0";
paths = (
{
closed = 1;
nodes = (
"561 -20 OFFCURVE",
"655 46 OFFCURVE",
"668 138 CURVE SMOOTH",
"683 243 OFFCURVE",
"594 279 OFFCURVE",
"522 302 CURVE SMOOTH",
"468 319 OFFCURVE",
"428 325 OFFCURVE",
"434 366 CURVE SMOOTH",
"439 403 OFFCURVE",
"482 421 OFFCURVE",
"585 421 CURVE SMOOTH",
"650 421 LINE",
"666 535 LINE SMOOTH",
"681 642 OFFCURVE",
"600 708 OFFCURVE",
"460 708 CURVE SMOOTH",
"307 708 OFFCURVE",
"209 645 OFFCURVE",
"194 535 CURVE SMOOTH",
"188 491 LINE",
"81 491 LINE",
"69 412 LINE",
"176 412 LINE",
"118 0 LINE",
"203 0 LINE",
"279 535 LINE SMOOTH",
"287 593 OFFCURVE",
"350 629 OFFCURVE",
"449 629 CURVE SMOOTH",
"543 629 OFFCURVE",
"592 594 OFFCURVE",
"584 535 CURVE SMOOTH",
"578 491 LINE",
"434 491 OFFCURVE",
"365 450 OFFCURVE",
"353 367 CURVE SMOOTH",
"339 269 OFFCURVE",
"430 248 OFFCURVE",
"505 226 CURVE SMOOTH",
"569 207 OFFCURVE",
"594 182 OFFCURVE",
"588 138 CURVE SMOOTH",
"581 91 OFFCURVE",
"525 56 OFFCURVE",
"454 56 CURVE SMOOTH",
"379 56 OFFCURVE",
"334 83 OFFCURVE",
"318 137 CURVE",
"240 107 LINE",
"260 24 OFFCURVE",
"330 -20 OFFCURVE",
"442 -20 CURVE SMOOTH"
);
}
);
width = 727;
}
);
unicode = 00DF;
},
{
glyphname = t;
lastChange = "2019-08-14 18:46:20 +0000";
layers = (
{
anchors = (
{
name = bottom;
position = "{196, 0}";
},
{
name = center;
position = "{217, 246}";
},
{
name = top;
position = "{235, 672}";
},
{
name = topright;
position = "{449, 491}";
}
);
layerId = "DA405910-5117-420C-9605-F5A44EE03BDF";
paths = (
{
closed = 1;
nodes = (
"368 -9 LINE",
"376 47 LINE",
"260 47 LINE SMOOTH",
"223 47 OFFCURVE",
"204 56 OFFCURVE",
"195 68 CURVE SMOOTH",
"185 81 OFFCURVE",
"185 91 OFFCURVE",
"193 144 CURVE SMOOTH",
"233 433 LINE",
"430 433 LINE",
"439 491 LINE",
"242 491 LINE",
"270 693 LINE",
"206 693 LINE",
"178 491 LINE",
"45 491 LINE",
"36 433 LINE",
"169 433 LINE",
"124 108 LINE SMOOTH",
"118 65 OFFCURVE",
"126 43 OFFCURVE",
"146 22 CURVE SMOOTH",
"166 1 OFFCURVE",
"198 -9 OFFCURVE",
"253 -9 CURVE SMOOTH"
);
}
);
width = 439;
},
{
anchors = (
{
name = bottom;
position = "{203, 0}";
},
{
name = center;
position = "{217, 246}";
},
{
name = top;
position = "{235, 672}";
},
{
name = topright;
position = "{444, 491}";
}
);
layerId = "37B2A381-2B9F-4DE4-98E5-835D13A27EF0";
paths = (
{
closed = 1;
nodes = (
"373 -9 LINE",
"384 68 LINE",
"260 68 LINE SMOOTH",
"232 68 OFFCURVE",
"214 74 OFFCURVE",
"205 85 CURVE SMOOTH",
"199 94 OFFCURVE",
"199 100 OFFCURVE",
"206 151 CURVE SMOOTH",
"242 411 LINE",
"432 411 LINE",
"444 491 LINE",
"254 491 LINE",
"282 693 LINE",
"197 693 LINE",
"169 491 LINE",
"40 491 LINE",
"28 411 LINE",
"157 411 LINE",
"116 116 LINE SMOOTH",
"110 74 OFFCURVE",
"116 48 OFFCURVE",
"139 24 CURVE SMOOTH",
"161 1 OFFCURVE",
"195 -9 OFFCURVE",
"250 -9 CURVE SMOOTH"
);
}
);
width = 439;
}
);
unicode = 0074;
},
{
glyphname = tbar;
lastChange = "2019-08-14 18:46:20 +0000";
layers = (
{
layerId = "DA405910-5117-420C-9605-F5A44EE03BDF";
paths = (
{
closed = 1;
nodes = (
"373 -9 LINE",
"381 47 LINE",
"265 47 LINE SMOOTH",
"228 47 OFFCURVE",
"209 56 OFFCURVE",
"200 68 CURVE SMOOTH",
"190 81 OFFCURVE",
"190 91 OFFCURVE",
"198 144 CURVE SMOOTH",
"238 433 LINE",
"435 433 LINE",
"444 491 LINE",
"247 491 LINE",
"275 693 LINE",
"211 693 LINE",
"183 491 LINE",
"50 491 LINE",
"41 433 LINE",
"174 433 LINE",
"129 108 LINE SMOOTH",
"123 65 OFFCURVE",
"131 43 OFFCURVE",
"151 22 CURVE SMOOTH",
"171 1 OFFCURVE",
"203 -9 OFFCURVE",
"258 -9 CURVE SMOOTH"
);
},
{
closed = 1;
nodes = (
"344 270 LINE",
"352 324 LINE",
"78 324 LINE",
"70 270 LINE"
);
}
);
width = 444;
},
{
layerId = "37B2A381-2B9F-4DE4-98E5-835D13A27EF0";
paths = (
{
closed = 1;
nodes = (
"378 -9 LINE",
"389 68 LINE",
"265 68 LINE SMOOTH",
"237 68 OFFCURVE",
"219 74 OFFCURVE",
"210 85 CURVE SMOOTH",
"204 94 OFFCURVE",
"204 100 OFFCURVE",
"211 151 CURVE SMOOTH",
"247 411 LINE",
"437 411 LINE",
"449 491 LINE",
"259 491 LINE",
"287 693 LINE",
"202 693 LINE",
"174 491 LINE",
"45 491 LINE",
"33 411 LINE",
"162 411 LINE",
"121 116 LINE SMOOTH",
"115 74 OFFCURVE",
"121 48 OFFCURVE",
"144 24 CURVE SMOOTH",
"166 1 OFFCURVE",
"200 -9 OFFCURVE",
"255 -9 CURVE SMOOTH"
);
},
{
closed = 1;
nodes = (
"353 270 LINE",
"363 336 LINE",
"71 336 LINE",
"61 270 LINE"
);
}
);
width = 444;
}
);
unicode = 0167;
},
{
glyphname = u;
lastChange = "2019-08-14 18:46:20 +0000";
layers = (
{
anchors = (
{
name = bottom;
position = "{284, 0}";
},
{
name = horn;
position = "{584, 327}";
},
{
name = ogonek;
position = "{536, 10}";
},
{
name = top;
position = "{354, 491}";
},
{
name = topright;
position = "{647, 491}";
}
);
layerId = "DA405910-5117-420C-9605-F5A44EE03BDF";
paths = (
{
closed = 1;
nodes = (
"559 491 LINE",
"521 222 LINE SMOOTH",
"506 120 OFFCURVE",
"421 36 OFFCURVE",
"287 36 CURVE SMOOTH",
"192 36 OFFCURVE",
"118 69 OFFCURVE",
"138 212 CURVE SMOOTH",
"178 491 LINE",
"113 491 LINE",
"72 203 LINE SMOOTH",
"47 25 OFFCURVE",
"157 -19 OFFCURVE",
"272 -19 CURVE SMOOTH",
"385 -19 OFFCURVE",
"453 22 OFFCURVE",
"500 77 CURVE",
"489 0 LINE",
"553 0 LINE",
"623 491 LINE"
);
}
);
width = 652;
},
{
anchors = (
{
name = bottom;
position = "{294, 0}";
},
{
name = horn;
position = "{584, 327}";
},
{
name = ogonek;
position = "{536, 10}";
},
{
name = top;
position = "{364, 491}";
},
{
name = topright;
position = "{647, 491}";
}
);
layerId = "37B2A381-2B9F-4DE4-98E5-835D13A27EF0";
paths = (
{
closed = 1;
nodes = (
"539 491 LINE",
"501 223 LINE SMOOTH",
"487 123 OFFCURVE",
"402 56 OFFCURVE",
"290 56 CURVE SMOOTH",
"183 56 OFFCURVE",
"143 104 OFFCURVE",
"158 213 CURVE SMOOTH",
"198 491 LINE",
"113 491 LINE",
"72 205 LINE SMOOTH",
"52 59 OFFCURVE",
"122 -20 OFFCURVE",
"273 -20 CURVE SMOOTH",
"356 -20 OFFCURVE",
"423 4 OFFCURVE",
"477 53 CURVE",
"469 0 LINE",
"553 0 LINE",
"623 491 LINE"
);
}
);
width = 651;
}
);
unicode = 0075;
},
{
glyphname = v;
lastChange = "2019-08-14 18:46:20 +0000";
layers = (
{
anchors = (
{
name = bottom;
position = "{237, 0}";
},
{
name = top;
position = "{307, 491}";
}
);
layerId = "DA405910-5117-420C-9605-F5A44EE03BDF";
paths = (
{
closed = 1;
nodes = (
"269 0 LINE",
"570 491 LINE",
"500 491 LINE",
"247 71 LINE",
"113 491 LINE",
"43 491 LINE",
"204 0 LINE"
);
}
);
width = 543;
},
{
anchors = (
{
name = bottom;
position = "{237, 0}";
},
{
name = top;
position = "{307, 491}";
}
);
layerId = "37B2A381-2B9F-4DE4-98E5-835D13A27EF0";
paths = (
{
closed = 1;
nodes = (
"275 0 LINE",
"576 491 LINE",
"484 491 LINE",
"252 106 LINE",
"129 491 LINE",
"37 491 LINE",
"198 0 LINE"
);
}
);
width = 543;
}
);
unicode = 0076;
},
{
glyphname = w;
lastChange = "2019-08-14 18:46:20 +0000";
layers = (
{
anchors = (
{
name = bottom;
position = "{405, 0}";
},
{
name = top;
position = "{475, 491}";
}
);
layerId = "DA405910-5117-420C-9605-F5A44EE03BDF";
paths = (
{
closed = 1;
nodes = (
"234 0 LINE",
"449 306 LINE",
"577 0 LINE",
"636 0 LINE",
"906 491 LINE",
"836 491 LINE",
"612 76 LINE",
"464 418 LINE",
"220 76 LINE",
"113 491 LINE",
"43 491 LINE",
"175 0 LINE"
);
}
);
width = 879;
},
{
anchors = (
{
name = bottom;
position = "{405, 0}";
},
{
name = top;
position = "{475, 491}";
}
);
layerId = "37B2A381-2B9F-4DE4-98E5-835D13A27EF0";
paths = (
{
closed = 1;
nodes = (
"249 0 LINE",
"445 280 LINE",
"562 0 LINE",
"633 0 LINE",
"903 491 LINE",
"811 491 LINE",
"606 110 LINE",
"466 433 LINE",
"236 110 LINE",
"138 491 LINE",
"46 491 LINE",
"178 0 LINE"
);
}
);
width = 879;
}
);
unicode = 0077;
},
{
glyphname = x;
lastChange = "2019-08-14 18:46:20 +0000";
layers = (
{
anchors = (
{
name = bottom;
position = "{264, 0}";
},
{
name = top;
position = "{334, 491}";
}
);
layerId = "DA405910-5117-420C-9605-F5A44EE03BDF";
paths = (
{
closed = 1;
nodes = (
"59 0 LINE",
"293 205 LINE",
"469 0 LINE",
"555 0 LINE",
"342 248 LINE",
"620 491 LINE",
"534 491 LINE",
"305 291 LINE",
"134 491 LINE",
"48 491 LINE",
"256 248 LINE",
"-27 0 LINE"
);
}
);
width = 598;
},
{
anchors = (
{
name = bottom;
position = "{264, 0}";
},
{
name = top;
position = "{334, 491}";
}
);
layerId = "37B2A381-2B9F-4DE4-98E5-835D13A27EF0";
paths = (
{
closed = 1;
nodes = (
"73 0 LINE",
"291 191 LINE",
"455 0 LINE",
"569 0 LINE",
"356 248 LINE",
"634 491 LINE",
"520 491 LINE",
"307 305 LINE",
"148 491 LINE",
"34 491 LINE",
"242 248 LINE",
"-41 0 LINE"
);
}
);
width = 598;
}
);
unicode = 0078;
},
{
glyphname = y;
lastChange = "2019-08-14 18:46:20 +0000";
layers = (
{
anchors = (
{
name = bottom;
position = "{264, -185}";
},
{
name = top;
position = "{340, 491}";
}
);
layerId = "DA405910-5117-420C-9605-F5A44EE03BDF";
paths = (
{
closed = 1;
nodes = (
"-19 -202 OFFCURVE",
"55 -202 OFFCURVE",
"109 -201 CURVE",
"194 -201 OFFCURVE",
"240 -161 OFFCURVE",
"333 0 CURVE",
"640 491 LINE",
"568 491 LINE",
"301 59 LINE",
"113 491 LINE",
"39 491 LINE",
"253 0 LINE",
"201 -105 OFFCURVE",
"155 -146 OFFCURVE",
"93 -146 CURVE SMOOTH",
"-11 -146 LINE",
"-19 -202 LINE"
);
}
);
width = 613;
},
{
anchors = (
{
name = bottom;
position = "{264, -185}";
},
{
name = top;
position = "{340, 491}";
}
);
layerId = "37B2A381-2B9F-4DE4-98E5-835D13A27EF0";
paths = (
{
closed = 1;
nodes = (
"15 -202 OFFCURVE",
"72 -202 OFFCURVE",
"114 -201 CURVE SMOOTH",
"201 -201 OFFCURVE",
"250 -158 OFFCURVE",
"341 0 CURVE",
"648 491 LINE",
"553 491 LINE",
"303 87 LINE",
"127 491 LINE",
"29 491 LINE",
"241 0 LINE",
"193 -93 OFFCURVE",
"155 -125 OFFCURVE",
"101 -125 CURVE SMOOTH",
"-11 -125 LINE",
"-22 -202 LINE"
);
}
);
width = 613;
}
);
unicode = 0079;
},
{
glyphname = z;
lastChange = "2019-08-14 18:46:20 +0000";
layers = (
{
anchors = (
{
name = bottom;
position = "{268, 0}";
},
{
name = center;
position = "{303, 246}";
},
{
name = top;
position = "{338, 491}";
}
);
layerId = "DA405910-5117-420C-9605-F5A44EE03BDF";
paths = (
{
closed = 1;
nodes = (
"522 0 LINE",
"530 56 LINE",
"110 56 LINE",
"587 435 LINE",
"595 491 LINE",
"81 491 LINE",
"73 435 LINE",
"496 435 LINE",
"19 56 LINE",
"11 0 LINE"
);
}
);
width = 606;
},
{
anchors = (
{
name = bottom;
position = "{270, 11}";
},
{
name = center;
position = "{303, 246}";
},
{
name = top;
position = "{336, 480}";
}
);
layerId = "37B2A381-2B9F-4DE4-98E5-835D13A27EF0";
paths = (
{
closed = 1;
nodes = (
"522 0 LINE",
"533 76 LINE",
"151 76 LINE",
"584 421 LINE",
"594 491 LINE",
"82 491 LINE",
"71 415 LINE",
"455 415 LINE",
"22 70 LINE",
"12 0 LINE"
);
}
);
width = 606;
}
);
unicode = 007A;
},
{
glyphname = zero;
lastChange = "2019-08-14 18:46:20 +0000";
layers = (
{
layerId = "DA405910-5117-420C-9605-F5A44EE03BDF";
paths = (
{
closed = 1;
nodes = (
"477 -19 OFFCURVE",
"601 115 OFFCURVE",
"633 343 CURVE SMOOTH",
"665 570 OFFCURVE",
"578 704 OFFCURVE",
"400 704 CURVE SMOOTH",
"223 704 OFFCURVE",
"101 570 OFFCURVE",
"69 343 CURVE SMOOTH",
"37 115 OFFCURVE",
"122 -19 OFFCURVE",
"299 -19 CURVE SMOOTH"
);
},
{
closed = 1;
nodes = (
"178 44 OFFCURVE",
"110 158 OFFCURVE",
"135 344 CURVE SMOOTH",
"162 527 OFFCURVE",
"262 641 OFFCURVE",
"393 641 CURVE SMOOTH",
"524 641 OFFCURVE",
"592 527 OFFCURVE",
"567 344 CURVE SMOOTH",
"540 158 OFFCURVE",
"440 44 OFFCURVE",
"309 44 CURVE SMOOTH"
);
}
);
width = 674;
},
{
layerId = "37B2A381-2B9F-4DE4-98E5-835D13A27EF0";
paths = (
{
closed = 1;
nodes = (
"478 -19 OFFCURVE",
"604 116 OFFCURVE",
"636 343 CURVE SMOOTH",
"667 569 OFFCURVE",
"579 704 OFFCURVE",
"400 704 CURVE SMOOTH",
"222 704 OFFCURVE",
"97 569 OFFCURVE",
"66 343 CURVE SMOOTH",
"34 116 OFFCURVE",
"121 -19 OFFCURVE",
"299 -19 CURVE SMOOTH"
);
},
{
closed = 1;
nodes = (
"191 65 OFFCURVE",
"130 171 OFFCURVE",
"154 344 CURVE",
"178 514 OFFCURVE",
"270 620 OFFCURVE",
"390 620 CURVE SMOOTH",
"510 620 OFFCURVE",
"572 514 OFFCURVE",
"548 344 CURVE SMOOTH",
"524 171 OFFCURVE",
"433 65 OFFCURVE",
"312 65 CURVE SMOOTH"
);
}
);
width = 674;
}
);
unicode = 0030;
},
{
glyphname = one;
lastChange = "2019-08-14 18:46:20 +0000";
layers = (
{
layerId = "DA405910-5117-420C-9605-F5A44EE03BDF";
paths = (
{
closed = 1;
nodes = (
"79 510 LINE",
"170 510 OFFCURVE",
"255 527 OFFCURVE",
"295 565 CURVE",
"215 0 LINE",
"279 0 LINE",
"377 693 LINE",
"317 693 LINE",
"284 627 OFFCURVE",
"211 570 OFFCURVE",
"88 570 CURVE"
);
},
{
closed = 1;
nodes = (
"448 0 LINE",
"458 65 LINE",
"58 65 LINE",
"48 0 LINE"
);
}
);
width = 507;
},
{
layerId = "37B2A381-2B9F-4DE4-98E5-835D13A27EF0";
paths = (
{
closed = 1;
nodes = (
"73 493 LINE",
"161 492 OFFCURVE",
"235 506 OFFCURVE",
"279 533 CURVE",
"204 0 LINE",
"289 0 LINE",
"387 693 LINE",
"309 693 LINE",
"273 614 OFFCURVE",
"192 571 OFFCURVE",
"84 574 CURVE"
);
},
{
closed = 1;
nodes = (
"452 0 LINE",
"465 86 LINE",
"55 86 LINE",
"42 0 LINE"
);
}
);
width = 507;
}
);
unicode = 0031;
},
{
glyphname = two;
lastChange = "2019-08-14 18:46:20 +0000";
layers = (
{
background = {
paths = (
{
closed = 1;
nodes = (
"102 510 LINE",
"124 578 OFFCURVE",
"181 647 OFFCURVE",
"313 647 CURVE SMOOTH",
"451 647 OFFCURVE",
"503 573 OFFCURVE",
"503 519 CURVE SMOOTH",
"503 461 OFFCURVE",
"449 417 OFFCURVE",
"350 323 CURVE SMOOTH",
"79 65 LINE",
"79 0 LINE",
"582 0 LINE",
"582 65 LINE",
"177 65 LINE",
"406 286 LINE SMOOTH",
"501 377 OFFCURVE",
"575 431 OFFCURVE",
"575 519 CURVE SMOOTH",
"575 603 OFFCURVE",
"498 711 OFFCURVE",
"313 711 CURVE SMOOTH",
"151 711 OFFCURVE",
"63 628 OFFCURVE",
"42 532 CURVE"
);
}
);
};
layerId = "DA405910-5117-420C-9605-F5A44EE03BDF";
paths = (
{
closed = 1;
nodes = (
"129 469 LINE",
"158 580 OFFCURVE",
"237 647 OFFCURVE",
"369 647 CURVE SMOOTH",
"507 647 OFFCURVE",
"549 573 OFFCURVE",
"541 519 CURVE SMOOTH",
"533 461 OFFCURVE",
"473 417 OFFCURVE",
"361 323 CURVE SMOOTH",
"54 65 LINE",
"44 0 LINE",
"547 0 LINE",
"557 65 LINE",
"152 65 LINE",
"412 286 LINE SMOOTH",
"519 377 OFFCURVE",
"601 431 OFFCURVE",
"613 519 CURVE SMOOTH",
"625 603 OFFCURVE",
"563 711 OFFCURVE",
"378 711 CURVE SMOOTH",
"216 711 OFFCURVE",
"102 631 OFFCURVE",
"69 491 CURVE"
);
}
);
width = 637;
},
{
background = {
paths = (
{
closed = 1;
nodes = (
"102 510 LINE",
"124 578 OFFCURVE",
"181 647 OFFCURVE",
"313 647 CURVE SMOOTH",
"451 647 OFFCURVE",
"503 573 OFFCURVE",
"503 519 CURVE SMOOTH",
"503 461 OFFCURVE",
"449 417 OFFCURVE",
"350 323 CURVE SMOOTH",
"79 65 LINE",
"79 0 LINE",
"582 0 LINE",
"582 65 LINE",
"177 65 LINE",
"406 286 LINE SMOOTH",
"501 377 OFFCURVE",
"575 431 OFFCURVE",
"575 519 CURVE SMOOTH",
"575 603 OFFCURVE",
"498 711 OFFCURVE",
"313 711 CURVE SMOOTH",
"151 711 OFFCURVE",
"63 628 OFFCURVE",
"42 532 CURVE"
);
}
);
};
layerId = "37B2A381-2B9F-4DE4-98E5-835D13A27EF0";
paths = (
{
closed = 1;
nodes = (
"144 450 LINE",
"168 565 OFFCURVE",
"244 626 OFFCURVE",
"366 626 CURVE SMOOTH",
"466 626 OFFCURVE",
"532 579 OFFCURVE",
"523 514 CURVE SMOOTH",
"516 463 OFFCURVE",
"462 424 OFFCURVE",
"353 332 CURVE SMOOTH",
"52 79 LINE",
"40 0 LINE",
"550 0 LINE",
"563 86 LINE",
"188 86 LINE",
"416 280 LINE SMOOTH",
"519 367 OFFCURVE",
"603 423 OFFCURVE",
"616 514 CURVE SMOOTH",
"632 627 OFFCURVE",
"531 711 OFFCURVE",
"378 711 CURVE SMOOTH",
"211 711 OFFCURVE",
"94 625 OFFCURVE",
"64 479 CURVE"
);
}
);
width = 637;
}
);
unicode = 0032;
},
{
glyphname = three;
lastChange = "2019-08-14 18:46:20 +0000";
layers = (
{
layerId = "DA405910-5117-420C-9605-F5A44EE03BDF";
paths = (
{
closed = 1;
nodes = (
"20 70 OFFCURVE",
"102 -20 OFFCURVE",
"264 -20 CURVE SMOOTH",
"443 -20 OFFCURVE",
"566 86 OFFCURVE",
"584 216 CURVE SMOOTH",
"600 332 OFFCURVE",
"524 417 OFFCURVE",
"374 433 CURVE",
"613 629 LINE",
"622 693 LINE",
"139 693 LINE",
"130 629 LINE",
"518 629 LINE",
"285 434 LINE",
"278 378 LINE",
"286 378 OFFCURVE",
"307 378 OFFCURVE",
"320 378 CURVE SMOOTH",
"443 378 OFFCURVE",
"525 318 OFFCURVE",
"511 216 CURVE SMOOTH",
"498 126 OFFCURVE",
"413 45 OFFCURVE",
"273 45 CURVE SMOOTH",
"142 45 OFFCURVE",
"86 129 OFFCURVE",
"68 192 CURVE",
"3 169 LINE"
);
}
);
width = 643;
},
{
layerId = "37B2A381-2B9F-4DE4-98E5-835D13A27EF0";
paths = (
{
closed = 1;
nodes = (
"17 57 OFFCURVE",
"118 -20 OFFCURVE",
"264 -20 CURVE SMOOTH",
"434 -20 OFFCURVE",
"567 80 OFFCURVE",
"586 220 CURVE SMOOTH",
"602 334 OFFCURVE",
"531 416 OFFCURVE",
"399 438 CURVE",
"614 614 LINE",
"625 693 LINE",
"135 693 LINE",
"123 608 LINE",
"481 608 LINE",
"276 436 LINE",
"266 365 LINE",
"284 365 OFFCURVE",
"306 365 OFFCURVE",
"318 365 CURVE SMOOTH",
"436 365 OFFCURVE",
"505 307 OFFCURVE",
"492 220 CURVE SMOOTH",
"480 129 OFFCURVE",
"393 66 OFFCURVE",
"276 66 CURVE SMOOTH",
"177 66 OFFCURVE",
"106 121 OFFCURVE",
"85 212 CURVE",
"0 182 LINE"
);
}
);
width = 643;
}
);
unicode = 0033;
},
{
glyphname = four;
lastChange = "2019-08-14 18:46:20 +0000";
layers = (
{
layerId = "DA405910-5117-420C-9605-F5A44EE03BDF";
paths = (
{
closed = 1;
nodes = (
"397 0 LINE",
"462 0 LINE",
"532 491 LINE",
"467 491 LINE"
);
},
{
closed = 1;
nodes = (
"29 184 LINE",
"669 184 LINE",
"678 246 LINE",
"123 246 LINE",
"571 693 LINE",
"485 693 LINE",
"38 246 LINE"
);
}
);
width = 703;
},
{
layerId = "37B2A381-2B9F-4DE4-98E5-835D13A27EF0";
paths = (
{
closed = 1;
nodes = (
"383 0 LINE",
"469 0 LINE",
"539 491 LINE",
"453 491 LINE"
);
},
{
closed = 1;
nodes = (
"28 178 LINE",
"670 178 LINE",
"681 261 LINE",
"158 261 LINE",
"591 693 LINE",
"478 693 LINE",
"38 254 LINE"
);
}
);
width = 703;
}
);
unicode = 0034;
},
{
glyphname = five;
lastChange = "2019-08-14 18:46:20 +0000";
layers = (
{
background = {
paths = (
{
closed = 1;
nodes = (
"95 61 OFFCURVE",
"186 -21 OFFCURVE",
"339 -21 CURVE SMOOTH",
"514 -21 OFFCURVE",
"622 75 OFFCURVE",
"622 208 CURVE SMOOTH",
"622 357 OFFCURVE",
"519 450 OFFCURVE",
"339 450 CURVE SMOOTH",
"267 450 OFFCURVE",
"187 423 OFFCURVE",
"156 396 CURVE",
"156 630 LINE",
"591 629 LINE",
"591 693 LINE",
"95 693 LINE",
"95 324 LINE",
"156 324 LINE",
"195 362 OFFCURVE",
"257 387 OFFCURVE",
"339 387 CURVE SMOOTH",
"458 387 OFFCURVE",
"551 325 OFFCURVE",
"549 208 CURVE SMOOTH",
"547 100 OFFCURVE",
"448 43 OFFCURVE",
"339 43 CURVE SMOOTH",
"234 43 OFFCURVE",
"160 97 OFFCURVE",
"126 198 CURVE",
"62 174 LINE"
);
}
);
};
layerId = "DA405910-5117-420C-9605-F5A44EE03BDF";
paths = (
{
closed = 1;
nodes = (
"69 61 OFFCURVE",
"149 -21 OFFCURVE",
"302 -21 CURVE SMOOTH",
"477 -21 OFFCURVE",
"598 75 OFFCURVE",
"617 208 CURVE SMOOTH",
"638 357 OFFCURVE",
"548 450 OFFCURVE",
"368 450 CURVE SMOOTH",
"296 450 OFFCURVE",
"212 423 OFFCURVE",
"177 396 CURVE",
"210 630 LINE",
"645 629 LINE",
"654 693 LINE",
"158 693 LINE",
"106 324 LINE",
"167 324 LINE",
"211 362 OFFCURVE",
"277 387 OFFCURVE",
"359 387 CURVE SMOOTH",
"478 387 OFFCURVE",
"562 325 OFFCURVE",
"544 208 CURVE SMOOTH",
"527 100 OFFCURVE",
"420 43 OFFCURVE",
"311 43 CURVE SMOOTH",
"206 43 OFFCURVE",
"139 97 OFFCURVE",
"119 198 CURVE",
"52 174 LINE"
);
}
);
width = 670;
},
{
background = {
paths = (
{
closed = 1;
nodes = (
"95 61 OFFCURVE",
"186 -21 OFFCURVE",
"339 -21 CURVE SMOOTH",
"514 -21 OFFCURVE",
"622 75 OFFCURVE",
"622 208 CURVE SMOOTH",
"622 357 OFFCURVE",
"519 450 OFFCURVE",
"339 450 CURVE SMOOTH",
"267 450 OFFCURVE",
"187 423 OFFCURVE",
"156 396 CURVE",
"156 630 LINE",
"591 629 LINE",
"591 693 LINE",
"95 693 LINE",
"95 324 LINE",
"156 324 LINE",
"195 362 OFFCURVE",
"257 387 OFFCURVE",
"339 387 CURVE SMOOTH",
"458 387 OFFCURVE",
"551 325 OFFCURVE",
"549 208 CURVE SMOOTH",
"547 100 OFFCURVE",
"448 43 OFFCURVE",
"339 43 CURVE SMOOTH",
"234 43 OFFCURVE",
"160 97 OFFCURVE",
"126 198 CURVE",
"62 174 LINE"
);
}
);
};
layerId = "37B2A381-2B9F-4DE4-98E5-835D13A27EF0";
paths = (
{
closed = 1;
nodes = (
"70 49 OFFCURVE",
"161 -21 OFFCURVE",
"302 -21 CURVE SMOOTH",
"472 -21 OFFCURVE",
"600 73 OFFCURVE",
"619 212 CURVE SMOOTH",
"641 365 OFFCURVE",
"547 458 OFFCURVE",
"369 458 CURVE SMOOTH",
"312 458 OFFCURVE",
"241 440 OFFCURVE",
"198 416 CURVE",
"225 609 LINE",
"645 608 LINE",
"657 693 LINE",
"154 693 LINE",
"100 313 LINE",
"176 313 LINE",
"220 352 OFFCURVE",
"284 374 OFFCURVE",
"357 374 CURVE SMOOTH",
"476 374 OFFCURVE",
"541 311 OFFCURVE",
"526 212 CURVE SMOOTH",
"512 124 OFFCURVE",
"425 64 OFFCURVE",
"313 64 CURVE SMOOTH",
"217 64 OFFCURVE",
"157 111 OFFCURVE",
"138 203 CURVE",
"50 173 LINE"
);
}
);
width = 670;
}
);
unicode = 0035;
},
{
glyphname = six;
lastChange = "2019-08-14 18:46:20 +0000";
layers = (
{
layerId = "DA405910-5117-420C-9605-F5A44EE03BDF";
paths = (
{
closed = 1;
nodes = (
"34 81 OFFCURVE",
"128 -20 OFFCURVE",
"297 -20 CURVE SMOOTH",
"471 -20 OFFCURVE",
"591 81 OFFCURVE",
"611 214 CURVE SMOOTH",
"630 347 OFFCURVE",
"536 447 OFFCURVE",
"362 447 CURVE SMOOTH",
"327 447 OFFCURVE",
"280 436 OFFCURVE",
"264 428 CURVE",
"515 693 LINE",
"423 693 LINE",
"190 443 LINE",
"110 359 OFFCURVE",
"60 286 OFFCURVE",
"51 214 CURVE SMOOTH"
);
},
{
closed = 1;
nodes = (
"144 316 OFFCURVE",
"237 389 OFFCURVE",
"354 389 CURVE SMOOTH",
"478 389 OFFCURVE",
"550 320 OFFCURVE",
"533 214 CURVE SMOOTH",
"514 106 OFFCURVE",
"425 40 OFFCURVE",
"305 40 CURVE SMOOTH",
"183 40 OFFCURVE",
"112 106 OFFCURVE",
"129 214 CURVE SMOOTH"
);
}
);
width = 657;
},
{
layerId = "37B2A381-2B9F-4DE4-98E5-835D13A27EF0";
paths = (
{
closed = 1;
nodes = (
"31 77 OFFCURVE",
"133 -20 OFFCURVE",
"297 -20 CURVE SMOOTH",
"465 -20 OFFCURVE",
"592 77 OFFCURVE",
"613 218 CURVE SMOOTH",
"635 358 OFFCURVE",
"532 455 OFFCURVE",
"363 455 CURVE SMOOTH",
"346 455 OFFCURVE",
"323 452 OFFCURVE",
"302 448 CURVE",
"535 693 LINE",
"417 693 LINE",
"187 447 LINE SMOOTH",
"99 355 OFFCURVE",
"58 285 OFFCURVE",
"49 218 CURVE SMOOTH"
);
},
{
closed = 1;
nodes = (
"161 310 OFFCURVE",
"246 376 OFFCURVE",
"352 376 CURVE SMOOTH",
"467 376 OFFCURVE",
"531 313 OFFCURVE",
"515 218 CURVE SMOOTH",
"499 122 OFFCURVE",
"419 61 OFFCURVE",
"308 61 CURVE SMOOTH",
"194 61 OFFCURVE",
"133 122 OFFCURVE",
"147 218 CURVE SMOOTH"
);
}
);
width = 657;
}
);
unicode = 0036;
},
{
glyphname = seven;
lastChange = "2019-08-14 18:46:20 +0000";
layers = (
{
layerId = "DA405910-5117-420C-9605-F5A44EE03BDF";
paths = (
{
closed = 1;
nodes = (
"571 629 LINE",
"61 0 LINE",
"145 0 LINE",
"657 629 LINE",
"666 693 LINE",
"103 693 LINE",
"94 629 LINE"
);
}
);
width = 637;
},
{
layerId = "37B2A381-2B9F-4DE4-98E5-835D13A27EF0";
paths = (
{
closed = 1;
nodes = (
"540 608 LINE",
"47 0 LINE",
"156 0 LINE",
"657 616 LINE",
"668 693 LINE",
"101 693 LINE",
"89 608 LINE"
);
}
);
width = 637;
}
);
unicode = 0037;
},
{
glyphname = eight;
lastChange = "2019-08-14 18:46:20 +0000";
layers = (
{
layerId = "DA405910-5117-420C-9605-F5A44EE03BDF";
paths = (
{
closed = 1;
nodes = (
"478 -20 OFFCURVE",
"581 72 OFFCURVE",
"595 176 CURVE SMOOTH",
"606 250 OFFCURVE",
"570 306 OFFCURVE",
"495 339 CURVE",
"579 372 OFFCURVE",
"641 434 OFFCURVE",
"652 508 CURVE SMOOTH",
"669 628 OFFCURVE",
"580 711 OFFCURVE",
"400 711 CURVE SMOOTH",
"220 711 OFFCURVE",
"109 628 OFFCURVE",
"92 508 CURVE SMOOTH",
"81 434 OFFCURVE",
"128 372 OFFCURVE",
"201 339 CURVE",
"119 306 OFFCURVE",
"66 250 OFFCURVE",
"55 176 CURVE SMOOTH",
"40 68 OFFCURVE",
"118 -20 OFFCURVE",
"298 -20 CURVE SMOOTH"
);
},
{
closed = 1;
nodes = (
"190 40 OFFCURVE",
"109 90 OFFCURVE",
"121 177 CURVE SMOOTH",
"133 263 OFFCURVE",
"219 313 OFFCURVE",
"344 312 CURVE SMOOTH",
"469 311 OFFCURVE",
"544 261 OFFCURVE",
"529 177 CURVE SMOOTH",
"515 90 OFFCURVE",
"422 38 OFFCURVE",
"306 39 CURVE SMOOTH"
);
},
{
closed = 1;
nodes = (
"231 368 OFFCURVE",
"148 426 OFFCURVE",
"160 509 CURVE SMOOTH",
"172 592 OFFCURVE",
"271 651 OFFCURVE",
"392 651 CURVE SMOOTH",
"517 651 OFFCURVE",
"598 592 OFFCURVE",
"584 509 CURVE SMOOTH",
"570 426 OFFCURVE",
"472 368 OFFCURVE",
"352 368 CURVE SMOOTH"
);
}
);
width = 670;
},
{
layerId = "37B2A381-2B9F-4DE4-98E5-835D13A27EF0";
paths = (
{
closed = 1;
nodes = (
"462 -20 OFFCURVE",
"582 61 OFFCURVE",
"599 181 CURVE SMOOTH",
"608 249 OFFCURVE",
"580 304 OFFCURVE",
"518 339 CURVE",
"593 376 OFFCURVE",
"645 437 OFFCURVE",
"654 503 CURVE SMOOTH",
"672 631 OFFCURVE",
"573 711 OFFCURVE",
"400 711 CURVE SMOOTH",
"227 711 OFFCURVE",
"106 631 OFFCURVE",
"88 503 CURVE SMOOTH",
"79 437 OFFCURVE",
"113 376 OFFCURVE",
"179 339 CURVE",
"106 304 OFFCURVE",
"62 249 OFFCURVE",
"53 181 CURVE SMOOTH",
"36 59 OFFCURVE",
"132 -20 OFFCURVE",
"298 -20 CURVE SMOOTH"
);
},
{
closed = 1;
nodes = (
"196 61 OFFCURVE",
"130 110 OFFCURVE",
"140 182 CURVE SMOOTH",
"151 257 OFFCURVE",
"226 302 OFFCURVE",
"343 301 CURVE SMOOTH",
"461 301 OFFCURVE",
"524 255 OFFCURVE",
"512 183 CURVE SMOOTH",
"500 108 OFFCURVE",
"420 59 OFFCURVE",
"309 60 CURVE SMOOTH"
);
},
{
closed = 1;
nodes = (
"241 379 OFFCURVE",
"167 432 OFFCURVE",
"177 504 CURVE SMOOTH",
"187 576 OFFCURVE",
"277 630 OFFCURVE",
"389 630 CURVE SMOOTH",
"504 630 OFFCURVE",
"577 577 OFFCURVE",
"565 504 CURVE SMOOTH",
"553 432 OFFCURVE",
"465 379 OFFCURVE",
"354 379 CURVE SMOOTH"
);
}
);
width = 670;
}
);
unicode = 0038;
},
{
glyphname = nine;
lastChange = "2019-08-14 18:46:20 +0000";
layers = (
{
layerId = "DA405910-5117-420C-9605-F5A44EE03BDF";
paths = (
{
closed = 1;
nodes = (
"654 611 OFFCURVE",
"558 712 OFFCURVE",
"389 712 CURVE SMOOTH",
"215 712 OFFCURVE",
"94 611 OFFCURVE",
"75 478 CURVE SMOOTH",
"57 345 OFFCURVE",
"149 245 OFFCURVE",
"323 245 CURVE SMOOTH",
"358 245 OFFCURVE",
"405 256 OFFCURVE",
"422 264 CURVE",
"170 -1 LINE",
"262 -1 LINE",
"495 249 LINE",
"575 333 OFFCURVE",
"626 406 OFFCURVE",
"635 478 CURVE SMOOTH"
);
},
{
closed = 1;
nodes = (
"544 376 OFFCURVE",
"448 303 OFFCURVE",
"331 303 CURVE SMOOTH",
"207 303 OFFCURVE",
"135 372 OFFCURVE",
"153 478 CURVE SMOOTH",
"171 586 OFFCURVE",
"260 652 OFFCURVE",
"380 652 CURVE SMOOTH",
"502 652 OFFCURVE",
"573 586 OFFCURVE",
"557 478 CURVE SMOOTH"
);
}
);
width = 657;
},
{
layerId = "37B2A381-2B9F-4DE4-98E5-835D13A27EF0";
paths = (
{
closed = 1;
nodes = (
"658 613 OFFCURVE",
"554 712 OFFCURVE",
"389 712 CURVE SMOOTH",
"221 712 OFFCURVE",
"93 615 OFFCURVE",
"72 474 CURVE SMOOTH",
"53 333 OFFCURVE",
"154 237 OFFCURVE",
"322 237 CURVE SMOOTH",
"339 237 OFFCURVE",
"362 240 OFFCURVE",
"383 244 CURVE",
"150 0 LINE",
"268 0 LINE",
"498 245 LINE SMOOTH",
"585 338 OFFCURVE",
"628 407 OFFCURVE",
"637 474 CURVE"
);
},
{
closed = 1;
nodes = (
"527 383 OFFCURVE",
"441 316 OFFCURVE",
"333 316 CURVE SMOOTH",
"218 316 OFFCURVE",
"155 379 OFFCURVE",
"170 474 CURVE SMOOTH",
"187 570 OFFCURVE",
"266 631 OFFCURVE",
"377 631 CURVE SMOOTH",
"491 631 OFFCURVE",
"553 570 OFFCURVE",
"538 474 CURVE SMOOTH"
);
}
);
width = 657;
}
);
unicode = 0039;
},
{
glyphname = twoinferior;
lastChange = "2019-08-14 18:46:20 +0000";
layers = (
{
layerId = "DA405910-5117-420C-9605-F5A44EE03BDF";
paths = (
{
closed = 1;
nodes = (
"82 268 LINE",
"97 335 OFFCURVE",
"143 372 OFFCURVE",
"217 372 CURVE SMOOTH",
"293 372 OFFCURVE",
"316 332 OFFCURVE",
"312 302 CURVE SMOOTH",
"307 269 OFFCURVE",
"274 247 OFFCURVE",
"209 192 CURVE SMOOTH",
"32 42 LINE",
"26 0 LINE",
"323 0 LINE",
"330 45 LINE",
"102 45 LINE",
"244 166 LINE SMOOTH",
"305 218 OFFCURVE",
"353 248 OFFCURVE",
"361 302 CURVE SMOOTH",
"368 351 OFFCURVE",
"332 416 OFFCURVE",
"223 416 CURVE SMOOTH",
"128 416 OFFCURVE",
"59 367 OFFCURVE",
"39 283 CURVE"
);
}
);
width = 413;
},
{
layerId = "37B2A381-2B9F-4DE4-98E5-835D13A27EF0";
paths = (
{
closed = 1;
nodes = (
"96 250 LINE",
"108 318 OFFCURVE",
"145 352 OFFCURVE",
"214 352 CURVE SMOOTH",
"266 352 OFFCURVE",
"299 328 OFFCURVE",
"294 297 CURVE SMOOTH",
"291 271 OFFCURVE",
"263 254 OFFCURVE",
"202 201 CURVE SMOOTH",
"30 56 LINE",
"22 0 LINE",
"325 0 LINE",
"335 65 LINE",
"137 65 LINE",
"248 160 LINE SMOOTH",
"305 209 OFFCURVE",
"355 240 OFFCURVE",
"363 297 CURVE SMOOTH",
"373 365 OFFCURVE",
"313 416 OFFCURVE",
"223 416 CURVE SMOOTH",
"123 416 OFFCURVE",
"51 361 OFFCURVE",
"35 271 CURVE"
);
}
);
width = 412;
}
);
leftMetricsKey = two;
rightMetricsKey = two;
unicode = 2082;
},
{
glyphname = fourinferior;
lastChange = "2019-08-14 18:46:20 +0000";
layers = (
{
layerId = "DA405910-5117-420C-9605-F5A44EE03BDF";
paths = (
{
closed = 1;
nodes = (
"233 0 LINE",
"277 0 LINE",
"319 293 LINE",
"275 293 LINE"
);
},
{
closed = 1;
nodes = (
"19 107 LINE",
"398 107 LINE",
"404 150 LINE",
"87 150 LINE",
"346 409 LINE",
"286 409 LINE",
"24 147 LINE"
);
}
);
width = 442;
},
{
layerId = "37B2A381-2B9F-4DE4-98E5-835D13A27EF0";
paths = (
{
closed = 1;
nodes = (
"222 0 LINE",
"287 0 LINE",
"325 267 LINE",
"260 267 LINE"
);
},
{
closed = 1;
nodes = (
"17 101 LINE",
"398 101 LINE",
"407 164 LINE",
"121 164 LINE",
"365 409 LINE",
"279 409 LINE",
"24 154 LINE"
);
}
);
width = 442;
}
);
leftMetricsKey = four;
rightMetricsKey = four;
unicode = 2084;
},
{
glyphname = eightinferior;
lastChange = "2019-08-14 18:46:20 +0000";
layers = (
{
layerId = "DA405910-5117-420C-9605-F5A44EE03BDF";
paths = (
{
closed = 1;
nodes = (
"282 -5 OFFCURVE",
"353 41 OFFCURVE",
"363 113 CURVE SMOOTH",
"369 150 OFFCURVE",
"347 185 OFFCURVE",
"307 206 CURVE",
"356 229 OFFCURVE",
"391 265 OFFCURVE",
"396 305 CURVE SMOOTH",
"407 380 OFFCURVE",
"349 425 OFFCURVE",
"245 425 CURVE SMOOTH",
"144 425 OFFCURVE",
"74 380 OFFCURVE",
"63 305 CURVE SMOOTH",
"58 264 OFFCURVE",
"82 229 OFFCURVE",
"123 206 CURVE",
"77 185 OFFCURVE",
"48 151 OFFCURVE",
"42 113 CURVE SMOOTH",
"32 39 OFFCURVE",
"87 -5 OFFCURVE",
"185 -5 CURVE SMOOTH"
);
},
{
closed = 1;
nodes = (
"121 34 OFFCURVE",
"80 66 OFFCURVE",
"86 113 CURVE SMOOTH",
"93 159 OFFCURVE",
"141 188 OFFCURVE",
"212 188 CURVE SMOOTH",
"285 188 OFFCURVE",
"325 157 OFFCURVE",
"317 113 CURVE SMOOTH",
"309 66 OFFCURVE",
"258 34 OFFCURVE",
"190 34 CURVE SMOOTH"
);
},
{
closed = 1;
nodes = (
"148 225 OFFCURVE",
"102 260 OFFCURVE",
"108 305 CURVE SMOOTH",
"115 349 OFFCURVE",
"173 385 OFFCURVE",
"240 385 CURVE SMOOTH",
"311 385 OFFCURVE",
"358 349 OFFCURVE",
"348 305 CURVE SMOOTH",
"340 259 OFFCURVE",
"286 225 OFFCURVE",
"217 225 CURVE SMOOTH"
);
}
);
width = 443;
},
{
layerId = "37B2A381-2B9F-4DE4-98E5-835D13A27EF0";
paths = (
{
closed = 1;
nodes = (
"284 -5 OFFCURVE",
"357 44 OFFCURVE",
"367 118 CURVE SMOOTH",
"372 152 OFFCURVE",
"356 184 OFFCURVE",
"325 206 CURVE",
"367 231 OFFCURVE",
"394 265 OFFCURVE",
"399 300 CURVE SMOOTH",
"409 377 OFFCURVE",
"350 425 OFFCURVE",
"245 425 CURVE SMOOTH",
"142 425 OFFCURVE",
"70 377 OFFCURVE",
"60 300 CURVE SMOOTH",
"55 264 OFFCURVE",
"72 231 OFFCURVE",
"105 206 CURVE",
"68 184 OFFCURVE",
"45 153 OFFCURVE",
"40 118 CURVE SMOOTH",
"29 42 OFFCURVE",
"85 -5 OFFCURVE",
"185 -5 CURVE SMOOTH"
);
},
{
closed = 1;
nodes = (
"133 53 OFFCURVE",
"98 80 OFFCURVE",
"103 118 CURVE SMOOTH",
"108 156 OFFCURVE",
"149 179 OFFCURVE",
"211 179 CURVE SMOOTH",
"274 179 OFFCURVE",
"308 155 OFFCURVE",
"303 119 CURVE SMOOTH",
"296 80 OFFCURVE",
"252 53 OFFCURVE",
"193 53 CURVE SMOOTH"
);
},
{
closed = 1;
nodes = (
"160 235 OFFCURVE",
"118 263 OFFCURVE",
"124 300 CURVE SMOOTH",
"129 336 OFFCURVE",
"180 365 OFFCURVE",
"237 365 CURVE SMOOTH",
"297 365 OFFCURVE",
"339 336 OFFCURVE",
"332 301 CURVE SMOOTH",
"324 262 OFFCURVE",
"278 235 OFFCURVE",
"219 235 CURVE SMOOTH"
);
}
);
width = 443;
}
);
leftMetricsKey = eight;
rightMetricsKey = eight;
unicode = 2088;
},
{
glyphname = onesuperior;
lastChange = "2019-08-14 18:46:20 +0000";
layers = (
{
layerId = "DA405910-5117-420C-9605-F5A44EE03BDF";
paths = (
{
closed = 1;
nodes = (
"97 636 LINE",
"151 636 OFFCURVE",
"195 645 OFFCURVE",
"221 663 CURVE",
"175 341 LINE",
"220 341 LINE",
"278 750 LINE",
"237 750 LINE",
"215 703 OFFCURVE",
"167 678 OFFCURVE",
"103 679 CURVE"
);
},
{
closed = 1;
nodes = (
"318 341 LINE",
"325 386 LINE",
"86 386 LINE",
"79 341 LINE"
);
}
);
width = 329;
},
{
layerId = "37B2A381-2B9F-4DE4-98E5-835D13A27EF0";
paths = (
{
closed = 1;
nodes = (
"91 620 LINE",
"138 619 OFFCURVE",
"178 624 OFFCURVE",
"206 637 CURVE",
"164 341 LINE",
"229 341 LINE",
"287 750 LINE",
"229 750 LINE",
"211 703 OFFCURVE",
"165 679 OFFCURVE",
"99 683 CURVE"
);
},
{
closed = 1;
nodes = (
"322 341 LINE",
"332 406 LINE",
"84 406 LINE",
"74 341 LINE"
);
}
);
width = 329;
}
);
leftMetricsKey = one;
rightMetricsKey = one;
unicode = 00B9;
},
{
glyphname = twosuperior;
lastChange = "2019-08-14 18:46:20 +0000";
layers = (
{
layerId = "DA405910-5117-420C-9605-F5A44EE03BDF";
paths = (
{
closed = 1;
nodes = (
"129 609 LINE",
"144 676 OFFCURVE",
"191 713 OFFCURVE",
"265 713 CURVE SMOOTH",
"341 713 OFFCURVE",
"364 673 OFFCURVE",
"360 643 CURVE SMOOTH",
"355 610 OFFCURVE",
"322 588 OFFCURVE",
"257 533 CURVE SMOOTH",
"80 383 LINE",
"74 341 LINE",
"371 341 LINE",
"378 386 LINE",
"150 386 LINE",
"292 507 LINE SMOOTH",
"353 559 OFFCURVE",
"401 589 OFFCURVE",
"409 643 CURVE SMOOTH",
"416 692 OFFCURVE",
"380 757 OFFCURVE",
"271 757 CURVE SMOOTH",
"176 757 OFFCURVE",
"107 708 OFFCURVE",
"87 624 CURVE"
);
}
);
width = 413;
},
{
layerId = "37B2A381-2B9F-4DE4-98E5-835D13A27EF0";
paths = (
{
closed = 1;
nodes = (
"144 591 LINE",
"156 659 OFFCURVE",
"193 693 OFFCURVE",
"262 693 CURVE SMOOTH",
"314 693 OFFCURVE",
"347 669 OFFCURVE",
"342 638 CURVE SMOOTH",
"339 612 OFFCURVE",
"312 594 OFFCURVE",
"250 542 CURVE SMOOTH",
"78 397 LINE",
"70 341 LINE",
"373 341 LINE",
"383 406 LINE",
"185 406 LINE",
"296 501 LINE SMOOTH",
"353 550 OFFCURVE",
"403 581 OFFCURVE",
"411 638 CURVE SMOOTH",
"421 706 OFFCURVE",
"361 757 OFFCURVE",
"271 757 CURVE SMOOTH",
"171 757 OFFCURVE",
"99 702 OFFCURVE",
"83 612 CURVE"
);
}
);
width = 412;
}
);
leftMetricsKey = two;
rightMetricsKey = two;
unicode = 00B2;
},
{
glyphname = threesuperior;
lastChange = "2019-08-14 18:46:20 +0000";
layers = (
{
layerId = "DA405910-5117-420C-9605-F5A44EE03BDF";
paths = (
{
closed = 1;
nodes = (
"54 379 OFFCURVE",
"112 336 OFFCURVE",
"196 336 CURVE SMOOTH",
"293 336 OFFCURVE",
"371 394 OFFCURVE",
"382 475 CURVE SMOOTH",
"392 542 OFFCURVE",
"348 590 OFFCURVE",
"268 601 CURVE",
"398 705 LINE",
"404 750 LINE",
"121 750 LINE",
"115 705 LINE",
"329 705 LINE",
"204 600 LINE",
"199 563 LINE",
"208 563 OFFCURVE",
"219 563 OFFCURVE",
"228 563 CURVE SMOOTH",
"297 563 OFFCURVE",
"339 527 OFFCURVE",
"331 475 CURVE SMOOTH",
"324 420 OFFCURVE",
"271 381 OFFCURVE",
"202 381 CURVE SMOOTH",
"126 381 OFFCURVE",
"96 430 OFFCURVE",
"87 467 CURVE",
"43 450 LINE"
);
}
);
width = 405;
},
{
layerId = "37B2A381-2B9F-4DE4-98E5-835D13A27EF0";
paths = (
{
closed = 1;
nodes = (
"46 384 OFFCURVE",
"107 336 OFFCURVE",
"195 336 CURVE SMOOTH",
"293 336 OFFCURVE",
"372 396 OFFCURVE",
"384 479 CURVE SMOOTH",
"393 541 OFFCURVE",
"357 588 OFFCURVE",
"291 605 CURVE",
"398 691 LINE",
"406 750 LINE",
"116 750 LINE",
"107 685 LINE",
"292 685 LINE",
"193 602 LINE",
"186 551 LINE",
"199 551 OFFCURVE",
"212 551 OFFCURVE",
"225 551 CURVE SMOOTH",
"284 551 OFFCURVE",
"319 521 OFFCURVE",
"313 479 CURVE SMOOTH",
"306 433 OFFCURVE",
"262 401 OFFCURVE",
"204 401 CURVE SMOOTH",
"148 401 OFFCURVE",
"110 433 OFFCURVE",
"103 486 CURVE",
"39 462 LINE"
);
}
);
width = 404;
}
);
leftMetricsKey = three;
rightMetricsKey = three;
unicode = 00B3;
},
{
glyphname = fivesuperior;
lastChange = "2019-08-14 18:46:20 +0000";
layers = (
{
layerId = "DA405910-5117-420C-9605-F5A44EE03BDF";
paths = (
{
closed = 1;
nodes = (
"336 336 OFFCURVE",
"411 390 OFFCURVE",
"423 470 CURVE SMOOTH",
"435 559 OFFCURVE",
"379 612 OFFCURVE",
"278 612 CURVE SMOOTH",
"241 612 OFFCURVE",
"199 599 OFFCURVE",
"175 585 CURVE",
"192 706 LINE",
"438 705 LINE",
"444 750 LINE",
"154 750 LINE",
"123 532 LINE",
"163 532 LINE",
"190 555 OFFCURVE",
"226 567 OFFCURVE",
"271 567 CURVE SMOOTH",
"343 567 OFFCURVE",
"380 529 OFFCURVE",
"372 470 CURVE SMOOTH",
"364 417 OFFCURVE",
"313 380 OFFCURVE",
"245 381 CURVE SMOOTH",
"187 382 OFFCURVE",
"149 411 OFFCURVE",
"139 470 CURVE",
"91 454 LINE",
"102 379 OFFCURVE",
"157 336 OFFCURVE",
"239 336 CURVE SMOOTH"
);
}
);
width = 439;
},
{
layerId = "37B2A381-2B9F-4DE4-98E5-835D13A27EF0";
paths = (
{
closed = 1;
nodes = (
"98 381 OFFCURVE",
"155 336 OFFCURVE",
"239 336 CURVE SMOOTH",
"338 336 OFFCURVE",
"414 392 OFFCURVE",
"425 474 CURVE SMOOTH",
"438 564 OFFCURVE",
"382 620 OFFCURVE",
"279 620 CURVE SMOOTH",
"252 620 OFFCURVE",
"220 613 OFFCURVE",
"194 602 CURVE",
"206 686 LINE",
"438 685 LINE",
"447 750 LINE",
"150 750 LINE",
"118 521 LINE",
"172 521 LINE",
"196 543 OFFCURVE",
"228 554 OFFCURVE",
"269 554 CURVE SMOOTH",
"330 554 OFFCURVE",
"361 524 OFFCURVE",
"354 474 CURVE SMOOTH",
"348 430 OFFCURVE",
"306 400 OFFCURVE",
"248 401 CURVE SMOOTH",
"197 402 OFFCURVE",
"167 427 OFFCURVE",
"157 477 CURVE",
"90 453 LINE"
);
}
);
width = 439;
}
);
leftMetricsKey = five;
rightMetricsKey = five;
unicode = 2075;
},
{
glyphname = sevensuperior;
lastChange = "2019-08-14 18:46:20 +0000";
layers = (
{
layerId = "DA405910-5117-420C-9605-F5A44EE03BDF";
paths = (
{
closed = 1;
nodes = (
"376 704 LINE",
"82 341 LINE",
"139 341 LINE",
"437 704 LINE",
"444 750 LINE",
"111 750 LINE",
"104 704 LINE"
);
}
);
width = 407;
},
{
layerId = "37B2A381-2B9F-4DE4-98E5-835D13A27EF0";
paths = (
{
closed = 1;
nodes = (
"350 685 LINE",
"68 341 LINE",
"149 341 LINE",
"437 685 LINE",
"446 750 LINE",
"109 750 LINE",
"100 685 LINE"
);
}
);
width = 407;
}
);
leftMetricsKey = seven;
rightMetricsKey = seven;
unicode = 2077;
},
{
glyphname = fraction;
lastChange = "2019-08-14 18:46:20 +0000";
layers = (
{
layerId = "DA405910-5117-420C-9605-F5A44EE03BDF";
paths = (
{
closed = 1;
nodes = (
"520 712 LINE",
"-61 5 LINE",
"-10 -20 LINE",
"570 690 LINE"
);
}
);
width = 481;
},
{
layerId = "37B2A381-2B9F-4DE4-98E5-835D13A27EF0";
paths = (
{
closed = 1;
nodes = (
"542 712 LINE",
"-33 12 LINE",
"30 -20 LINE",
"605 684 LINE"
);
}
);
width = 545;
}
);
unicode = 2044;
},
{
glyphname = onehalf;
lastChange = "2019-08-14 18:46:20 +0000";
layers = (
{
layerId = "DA405910-5117-420C-9605-F5A44EE03BDF";
paths = (
{
closed = 1;
nodes = (
"690 712 LINE",
"111 2 LINE",
"156 -20 LINE",
"735 692 LINE"
);
},
{
closed = 1;
nodes = (
"129 636 OFFCURVE",
"173 645 OFFCURVE",
"199 663 CURVE",
"160 387 LINE",
"64 387 LINE",
"57 341 LINE",
"296 341 LINE",
"303 387 LINE",
"205 387 LINE",
"256 750 LINE",
"215 750 LINE",
"193 703 OFFCURVE",
"145 678 OFFCURVE",
"81 679 CURVE",
"75 636 LINE"
);
},
{
closed = 1;
nodes = (
"560 268 LINE",
"575 335 OFFCURVE",
"622 372 OFFCURVE",
"696 372 CURVE SMOOTH",
"772 372 OFFCURVE",
"795 332 OFFCURVE",
"791 302 CURVE SMOOTH",
"786 269 OFFCURVE",
"753 247 OFFCURVE",
"688 192 CURVE SMOOTH",
"511 42 LINE",
"505 0 LINE",
"802 0 LINE",
"809 45 LINE",
"581 45 LINE",
"723 166 LINE SMOOTH",
"784 218 OFFCURVE",
"832 248 OFFCURVE",
"840 302 CURVE SMOOTH",
"847 351 OFFCURVE",
"811 416 OFFCURVE",
"702 416 CURVE SMOOTH",
"607 416 OFFCURVE",
"538 367 OFFCURVE",
"518 283 CURVE"
);
}
);
width = 883;
},
{
layerId = "37B2A381-2B9F-4DE4-98E5-835D13A27EF0";
paths = (
{
closed = 1;
nodes = (
"73 620 LINE",
"120 619 OFFCURVE",
"160 624 OFFCURVE",
"188 637 CURVE",
"146 341 LINE",
"211 341 LINE",
"269 750 LINE",
"211 750 LINE",
"193 703 OFFCURVE",
"147 679 OFFCURVE",
"81 683 CURVE"
);
},
{
closed = 1;
nodes = (
"304 341 LINE",
"314 406 LINE",
"66 406 LINE",
"56 341 LINE"
);
},
{
closed = 1;
nodes = (
"585 249 LINE",
"598 317 OFFCURVE",
"635 351 OFFCURVE",
"704 351 CURVE SMOOTH",
"756 351 OFFCURVE",
"788 327 OFFCURVE",
"784 296 CURVE SMOOTH",
"780 270 OFFCURVE",
"754 252 OFFCURVE",
"692 200 CURVE SMOOTH",
"520 55 LINE",
"512 -1 LINE",
"815 -1 LINE",
"824 64 LINE",
"626 64 LINE",
"738 159 LINE SMOOTH",
"795 208 OFFCURVE",
"845 239 OFFCURVE",
"853 296 CURVE SMOOTH",
"863 364 OFFCURVE",
"803 415 OFFCURVE",
"713 415 CURVE SMOOTH",
"613 415 OFFCURVE",
"541 360 OFFCURVE",
"524 270 CURVE"
);
},
{
closed = 1;
nodes = (
"685 712 LINE",
"110 12 LINE",
"173 -20 LINE",
"748 684 LINE"
);
}
);
width = 896;
}
);
unicode = 00BD;
},
{
glyphname = onequarter;
lastChange = "2019-08-14 18:46:20 +0000";
layers = (
{
layerId = "DA405910-5117-420C-9605-F5A44EE03BDF";
paths = (
{
closed = 1;
nodes = (
"690 712 LINE",
"111 2 LINE",
"156 -20 LINE",
"735 692 LINE"
);
},
{
closed = 1;
nodes = (
"129 636 OFFCURVE",
"173 645 OFFCURVE",
"199 663 CURVE",
"160 387 LINE",
"64 387 LINE",
"57 341 LINE",
"296 341 LINE",
"303 387 LINE",
"205 387 LINE",
"256 750 LINE",
"215 750 LINE",
"193 703 OFFCURVE",
"145 678 OFFCURVE",
"81 679 CURVE",
"75 636 LINE"
);
},
{
closed = 1;
nodes = (
"636 106 LINE",
"621 0 LINE",
"666 0 LINE",
"681 106 LINE",
"786 106 LINE",
"793 150 LINE",
"688 150 LINE",
"708 293 LINE",
"663 293 LINE",
"643 150 LINE",
"476 150 LINE",
"735 409 LINE",
"675 409 LINE",
"413 147 LINE",
"407 106 LINE"
);
}
);
width = 861;
},
{
layerId = "37B2A381-2B9F-4DE4-98E5-835D13A27EF0";
paths = (
{
closed = 1;
nodes = (
"73 620 LINE",
"120 619 OFFCURVE",
"160 624 OFFCURVE",
"188 637 CURVE",
"146 341 LINE",
"211 341 LINE",
"269 750 LINE",
"211 750 LINE",
"193 703 OFFCURVE",
"147 679 OFFCURVE",
"81 683 CURVE"
);
},
{
closed = 1;
nodes = (
"304 341 LINE",
"314 406 LINE",
"66 406 LINE",
"56 341 LINE"
);
},
{
closed = 1;
nodes = (
"679 712 LINE",
"104 12 LINE",
"167 -20 LINE",
"742 684 LINE"
);
},
{
closed = 1;
nodes = (
"610 0 LINE",
"675 0 LINE",
"713 267 LINE",
"648 267 LINE"
);
},
{
closed = 1;
nodes = (
"404 101 LINE",
"785 101 LINE",
"794 164 LINE",
"508 164 LINE",
"752 409 LINE",
"666 409 LINE",
"411 154 LINE"
);
}
);
width = 860;
}
);
unicode = 00BC;
},
{
glyphname = threequarters;
lastChange = "2019-08-14 18:46:20 +0000";
layers = (
{
layerId = "DA405910-5117-420C-9605-F5A44EE03BDF";
paths = (
{
closed = 1;
nodes = (
"731 712 LINE",
"152 2 LINE",
"197 -20 LINE",
"776 692 LINE"
);
},
{
closed = 1;
nodes = (
"677 106 LINE",
"662 0 LINE",
"707 0 LINE",
"722 106 LINE",
"827 106 LINE",
"834 150 LINE",
"729 150 LINE",
"749 293 LINE",
"704 293 LINE",
"684 150 LINE",
"517 150 LINE",
"776 409 LINE",
"716 409 LINE",
"454 147 LINE",
"448 106 LINE"
);
},
{
closed = 1;
nodes = (
"83 379 OFFCURVE",
"141 336 OFFCURVE",
"225 336 CURVE SMOOTH",
"322 336 OFFCURVE",
"400 394 OFFCURVE",
"411 475 CURVE SMOOTH",
"421 542 OFFCURVE",
"377 590 OFFCURVE",
"297 601 CURVE",
"427 709 LINE",
"433 750 LINE",
"150 750 LINE",
"144 705 LINE",
"358 705 LINE",
"233 600 LINE",
"228 563 LINE",
"237 563 OFFCURVE",
"248 563 OFFCURVE",
"257 563 CURVE SMOOTH",
"326 563 OFFCURVE",
"368 527 OFFCURVE",
"360 475 CURVE SMOOTH",
"353 420 OFFCURVE",
"300 381 OFFCURVE",
"231 381 CURVE SMOOTH",
"155 381 OFFCURVE",
"125 430 OFFCURVE",
"116 467 CURVE",
"72 450 LINE"
);
}
);
width = 902;
},
{
layerId = "37B2A381-2B9F-4DE4-98E5-835D13A27EF0";
paths = (
{
closed = 1;
nodes = (
"720 712 LINE",
"145 12 LINE",
"208 -20 LINE",
"783 684 LINE"
);
},
{
closed = 1;
nodes = (
"651 0 LINE",
"716 0 LINE",
"754 267 LINE",
"689 267 LINE"
);
},
{
closed = 1;
nodes = (
"445 101 LINE",
"826 101 LINE",
"835 164 LINE",
"549 164 LINE",
"793 409 LINE",
"707 409 LINE",
"452 154 LINE"
);
},
{
closed = 1;
nodes = (
"80 384 OFFCURVE",
"141 336 OFFCURVE",
"229 336 CURVE SMOOTH",
"327 336 OFFCURVE",
"406 396 OFFCURVE",
"418 479 CURVE SMOOTH",
"427 541 OFFCURVE",
"391 587 OFFCURVE",
"325 605 CURVE",
"432 691 LINE",
"440 750 LINE",
"150 750 LINE",
"141 685 LINE",
"326 685 LINE",
"227 602 LINE",
"220 551 LINE",
"233 551 OFFCURVE",
"246 551 OFFCURVE",
"259 551 CURVE SMOOTH",
"318 551 OFFCURVE",
"353 521 OFFCURVE",
"347 479 CURVE SMOOTH",
"340 433 OFFCURVE",
"296 401 OFFCURVE",
"238 401 CURVE SMOOTH",
"182 401 OFFCURVE",
"144 433 OFFCURVE",
"137 486 CURVE",
"73 462 LINE"
);
}
);
width = 901;
}
);
unicode = 00BE;
},
{
glyphname = oneeighth;
lastChange = "2019-08-14 18:46:20 +0000";
layers = (
{
layerId = "DA405910-5117-420C-9605-F5A44EE03BDF";
paths = (
{
closed = 1;
nodes = (
"747 -5 OFFCURVE",
"818 41 OFFCURVE",
"828 113 CURVE SMOOTH",
"834 150 OFFCURVE",
"812 185 OFFCURVE",
"772 206 CURVE",
"821 229 OFFCURVE",
"856 265 OFFCURVE",
"861 305 CURVE SMOOTH",
"872 380 OFFCURVE",
"814 425 OFFCURVE",
"710 425 CURVE SMOOTH",
"609 425 OFFCURVE",
"539 380 OFFCURVE",
"528 305 CURVE SMOOTH",
"523 264 OFFCURVE",
"547 229 OFFCURVE",
"588 206 CURVE",
"542 185 OFFCURVE",
"513 151 OFFCURVE",
"507 113 CURVE SMOOTH",
"497 39 OFFCURVE",
"552 -5 OFFCURVE",
"650 -5 CURVE SMOOTH"
);
},
{
closed = 1;
nodes = (
"586 34 OFFCURVE",
"545 66 OFFCURVE",
"551 113 CURVE SMOOTH",
"558 159 OFFCURVE",
"606 188 OFFCURVE",
"677 188 CURVE SMOOTH",
"750 188 OFFCURVE",
"790 157 OFFCURVE",
"782 113 CURVE SMOOTH",
"775 66 OFFCURVE",
"723 34 OFFCURVE",
"655 34 CURVE SMOOTH"
);
},
{
closed = 1;
nodes = (
"613 225 OFFCURVE",
"567 260 OFFCURVE",
"573 305 CURVE SMOOTH",
"580 349 OFFCURVE",
"638 385 OFFCURVE",
"705 385 CURVE SMOOTH",
"776 385 OFFCURVE",
"823 349 OFFCURVE",
"813 305 CURVE SMOOTH",
"804 259 OFFCURVE",
"751 225 OFFCURVE",
"682 225 CURVE SMOOTH"
);
},
{
closed = 1;
nodes = (
"695 712 LINE",
"116 2 LINE",
"161 -20 LINE",
"740 692 LINE"
);
},
{
closed = 1;
nodes = (
"134 636 OFFCURVE",
"178 645 OFFCURVE",
"204 663 CURVE",
"165 387 LINE",
"69 387 LINE",
"62 341 LINE",
"301 341 LINE",
"308 387 LINE",
"210 387 LINE",
"261 750 LINE",
"220 750 LINE",
"198 703 OFFCURVE",
"150 678 OFFCURVE",
"86 679 CURVE",
"80 636 LINE"
);
}
);
width = 913;
},
{
layerId = "37B2A381-2B9F-4DE4-98E5-835D13A27EF0";
paths = (
{
closed = 1;
nodes = (
"79 620 LINE",
"126 619 OFFCURVE",
"166 624 OFFCURVE",
"194 637 CURVE",
"152 341 LINE",
"217 341 LINE",
"275 750 LINE",
"217 750 LINE",
"199 703 OFFCURVE",
"153 679 OFFCURVE",
"87 683 CURVE"
);
},
{
closed = 1;
nodes = (
"310 341 LINE",
"320 406 LINE",
"72 406 LINE",
"62 341 LINE"
);
},
{
closed = 1;
nodes = (
"684 712 LINE",
"109 12 LINE",
"172 -20 LINE",
"747 684 LINE"
);
},
{
closed = 1;
nodes = (
"747 -5 OFFCURVE",
"820 44 OFFCURVE",
"830 118 CURVE SMOOTH",
"835 152 OFFCURVE",
"819 184 OFFCURVE",
"788 206 CURVE",
"830 231 OFFCURVE",
"857 265 OFFCURVE",
"862 300 CURVE SMOOTH",
"872 377 OFFCURVE",
"813 425 OFFCURVE",
"708 425 CURVE SMOOTH",
"605 425 OFFCURVE",
"533 377 OFFCURVE",
"523 300 CURVE SMOOTH",
"518 264 OFFCURVE",
"535 231 OFFCURVE",
"568 206 CURVE",
"531 184 OFFCURVE",
"508 153 OFFCURVE",
"503 118 CURVE SMOOTH",
"492 42 OFFCURVE",
"548 -5 OFFCURVE",
"648 -5 CURVE SMOOTH"
);
},
{
closed = 1;
nodes = (
"596 53 OFFCURVE",
"561 80 OFFCURVE",
"566 118 CURVE SMOOTH",
"571 156 OFFCURVE",
"612 179 OFFCURVE",
"674 179 CURVE SMOOTH",
"737 179 OFFCURVE",
"771 155 OFFCURVE",
"766 119 CURVE SMOOTH",
"761 80 OFFCURVE",
"715 53 OFFCURVE",
"656 53 CURVE SMOOTH"
);
},
{
closed = 1;
nodes = (
"623 235 OFFCURVE",
"581 263 OFFCURVE",
"587 300 CURVE SMOOTH",
"592 336 OFFCURVE",
"643 365 OFFCURVE",
"700 365 CURVE SMOOTH",
"760 365 OFFCURVE",
"802 336 OFFCURVE",
"795 301 CURVE SMOOTH",
"787 262 OFFCURVE",
"740 235 OFFCURVE",
"682 235 CURVE SMOOTH"
);
}
);
width = 913;
}
);
unicode = 215B;
},
{
glyphname = threeeighths;
lastChange = "2019-08-14 18:46:20 +0000";
layers = (
{
layerId = "DA405910-5117-420C-9605-F5A44EE03BDF";
paths = (
{
closed = 1;
nodes = (
"713 712 LINE",
"134 2 LINE",
"179 -20 LINE",
"758 692 LINE"
);
},
{
closed = 1;
nodes = (
"65 379 OFFCURVE",
"123 336 OFFCURVE",
"207 336 CURVE SMOOTH",
"304 336 OFFCURVE",
"382 394 OFFCURVE",
"393 475 CURVE SMOOTH",
"403 542 OFFCURVE",
"359 590 OFFCURVE",
"279 601 CURVE",
"409 709 LINE",
"415 750 LINE",
"132 750 LINE",
"126 705 LINE",
"340 705 LINE",
"215 600 LINE",
"210 563 LINE",
"219 563 OFFCURVE",
"230 563 OFFCURVE",
"239 563 CURVE SMOOTH",
"308 563 OFFCURVE",
"350 527 OFFCURVE",
"342 475 CURVE SMOOTH",
"335 420 OFFCURVE",
"282 381 OFFCURVE",
"213 381 CURVE SMOOTH",
"137 381 OFFCURVE",
"107 430 OFFCURVE",
"98 467 CURVE",
"54 450 LINE"
);
},
{
closed = 1;
nodes = (
"765 -5 OFFCURVE",
"836 41 OFFCURVE",
"846 113 CURVE SMOOTH",
"852 150 OFFCURVE",
"830 185 OFFCURVE",
"790 206 CURVE",
"839 229 OFFCURVE",
"874 265 OFFCURVE",
"879 305 CURVE SMOOTH",
"890 380 OFFCURVE",
"832 425 OFFCURVE",
"728 425 CURVE SMOOTH",
"627 425 OFFCURVE",
"557 380 OFFCURVE",
"546 305 CURVE SMOOTH",
"541 264 OFFCURVE",
"565 229 OFFCURVE",
"606 206 CURVE",
"560 185 OFFCURVE",
"531 151 OFFCURVE",
"525 113 CURVE SMOOTH",
"515 39 OFFCURVE",
"570 -5 OFFCURVE",
"668 -5 CURVE SMOOTH"
);
},
{
closed = 1;
nodes = (
"604 34 OFFCURVE",
"563 66 OFFCURVE",
"569 113 CURVE SMOOTH",
"576 159 OFFCURVE",
"624 188 OFFCURVE",
"695 188 CURVE SMOOTH",
"767 188 OFFCURVE",
"808 157 OFFCURVE",
"800 113 CURVE SMOOTH",
"793 66 OFFCURVE",
"741 34 OFFCURVE",
"673 34 CURVE SMOOTH"
);
},
{
closed = 1;
nodes = (
"631 225 OFFCURVE",
"585 260 OFFCURVE",
"591 305 CURVE SMOOTH",
"598 349 OFFCURVE",
"656 385 OFFCURVE",
"723 385 CURVE SMOOTH",
"794 385 OFFCURVE",
"841 349 OFFCURVE",
"831 305 CURVE SMOOTH",
"822 259 OFFCURVE",
"769 225 OFFCURVE",
"700 225 CURVE SMOOTH"
);
}
);
width = 922;
},
{
layerId = "37B2A381-2B9F-4DE4-98E5-835D13A27EF0";
paths = (
{
closed = 1;
nodes = (
"702 712 LINE",
"127 12 LINE",
"190 -20 LINE",
"765 684 LINE"
);
},
{
closed = 1;
nodes = (
"765 -5 OFFCURVE",
"838 44 OFFCURVE",
"848 118 CURVE SMOOTH",
"853 152 OFFCURVE",
"837 184 OFFCURVE",
"806 206 CURVE",
"848 231 OFFCURVE",
"875 265 OFFCURVE",
"880 300 CURVE SMOOTH",
"890 377 OFFCURVE",
"831 425 OFFCURVE",
"726 425 CURVE SMOOTH",
"623 425 OFFCURVE",
"551 377 OFFCURVE",
"541 300 CURVE SMOOTH",
"536 264 OFFCURVE",
"553 231 OFFCURVE",
"586 206 CURVE",
"549 184 OFFCURVE",
"526 153 OFFCURVE",
"521 118 CURVE SMOOTH",
"510 42 OFFCURVE",
"566 -5 OFFCURVE",
"666 -5 CURVE SMOOTH"
);
},
{
closed = 1;
nodes = (
"614 53 OFFCURVE",
"579 80 OFFCURVE",
"584 118 CURVE SMOOTH",
"589 156 OFFCURVE",
"630 179 OFFCURVE",
"692 179 CURVE SMOOTH",
"755 179 OFFCURVE",
"789 155 OFFCURVE",
"784 119 CURVE SMOOTH",
"779 80 OFFCURVE",
"733 53 OFFCURVE",
"674 53 CURVE SMOOTH"
);
},
{
closed = 1;
nodes = (
"641 235 OFFCURVE",
"599 263 OFFCURVE",
"605 300 CURVE SMOOTH",
"610 336 OFFCURVE",
"661 365 OFFCURVE",
"718 365 CURVE SMOOTH",
"778 365 OFFCURVE",
"820 336 OFFCURVE",
"813 301 CURVE SMOOTH",
"805 262 OFFCURVE",
"758 235 OFFCURVE",
"700 235 CURVE SMOOTH"
);
},
{
closed = 1;
nodes = (
"62 384 OFFCURVE",
"123 336 OFFCURVE",
"211 336 CURVE SMOOTH",
"309 336 OFFCURVE",
"388 396 OFFCURVE",
"400 479 CURVE SMOOTH",
"409 541 OFFCURVE",
"373 587 OFFCURVE",
"307 605 CURVE",
"414 691 LINE",
"422 750 LINE",
"132 750 LINE",
"123 685 LINE",
"308 685 LINE",
"209 602 LINE",
"202 551 LINE",
"215 551 OFFCURVE",
"228 551 OFFCURVE",
"241 551 CURVE SMOOTH",
"300 551 OFFCURVE",
"335 521 OFFCURVE",
"329 479 CURVE SMOOTH",
"322 433 OFFCURVE",
"278 401 OFFCURVE",
"220 401 CURVE SMOOTH",
"164 401 OFFCURVE",
"126 433 OFFCURVE",
"119 486 CURVE",
"55 462 LINE"
);
}
);
width = 922;
}
);
unicode = 215C;
},
{
glyphname = fiveeighths;
lastChange = "2019-08-14 18:46:20 +0000";
layers = (
{
layerId = "DA405910-5117-420C-9605-F5A44EE03BDF";
paths = (
{
closed = 1;
nodes = (
"696 712 LINE",
"117 2 LINE",
"162 -20 LINE",
"741 692 LINE"
);
},
{
closed = 1;
nodes = (
"748 -5 OFFCURVE",
"819 41 OFFCURVE",
"829 113 CURVE SMOOTH",
"835 150 OFFCURVE",
"813 185 OFFCURVE",
"773 206 CURVE",
"822 229 OFFCURVE",
"857 265 OFFCURVE",
"862 305 CURVE SMOOTH",
"873 380 OFFCURVE",
"815 425 OFFCURVE",
"711 425 CURVE SMOOTH",
"610 425 OFFCURVE",
"540 380 OFFCURVE",
"529 305 CURVE SMOOTH",
"524 264 OFFCURVE",
"548 229 OFFCURVE",
"589 206 CURVE",
"543 185 OFFCURVE",
"514 151 OFFCURVE",
"508 113 CURVE SMOOTH",
"498 39 OFFCURVE",
"553 -5 OFFCURVE",
"651 -5 CURVE SMOOTH"
);
},
{
closed = 1;
nodes = (
"587 34 OFFCURVE",
"546 66 OFFCURVE",
"552 113 CURVE SMOOTH",
"559 159 OFFCURVE",
"607 188 OFFCURVE",
"678 188 CURVE SMOOTH",
"750 188 OFFCURVE",
"791 157 OFFCURVE",
"783 113 CURVE SMOOTH",
"776 66 OFFCURVE",
"724 34 OFFCURVE",
"656 34 CURVE SMOOTH"
);
},
{
closed = 1;
nodes = (
"614 225 OFFCURVE",
"568 260 OFFCURVE",
"574 305 CURVE SMOOTH",
"581 349 OFFCURVE",
"639 385 OFFCURVE",
"706 385 CURVE SMOOTH",
"777 385 OFFCURVE",
"824 349 OFFCURVE",
"814 305 CURVE SMOOTH",
"805 259 OFFCURVE",
"752 225 OFFCURVE",
"683 225 CURVE SMOOTH"
);
},
{
closed = 1;
nodes = (
"299 336 OFFCURVE",
"374 390 OFFCURVE",
"386 470 CURVE SMOOTH",
"398 559 OFFCURVE",
"342 612 OFFCURVE",
"241 612 CURVE SMOOTH",
"204 612 OFFCURVE",
"162 599 OFFCURVE",
"138 585 CURVE",
"155 706 LINE",
"401 705 LINE",
"407 750 LINE",
"117 750 LINE",
"86 532 LINE",
"126 532 LINE",
"153 555 OFFCURVE",
"189 567 OFFCURVE",
"234 567 CURVE SMOOTH",
"306 567 OFFCURVE",
"343 529 OFFCURVE",
"335 470 CURVE SMOOTH",
"327 417 OFFCURVE",
"276 380 OFFCURVE",
"208 381 CURVE SMOOTH",
"150 382 OFFCURVE",
"112 411 OFFCURVE",
"102 470 CURVE",
"54 454 LINE",
"65 379 OFFCURVE",
"120 336 OFFCURVE",
"202 336 CURVE SMOOTH"
);
}
);
width = 909;
},
{
layerId = "37B2A381-2B9F-4DE4-98E5-835D13A27EF0";
paths = (
{
closed = 1;
nodes = (
"685 712 LINE",
"110 12 LINE",
"173 -20 LINE",
"748 684 LINE"
);
},
{
closed = 1;
nodes = (
"748 -5 OFFCURVE",
"821 44 OFFCURVE",
"831 118 CURVE SMOOTH",
"836 152 OFFCURVE",
"820 184 OFFCURVE",
"789 206 CURVE",
"831 231 OFFCURVE",
"858 265 OFFCURVE",
"863 300 CURVE SMOOTH",
"873 377 OFFCURVE",
"814 425 OFFCURVE",
"709 425 CURVE SMOOTH",
"606 425 OFFCURVE",
"534 377 OFFCURVE",
"524 300 CURVE SMOOTH",
"519 264 OFFCURVE",
"536 231 OFFCURVE",
"569 206 CURVE",
"532 184 OFFCURVE",
"509 153 OFFCURVE",
"504 118 CURVE SMOOTH",
"493 42 OFFCURVE",
"549 -5 OFFCURVE",
"649 -5 CURVE SMOOTH"
);
},
{
closed = 1;
nodes = (
"597 53 OFFCURVE",
"562 80 OFFCURVE",
"567 118 CURVE SMOOTH",
"572 156 OFFCURVE",
"613 179 OFFCURVE",
"675 179 CURVE SMOOTH",
"738 179 OFFCURVE",
"772 155 OFFCURVE",
"767 119 CURVE SMOOTH",
"762 80 OFFCURVE",
"716 53 OFFCURVE",
"657 53 CURVE SMOOTH"
);
},
{
closed = 1;
nodes = (
"624 235 OFFCURVE",
"582 263 OFFCURVE",
"588 300 CURVE SMOOTH",
"593 336 OFFCURVE",
"644 365 OFFCURVE",
"701 365 CURVE SMOOTH",
"761 365 OFFCURVE",
"803 336 OFFCURVE",
"796 301 CURVE SMOOTH",
"788 262 OFFCURVE",
"741 235 OFFCURVE",
"683 235 CURVE SMOOTH"
);
},
{
closed = 1;
nodes = (
"65 381 OFFCURVE",
"122 336 OFFCURVE",
"206 336 CURVE SMOOTH",
"305 336 OFFCURVE",
"381 392 OFFCURVE",
"392 474 CURVE SMOOTH",
"405 564 OFFCURVE",
"349 620 OFFCURVE",
"246 620 CURVE SMOOTH",
"219 620 OFFCURVE",
"187 613 OFFCURVE",
"161 602 CURVE",
"173 686 LINE",
"405 685 LINE",
"414 750 LINE",
"117 750 LINE",
"85 521 LINE",
"139 521 LINE",
"163 543 OFFCURVE",
"195 554 OFFCURVE",
"236 554 CURVE SMOOTH",
"297 554 OFFCURVE",
"328 524 OFFCURVE",
"321 474 CURVE SMOOTH",
"315 430 OFFCURVE",
"273 400 OFFCURVE",
"215 401 CURVE SMOOTH",
"164 402 OFFCURVE",
"134 427 OFFCURVE",
"124 477 CURVE",
"56 453 LINE"
);
}
);
width = 909;
}
);
unicode = 215D;
},
{
glyphname = seveneighths;
lastChange = "2019-08-14 18:46:20 +0000";
layers = (
{
layerId = "DA405910-5117-420C-9605-F5A44EE03BDF";
paths = (
{
closed = 1;
nodes = (
"616 712 LINE",
"37 2 LINE",
"82 -20 LINE",
"661 692 LINE"
);
},
{
closed = 1;
nodes = (
"692 -5 OFFCURVE",
"763 41 OFFCURVE",
"773 113 CURVE SMOOTH",
"779 150 OFFCURVE",
"757 185 OFFCURVE",
"717 206 CURVE",
"766 229 OFFCURVE",
"801 265 OFFCURVE",
"806 305 CURVE SMOOTH",
"817 380 OFFCURVE",
"759 425 OFFCURVE",
"655 425 CURVE SMOOTH",
"554 425 OFFCURVE",
"484 380 OFFCURVE",
"473 305 CURVE SMOOTH",
"468 264 OFFCURVE",
"492 229 OFFCURVE",
"533 206 CURVE",
"487 185 OFFCURVE",
"458 151 OFFCURVE",
"452 113 CURVE SMOOTH",
"442 39 OFFCURVE",
"497 -5 OFFCURVE",
"595 -5 CURVE SMOOTH"
);
},
{
closed = 1;
nodes = (
"531 34 OFFCURVE",
"490 66 OFFCURVE",
"496 113 CURVE SMOOTH",
"503 159 OFFCURVE",
"551 188 OFFCURVE",
"622 188 CURVE SMOOTH",
"694 188 OFFCURVE",
"735 157 OFFCURVE",
"727 113 CURVE SMOOTH",
"720 66 OFFCURVE",
"668 34 OFFCURVE",
"600 34 CURVE SMOOTH"
);
},
{
closed = 1;
nodes = (
"558 225 OFFCURVE",
"512 260 OFFCURVE",
"518 305 CURVE SMOOTH",
"525 349 OFFCURVE",
"583 385 OFFCURVE",
"650 385 CURVE SMOOTH",
"721 385 OFFCURVE",
"768 349 OFFCURVE",
"758 305 CURVE SMOOTH",
"749 259 OFFCURVE",
"696 225 OFFCURVE",
"627 225 CURVE SMOOTH"
);
},
{
closed = 1;
nodes = (
"358 705 LINE",
"68 348 LINE",
"124 348 LINE",
"418 705 LINE",
"424 750 LINE",
"97 750 LINE",
"91 705 LINE"
);
}
);
width = 829;
},
{
layerId = "37B2A381-2B9F-4DE4-98E5-835D13A27EF0";
paths = (
{
closed = 1;
nodes = (
"605 712 LINE",
"30 12 LINE",
"93 -20 LINE",
"668 684 LINE"
);
},
{
closed = 1;
nodes = (
"691 -5 OFFCURVE",
"764 44 OFFCURVE",
"774 118 CURVE SMOOTH",
"779 152 OFFCURVE",
"763 184 OFFCURVE",
"732 206 CURVE",
"774 231 OFFCURVE",
"801 265 OFFCURVE",
"806 300 CURVE SMOOTH",
"816 377 OFFCURVE",
"757 425 OFFCURVE",
"652 425 CURVE SMOOTH",
"549 425 OFFCURVE",
"477 377 OFFCURVE",
"467 300 CURVE SMOOTH",
"462 264 OFFCURVE",
"479 231 OFFCURVE",
"512 206 CURVE",
"475 184 OFFCURVE",
"452 153 OFFCURVE",
"447 118 CURVE SMOOTH",
"436 42 OFFCURVE",
"492 -5 OFFCURVE",
"592 -5 CURVE SMOOTH"
);
},
{
closed = 1;
nodes = (
"540 53 OFFCURVE",
"505 80 OFFCURVE",
"510 118 CURVE SMOOTH",
"515 156 OFFCURVE",
"556 179 OFFCURVE",
"618 179 CURVE SMOOTH",
"681 179 OFFCURVE",
"715 155 OFFCURVE",
"710 119 CURVE SMOOTH",
"705 80 OFFCURVE",
"659 53 OFFCURVE",
"600 53 CURVE SMOOTH"
);
},
{
closed = 1;
nodes = (
"567 235 OFFCURVE",
"525 263 OFFCURVE",
"531 300 CURVE SMOOTH",
"536 336 OFFCURVE",
"587 365 OFFCURVE",
"644 365 CURVE SMOOTH",
"704 365 OFFCURVE",
"746 336 OFFCURVE",
"739 301 CURVE SMOOTH",
"731 262 OFFCURVE",
"684 235 OFFCURVE",
"626 235 CURVE SMOOTH"
);
},
{
closed = 1;
nodes = (
"338 685 LINE",
"56 341 LINE",
"137 341 LINE",
"425 685 LINE",
"434 750 LINE",
"97 750 LINE",
"88 685 LINE"
);
}
);
width = 829;
}
);
unicode = 215E;
},
{
glyphname = period;
lastChange = "2019-08-14 18:46:20 +0000";
layers = (
{
layerId = "DA405910-5117-420C-9605-F5A44EE03BDF";
paths = (
{
closed = 1;
nodes = (
"144 -5 OFFCURVE",
"173 19 OFFCURVE",
"177 49 CURVE SMOOTH",
"182 79 OFFCURVE",
"159 103 OFFCURVE",
"130 103 CURVE SMOOTH",
"101 103 OFFCURVE",
"72 79 OFFCURVE",
"67 49 CURVE SMOOTH",
"63 19 OFFCURVE",
"86 -5 OFFCURVE",
"115 -5 CURVE SMOOTH"
);
}
);
width = 300;
},
{
layerId = "37B2A381-2B9F-4DE4-98E5-835D13A27EF0";
paths = (
{
closed = 1;
nodes = (
"150 -5 OFFCURVE",
"184 24 OFFCURVE",
"189 59 CURVE SMOOTH",
"194 94 OFFCURVE",
"168 123 OFFCURVE",
"133 123 CURVE SMOOTH",
"98 123 OFFCURVE",
"64 94 OFFCURVE",
"59 59 CURVE SMOOTH",
"54 24 OFFCURVE",
"80 -5 OFFCURVE",
"115 -5 CURVE SMOOTH"
);
}
);
width = 300;
}
);
unicode = 002E;
},
{
glyphname = comma;
lastChange = "2019-08-14 18:46:20 +0000";
layers = (
{
background = {
paths = (
{
closed = 1;
nodes = (
"179 -5 OFFCURVE",
"205 19 OFFCURVE",
"205 49 CURVE SMOOTH",
"205 79 OFFCURVE",
"179 103 OFFCURVE",
"150 103 CURVE SMOOTH",
"121 103 OFFCURVE",
"95 79 OFFCURVE",
"95 49 CURVE SMOOTH",
"95 19 OFFCURVE",
"121 -5 OFFCURVE",
"150 -5 CURVE SMOOTH"
);
}
);
};
layerId = "DA405910-5117-420C-9605-F5A44EE03BDF";
paths = (
{
closed = 1;
nodes = (
"110 8 OFFCURVE",
"61 3 OFFCURVE",
"68 50 CURVE SMOOTH",
"71 78 OFFCURVE",
"97 103 OFFCURVE",
"130 103 CURVE SMOOTH",
"164 103 OFFCURVE",
"182 76 OFFCURVE",
"176 34 CURVE SMOOTH",
"169 -15 OFFCURVE",
"135 -70 OFFCURVE",
"74 -103 CURVE",
"48 -93 LINE",
"84 -70 OFFCURVE",
"106 -21 OFFCURVE",
"108 -7 CURVE SMOOTH"
);
}
);
width = 301;
},
{
layerId = "37B2A381-2B9F-4DE4-98E5-835D13A27EF0";
paths = (
{
closed = 1;
nodes = (
"135 -73 OFFCURVE",
"175 -17 OFFCURVE",
"184 44 CURVE SMOOTH",
"191 94 OFFCURVE",
"165 123 OFFCURVE",
"133 123 CURVE SMOOTH",
"97 123 OFFCURVE",
"68 95 OFFCURVE",
"63 60 CURVE SMOOTH",
"57 16 OFFCURVE",
"99 10 OFFCURVE",
"99 0 CURVE SMOOTH",
"101 -14 OFFCURVE",
"82 -57 OFFCURVE",
"45 -92 CURVE",
"75 -104 LINE"
);
}
);
width = 301;
}
);
unicode = 002C;
},
{
glyphname = colon;
lastChange = "2019-08-14 18:46:20 +0000";
layers = (
{
layerId = "DA405910-5117-420C-9605-F5A44EE03BDF";
paths = (
{
closed = 1;
nodes = (
"144 -5 OFFCURVE",
"173 19 OFFCURVE",
"177 49 CURVE SMOOTH",
"182 79 OFFCURVE",
"159 103 OFFCURVE",
"130 103 CURVE SMOOTH",
"101 103 OFFCURVE",
"72 79 OFFCURVE",
"67 49 CURVE SMOOTH",
"63 19 OFFCURVE",
"86 -5 OFFCURVE",
"115 -5 CURVE SMOOTH"
);
},
{
closed = 1;
nodes = (
"189 318 OFFCURVE",
"219 342 OFFCURVE",
"223 372 CURVE SMOOTH",
"227 402 OFFCURVE",
"204 426 OFFCURVE",
"175 426 CURVE SMOOTH",
"146 426 OFFCURVE",
"117 402 OFFCURVE",
"113 372 CURVE SMOOTH",
"109 342 OFFCURVE",
"131 318 OFFCURVE",
"160 318 CURVE SMOOTH"
);
}
);
width = 300;
},
{
layerId = "37B2A381-2B9F-4DE4-98E5-835D13A27EF0";
paths = (
{
closed = 1;
nodes = (
"150 -5 OFFCURVE",
"184 24 OFFCURVE",
"189 59 CURVE SMOOTH",
"194 94 OFFCURVE",
"168 123 OFFCURVE",
"133 123 CURVE SMOOTH",
"98 123 OFFCURVE",
"64 94 OFFCURVE",
"59 59 CURVE SMOOTH",
"54 24 OFFCURVE",
"80 -5 OFFCURVE",
"115 -5 CURVE SMOOTH"
);
},
{
closed = 1;
nodes = (
"192 298 OFFCURVE",
"226 327 OFFCURVE",
"231 362 CURVE SMOOTH",
"236 397 OFFCURVE",
"210 426 OFFCURVE",
"175 426 CURVE SMOOTH",
"140 426 OFFCURVE",
"106 397 OFFCURVE",
"101 362 CURVE SMOOTH",
"96 327 OFFCURVE",
"122 298 OFFCURVE",
"157 298 CURVE SMOOTH"
);
}
);
width = 300;
}
);
unicode = 003A;
},
{
glyphname = semicolon;
lastChange = "2019-08-14 18:46:20 +0000";
layers = (
{
layerId = "DA405910-5117-420C-9605-F5A44EE03BDF";
paths = (
{
closed = 1;
nodes = (
"193 318 OFFCURVE",
"223 342 OFFCURVE",
"227 372 CURVE SMOOTH",
"231 402 OFFCURVE",
"208 426 OFFCURVE",
"179 426 CURVE SMOOTH",
"150 426 OFFCURVE",
"121 402 OFFCURVE",
"117 372 CURVE SMOOTH",
"113 342 OFFCURVE",
"135 318 OFFCURVE",
"164 318 CURVE SMOOTH"
);
},
{
closed = 1;
nodes = (
"114 8 OFFCURVE",
"65 3 OFFCURVE",
"72 50 CURVE SMOOTH",
"75 78 OFFCURVE",
"101 103 OFFCURVE",
"134 103 CURVE SMOOTH",
"168 103 OFFCURVE",
"186 76 OFFCURVE",
"180 34 CURVE SMOOTH",
"173 -15 OFFCURVE",
"139 -70 OFFCURVE",
"78 -103 CURVE",
"52 -93 LINE",
"88 -70 OFFCURVE",
"110 -21 OFFCURVE",
"112 -7 CURVE SMOOTH"
);
}
);
width = 294;
},
{
layerId = "37B2A381-2B9F-4DE4-98E5-835D13A27EF0";
paths = (
{
closed = 1;
nodes = (
"195 298 OFFCURVE",
"229 327 OFFCURVE",
"234 362 CURVE SMOOTH",
"239 397 OFFCURVE",
"213 426 OFFCURVE",
"178 426 CURVE SMOOTH",
"143 426 OFFCURVE",
"109 397 OFFCURVE",
"104 362 CURVE SMOOTH",
"99 327 OFFCURVE",
"125 298 OFFCURVE",
"160 298 CURVE SMOOTH"
);
},
{
closed = 1;
nodes = (
"138 -73 OFFCURVE",
"178 -17 OFFCURVE",
"187 44 CURVE SMOOTH",
"194 94 OFFCURVE",
"168 123 OFFCURVE",
"136 123 CURVE SMOOTH",
"100 123 OFFCURVE",
"71 95 OFFCURVE",
"66 60 CURVE SMOOTH",
"60 16 OFFCURVE",
"102 10 OFFCURVE",
"102 0 CURVE SMOOTH",
"104 -14 OFFCURVE",
"85 -57 OFFCURVE",
"48 -92 CURVE",
"78 -104 LINE"
);
}
);
width = 294;
}
);
unicode = 003B;
},
{
glyphname = exclam;
lastChange = "2019-08-14 18:46:20 +0000";
layers = (
{
layerId = "DA405910-5117-420C-9605-F5A44EE03BDF";
paths = (
{
closed = 1;
nodes = (
"255 693 LINE",
"169 693 LINE",
"119 211 LINE",
"169 211 LINE"
);
},
{
closed = 1;
nodes = (
"141 -5 OFFCURVE",
"168 17 OFFCURVE",
"172 45 CURVE SMOOTH",
"176 73 OFFCURVE",
"155 95 OFFCURVE",
"128 95 CURVE SMOOTH",
"101 95 OFFCURVE",
"74 73 OFFCURVE",
"70 45 CURVE SMOOTH",
"66 17 OFFCURVE",
"87 -5 OFFCURVE",
"114 -5 CURVE SMOOTH"
);
}
);
width = 296;
},
{
layerId = "37B2A381-2B9F-4DE4-98E5-835D13A27EF0";
paths = (
{
closed = 1;
nodes = (
"265 693 LINE",
"159 693 LINE",
"109 211 LINE",
"179 211 LINE"
);
},
{
closed = 1;
nodes = (
"145 -15 OFFCURVE",
"177 12 OFFCURVE",
"182 45 CURVE SMOOTH",
"186 78 OFFCURVE",
"162 105 OFFCURVE",
"129 105 CURVE SMOOTH",
"96 105 OFFCURVE",
"64 78 OFFCURVE",
"60 45 CURVE SMOOTH",
"55 12 OFFCURVE",
"79 -15 OFFCURVE",
"112 -15 CURVE SMOOTH"
);
}
);
width = 296;
}
);
unicode = 0021;
},
{
glyphname = exclamdown;
lastChange = "2019-08-14 18:46:20 +0000";
layers = (
{
layerId = "DA405910-5117-420C-9605-F5A44EE03BDF";
paths = (
{
closed = 1;
nodes = (
"157 482 LINE",
"71 0 LINE",
"157 0 LINE",
"207 482 LINE"
);
},
{
closed = 1;
nodes = (
"186 698 OFFCURVE",
"159 676 OFFCURVE",
"155 648 CURVE SMOOTH",
"151 620 OFFCURVE",
"172 598 OFFCURVE",
"199 598 CURVE SMOOTH",
"226 598 OFFCURVE",
"253 620 OFFCURVE",
"257 648 CURVE SMOOTH",
"261 676 OFFCURVE",
"240 698 OFFCURVE",
"213 698 CURVE SMOOTH"
);
}
);
width = 296;
},
{
layerId = "37B2A381-2B9F-4DE4-98E5-835D13A27EF0";
paths = (
{
closed = 1;
nodes = (
"147 482 LINE",
"61 0 LINE",
"167 0 LINE",
"217 482 LINE"
);
},
{
closed = 1;
nodes = (
"180 698 OFFCURVE",
"148 671 OFFCURVE",
"143 638 CURVE SMOOTH",
"139 605 OFFCURVE",
"163 578 OFFCURVE",
"196 578 CURVE SMOOTH",
"229 578 OFFCURVE",
"261 605 OFFCURVE",
"265 638 CURVE SMOOTH",
"270 671 OFFCURVE",
"246 698 OFFCURVE",
"213 698 CURVE SMOOTH"
);
}
);
width = 296;
}
);
unicode = 00A1;
},
{
glyphname = question;
lastChange = "2019-08-14 18:46:20 +0000";
layers = (
{
layerId = "DA405910-5117-420C-9605-F5A44EE03BDF";
paths = (
{
closed = 1;
nodes = (
"124 433 LINE",
"118 582 OFFCURVE",
"215 648 OFFCURVE",
"330 648 CURVE SMOOTH",
"436 648 OFFCURVE",
"493 594 OFFCURVE",
"481 510 CURVE SMOOTH",
"464 385 OFFCURVE",
"248 349 OFFCURVE",
"227 200 CURVE",
"299 200 LINE",
"313 305 OFFCURVE",
"532 360 OFFCURVE",
"553 510 CURVE SMOOTH",
"571 634 OFFCURVE",
"485 712 OFFCURVE",
"339 712 CURVE SMOOTH",
"158 712 OFFCURVE",
"51 594 OFFCURVE",
"66 450 CURVE"
);
},
{
closed = 1;
nodes = (
"185 2 OFFCURVE",
"206 -20 OFFCURVE",
"233 -20 CURVE SMOOTH",
"260 -20 OFFCURVE",
"287 2 OFFCURVE",
"291 30 CURVE SMOOTH",
"295 58 OFFCURVE",
"274 80 OFFCURVE",
"247 80 CURVE SMOOTH",
"220 80 OFFCURVE",
"193 58 OFFCURVE",
"189 30 CURVE SMOOTH"
);
}
);
width = 584;
},
{
layerId = "37B2A381-2B9F-4DE4-98E5-835D13A27EF0";
paths = (
{
closed = 1;
nodes = (
"146 418 LINE",
"134 549 OFFCURVE",
"204 628 OFFCURVE",
"328 628 CURVE SMOOTH",
"422 628 OFFCURVE",
"473 582 OFFCURVE",
"463 508 CURVE SMOOTH",
"447 394 OFFCURVE",
"230 361 OFFCURVE",
"219 200 CURVE",
"311 200 LINE",
"326 307 OFFCURVE",
"533 351 OFFCURVE",
"555 508 CURVE SMOOTH",
"572 631 OFFCURVE",
"487 712 OFFCURVE",
"340 712 CURVE SMOOTH",
"165 712 OFFCURVE",
"47 596 OFFCURVE",
"66 441 CURVE"
);
},
{
closed = 1;
nodes = (
"177 7 OFFCURVE",
"202 -20 OFFCURVE",
"235 -20 CURVE SMOOTH",
"268 -20 OFFCURVE",
"299 7 OFFCURVE",
"304 40 CURVE SMOOTH",
"309 73 OFFCURVE",
"285 100 OFFCURVE",
"252 100 CURVE SMOOTH",
"219 100 OFFCURVE",
"187 73 OFFCURVE",
"182 40 CURVE SMOOTH"
);
}
);
width = 586;
}
);
unicode = 003F;
},
{
glyphname = questiondown;
lastChange = "2019-08-14 18:46:20 +0000";
layers = (
{
layerId = "DA405910-5117-420C-9605-F5A44EE03BDF";
paths = (
{
closed = 1;
nodes = (
"460 57 LINE",
"466 -92 OFFCURVE",
"369 -158 OFFCURVE",
"254 -158 CURVE SMOOTH",
"148 -158 OFFCURVE",
"91 -104 OFFCURVE",
"103 -20 CURVE SMOOTH",
"120 105 OFFCURVE",
"336 141 OFFCURVE",
"357 290 CURVE",
"285 290 LINE",
"270 185 OFFCURVE",
"52 130 OFFCURVE",
"31 -20 CURVE SMOOTH",
"13 -144 OFFCURVE",
"99 -222 OFFCURVE",
"245 -222 CURVE SMOOTH",
"426 -222 OFFCURVE",
"533 -104 OFFCURVE",
"518 40 CURVE"
);
},
{
closed = 1;
nodes = (
"399 488 OFFCURVE",
"378 510 OFFCURVE",
"351 510 CURVE SMOOTH",
"324 510 OFFCURVE",
"297 488 OFFCURVE",
"293 460 CURVE SMOOTH",
"289 432 OFFCURVE",
"310 410 OFFCURVE",
"337 410 CURVE SMOOTH",
"364 410 OFFCURVE",
"391 432 OFFCURVE",
"395 460 CURVE SMOOTH"
);
}
);
width = 584;
},
{
layerId = "37B2A381-2B9F-4DE4-98E5-835D13A27EF0";
paths = (
{
closed = 1;
nodes = (
"440 72 LINE",
"452 -59 OFFCURVE",
"382 -138 OFFCURVE",
"258 -138 CURVE SMOOTH",
"164 -138 OFFCURVE",
"113 -92 OFFCURVE",
"123 -18 CURVE SMOOTH",
"139 96 OFFCURVE",
"356 129 OFFCURVE",
"367 290 CURVE",
"275 290 LINE",
"260 183 OFFCURVE",
"53 139 OFFCURVE",
"31 -18 CURVE SMOOTH",
"14 -141 OFFCURVE",
"99 -222 OFFCURVE",
"246 -222 CURVE SMOOTH",
"421 -222 OFFCURVE",
"539 -106 OFFCURVE",
"519 49 CURVE"
);
},
{
closed = 1;
nodes = (
"408 483 OFFCURVE",
"384 510 OFFCURVE",
"351 510 CURVE SMOOTH",
"318 510 OFFCURVE",
"286 483 OFFCURVE",
"282 450 CURVE SMOOTH",
"277 417 OFFCURVE",
"301 390 OFFCURVE",
"334 390 CURVE SMOOTH",
"367 390 OFFCURVE",
"399 417 OFFCURVE",
"404 450 CURVE SMOOTH"
);
}
);
width = 586;
}
);
unicode = 00BF;
},
{
glyphname = periodcentered;
lastChange = "2019-08-14 18:46:20 +0000";
layers = (
{
layerId = "DA405910-5117-420C-9605-F5A44EE03BDF";
paths = (
{
closed = 1;
nodes = (
"192 300 OFFCURVE",
"221 324 OFFCURVE",
"225 354 CURVE SMOOTH",
"229 384 OFFCURVE",
"207 408 OFFCURVE",
"178 408 CURVE SMOOTH",
"149 408 OFFCURVE",
"119 384 OFFCURVE",
"115 354 CURVE SMOOTH",
"111 324 OFFCURVE",
"134 300 OFFCURVE",
"163 300 CURVE SMOOTH"
);
}
);
width = 310;
},
{
layerId = "37B2A381-2B9F-4DE4-98E5-835D13A27EF0";
paths = (
{
closed = 1;
nodes = (
"196 290 OFFCURVE",
"230 319 OFFCURVE",
"235 354 CURVE SMOOTH",
"240 389 OFFCURVE",
"214 418 OFFCURVE",
"179 418 CURVE SMOOTH",
"144 418 OFFCURVE",
"110 389 OFFCURVE",
"105 354 CURVE SMOOTH",
"100 319 OFFCURVE",
"126 290 OFFCURVE",
"161 290 CURVE SMOOTH"
);
}
);
width = 310;
}
);
unicode = 00B7;
},
{
glyphname = bullet;
lastChange = "2019-08-14 18:46:20 +0000";
layers = (
{
layerId = "DA405910-5117-420C-9605-F5A44EE03BDF";
paths = (
{
closed = 1;
nodes = (
"445 97 OFFCURVE",
"574 209 OFFCURVE",
"593 348 CURVE SMOOTH",
"613 484 OFFCURVE",
"515 596 OFFCURVE",
"378 596 CURVE SMOOTH",
"241 596 OFFCURVE",
"113 484 OFFCURVE",
"93 348 CURVE SMOOTH",
"74 209 OFFCURVE",
"171 97 OFFCURVE",
"308 97 CURVE SMOOTH"
);
}
);
width = 654;
},
{
layerId = "37B2A381-2B9F-4DE4-98E5-835D13A27EF0";
paths = (
{
closed = 1;
nodes = (
"450 85 OFFCURVE",
"585 203 OFFCURVE",
"605 348 CURVE SMOOTH",
"626 491 OFFCURVE",
"524 608 OFFCURVE",
"380 608 CURVE SMOOTH",
"236 608 OFFCURVE",
"102 491 OFFCURVE",
"81 348 CURVE SMOOTH",
"61 203 OFFCURVE",
"162 85 OFFCURVE",
"306 85 CURVE SMOOTH"
);
}
);
width = 654;
}
);
unicode = 2022;
},
{
glyphname = asterisk;
lastChange = "2019-08-14 18:46:20 +0000";
layers = (
{
layerId = "DA405910-5117-420C-9605-F5A44EE03BDF";
paths = (
{
closed = 1;
nodes = (
"87 290 LINE",
"290 411 LINE",
"245 190 LINE",
"317 190 LINE",
"336 411 LINE",
"504 289 LINE",
"548 351 LINE",
"365 451 LINE",
"577 550 LINE",
"550 612 LINE",
"348 491 LINE",
"393 712 LINE",
"321 712 LINE",
"302 491 LINE",
"133 613 LINE",
"89 551 LINE",
"273 451 LINE",
"60 352 LINE"
);
}
);
width = 579;
},
{
layerId = "37B2A381-2B9F-4DE4-98E5-835D13A27EF0";
paths = (
{
closed = 1;
nodes = (
"91 281 LINE",
"275 391 LINE",
"234 190 LINE",
"328 190 LINE",
"345 391 LINE",
"498 280 LINE",
"554 360 LINE",
"388 451 LINE",
"581 541 LINE",
"546 621 LINE",
"362 511 LINE",
"404 712 LINE",
"310 712 LINE",
"292 511 LINE",
"139 622 LINE",
"83 542 LINE",
"249 451 LINE",
"56 361 LINE"
);
}
);
width = 579;
}
);
unicode = 002A;
},
{
glyphname = numbersign;
lastChange = "2019-08-14 18:46:20 +0000";
layers = (
{
layerId = "DA405910-5117-420C-9605-F5A44EE03BDF";
paths = (
{
closed = 1;
nodes = (
"151 432 LINE",
"833 432 LINE",
"842 493 LINE",
"160 493 LINE"
);
},
{
closed = 1;
nodes = (
"77 199 LINE",
"758 199 LINE",
"767 258 LINE",
"86 258 LINE"
);
},
{
closed = 1;
nodes = (
"681 693 LINE",
"460 0 LINE",
"523 0 LINE",
"743 693 LINE"
);
},
{
closed = 1;
nodes = (
"397 693 LINE",
"176 0 LINE",
"240 0 LINE",
"459 693 LINE"
);
}
);
width = 891;
},
{
layerId = "37B2A381-2B9F-4DE4-98E5-835D13A27EF0";
paths = (
{
closed = 1;
nodes = (
"148 418 LINE",
"830 418 LINE",
"842 500 LINE",
"160 500 LINE"
);
},
{
closed = 1;
nodes = (
"77 192 LINE",
"758 192 LINE",
"770 273 LINE",
"89 273 LINE"
);
},
{
closed = 1;
nodes = (
"666 693 LINE",
"445 0 LINE",
"529 0 LINE",
"749 693 LINE"
);
},
{
closed = 1;
nodes = (
"391 693 LINE",
"170 0 LINE",
"255 0 LINE",
"474 693 LINE"
);
}
);
width = 891;
}
);
unicode = 0023;
},
{
glyphname = slash;
lastChange = "2019-08-14 18:46:20 +0000";
layers = (
{
layerId = "DA405910-5117-420C-9605-F5A44EE03BDF";
paths = (
{
closed = 1;
nodes = (
"-27 -20 LINE",
"39 -20 LINE",
"475 750 LINE",
"409 750 LINE"
);
}
);
width = 414;
},
{
layerId = "37B2A381-2B9F-4DE4-98E5-835D13A27EF0";
paths = (
{
closed = 1;
nodes = (
"-27 -20 LINE",
"61 -20 LINE",
"497 750 LINE",
"409 750 LINE"
);
}
);
width = 436;
}
);
unicode = 002F;
},
{
glyphname = backslash;
lastChange = "2019-08-14 18:46:20 +0000";
layers = (
{
layerId = "DA405910-5117-420C-9605-F5A44EE03BDF";
paths = (
{
closed = 1;
nodes = (
"81 750 LINE",
"301 -20 LINE",
"367 -20 LINE",
"147 750 LINE"
);
}
);
width = 414;
},
{
layerId = "37B2A381-2B9F-4DE4-98E5-835D13A27EF0";
paths = (
{
closed = 1;
nodes = (
"81 750 LINE",
"301 -20 LINE",
"389 -20 LINE",
"169 750 LINE"
);
}
);
width = 436;
}
);
unicode = 005C;
},
{
glyphname = parenleft;
lastChange = "2019-08-14 18:46:20 +0000";
layers = (
{
layerId = "DA405910-5117-420C-9605-F5A44EE03BDF";
paths = (
{
closed = 1;
nodes = (
"74 140 OFFCURVE",
"184 -20 OFFCURVE",
"360 -20 CURVE",
"369 44 LINE",
"235 44 OFFCURVE",
"145 180 OFFCURVE",
"171 365 CURVE SMOOTH",
"197 548 OFFCURVE",
"325 686 OFFCURVE",
"459 686 CURVE",
"468 750 LINE",
"292 750 OFFCURVE",
"137 590 OFFCURVE",
"106 365 CURVE SMOOTH"
);
}
);
width = 432;
},
{
layerId = "37B2A381-2B9F-4DE4-98E5-835D13A27EF0";
paths = (
{
closed = 1;
nodes = (
"70 142 OFFCURVE",
"182 -20 OFFCURVE",
"364 -20 CURVE",
"375 64 LINE",
"246 64 OFFCURVE",
"163 193 OFFCURVE",
"187 365 CURVE SMOOTH",
"211 536 OFFCURVE",
"332 666 OFFCURVE",
"460 666 CURVE",
"472 750 LINE",
"290 750 OFFCURVE",
"133 588 OFFCURVE",
"102 365 CURVE SMOOTH"
);
}
);
width = 432;
}
);
unicode = 0028;
},
{
glyphname = parenright;
lastChange = "2019-08-14 18:46:20 +0000";
layers = (
{
layerId = "DA405910-5117-420C-9605-F5A44EE03BDF";
paths = (
{
closed = 1;
nodes = (
"391 590 OFFCURVE",
"282 750 OFFCURVE",
"106 750 CURVE",
"97 686 LINE",
"231 687 OFFCURVE",
"321 548 OFFCURVE",
"295 365 CURVE SMOOTH",
"269 180 OFFCURVE",
"141 43 OFFCURVE",
"7 44 CURVE",
"-2 -20 LINE",
"174 -20 OFFCURVE",
"328 140 OFFCURVE",
"360 365 CURVE SMOOTH"
);
}
);
width = 432;
},
{
layerId = "37B2A381-2B9F-4DE4-98E5-835D13A27EF0";
paths = (
{
closed = 1;
nodes = (
"399 588 OFFCURVE",
"288 750 OFFCURVE",
"106 750 CURVE",
"94 666 LINE",
"222 666 OFFCURVE",
"307 536 OFFCURVE",
"283 365 CURVE SMOOTH",
"259 193 OFFCURVE",
"138 64 OFFCURVE",
"9 64 CURVE",
"-2 -20 LINE",
"180 -20 OFFCURVE",
"336 142 OFFCURVE",
"368 365 CURVE SMOOTH"
);
}
);
width = 440;
}
);
unicode = 0029;
},
{
glyphname = braceleft;
lastChange = "2019-08-14 18:46:20 +0000";
layers = (
{
layerId = "DA405910-5117-420C-9605-F5A44EE03BDF";
paths = (
{
closed = 1;
nodes = (
"380 38 LINE",
"279 38 LINE SMOOTH",
"239 38 OFFCURVE",
"207 62 OFFCURVE",
"212 98 CURVE",
"287 632 LINE",
"292 668 OFFCURVE",
"331 692 OFFCURVE",
"371 692 CURVE SMOOTH",
"472 692 LINE",
"480 750 LINE",
"361 750 LINE SMOOTH",
"294 750 OFFCURVE",
"237 700 OFFCURVE",
"229 644 CURVE SMOOTH",
"198 424 LINE",
"197 413 OFFCURVE",
"189 397 OFFCURVE",
"165 397 CURVE",
"101 397 LINE",
"92 333 LINE",
"156 333 LINE",
"180 333 OFFCURVE",
"183 316 OFFCURVE",
"182 306 CURVE",
"151 86 LINE SMOOTH",
"143 30 OFFCURVE",
"186 -20 OFFCURVE",
"253 -20 CURVE SMOOTH",
"372 -20 LINE"
);
}
);
width = 434;
},
{
layerId = "37B2A381-2B9F-4DE4-98E5-835D13A27EF0";
paths = (
{
closed = 1;
nodes = (
"390 60 LINE",
"280 60 LINE SMOOTH",
"245 60 OFFCURVE",
"222 80 OFFCURVE",
"225 106 CURVE SMOOTH",
"298 624 LINE SMOOTH",
"302 650 OFFCURVE",
"331 670 OFFCURVE",
"366 670 CURVE SMOOTH",
"476 670 LINE",
"487 750 LINE",
"360 750 LINE SMOOTH",
"291 750 OFFCURVE",
"228 699 OFFCURVE",
"219 636 CURVE SMOOTH",
"189 422 LINE SMOOTH",
"187 412 OFFCURVE",
"181 408 OFFCURVE",
"170 408 CURVE SMOOTH",
"96 408 LINE",
"84 322 LINE",
"158 322 LINE SMOOTH",
"169 322 OFFCURVE",
"174 317 OFFCURVE",
"173 308 CURVE SMOOTH",
"143 94 LINE SMOOTH",
"134 31 OFFCURVE",
"183 -20 OFFCURVE",
"252 -20 CURVE SMOOTH",
"379 -20 LINE"
);
}
);
width = 434;
}
);
unicode = 007B;
},
{
glyphname = braceright;
lastChange = "2019-08-14 18:46:20 +0000";
layers = (
{
layerId = "DA405910-5117-420C-9605-F5A44EE03BDF";
paths = (
{
closed = 1;
nodes = (
"107 -20 LINE SMOOTH",
"174 -20 OFFCURVE",
"231 30 OFFCURVE",
"239 86 CURVE SMOOTH",
"270 306 LINE",
"271 316 OFFCURVE",
"278 333 OFFCURVE",
"302 333 CURVE",
"366 333 LINE",
"375 397 LINE",
"311 397 LINE",
"287 397 OFFCURVE",
"285 413 OFFCURVE",
"286 424 CURVE",
"317 644 LINE SMOOTH",
"325 700 OFFCURVE",
"282 750 OFFCURVE",
"215 750 CURVE SMOOTH",
"96 750 LINE",
"88 692 LINE",
"189 692 LINE SMOOTH",
"229 692 OFFCURVE",
"260 668 OFFCURVE",
"255 632 CURVE",
"180 98 LINE",
"175 62 OFFCURVE",
"137 38 OFFCURVE",
"97 38 CURVE SMOOTH",
"-4 38 LINE",
"-12 -20 LINE"
);
}
);
width = 434;
},
{
layerId = "37B2A381-2B9F-4DE4-98E5-835D13A27EF0";
paths = (
{
closed = 1;
nodes = (
"115 -20 LINE SMOOTH",
"184 -20 OFFCURVE",
"247 31 OFFCURVE",
"256 94 CURVE SMOOTH",
"286 308 LINE SMOOTH",
"287 317 OFFCURVE",
"294 322 OFFCURVE",
"305 322 CURVE SMOOTH",
"379 322 LINE",
"391 408 LINE",
"317 408 LINE SMOOTH",
"306 408 OFFCURVE",
"300 412 OFFCURVE",
"302 422 CURVE SMOOTH",
"332 636 LINE SMOOTH",
"341 699 OFFCURVE",
"292 750 OFFCURVE",
"223 750 CURVE SMOOTH",
"96 750 LINE",
"85 670 LINE",
"195 670 LINE SMOOTH",
"230 670 OFFCURVE",
"253 650 OFFCURVE",
"249 624 CURVE SMOOTH",
"176 106 LINE SMOOTH",
"173 80 OFFCURVE",
"144 60 OFFCURVE",
"109 60 CURVE SMOOTH",
"-1 60 LINE",
"-12 -20 LINE"
);
}
);
width = 448;
}
);
unicode = 007D;
},
{
glyphname = bracketleft;
lastChange = "2019-08-14 18:46:20 +0000";
layers = (
{
layerId = "DA405910-5117-420C-9605-F5A44EE03BDF";
paths = (
{
closed = 1;
nodes = (
"255 -20 LINE",
"264 44 LINE",
"152 44 LINE",
"242 686 LINE",
"354 686 LINE",
"363 750 LINE",
"186 750 LINE",
"78 -20 LINE"
);
}
);
width = 367;
},
{
layerId = "37B2A381-2B9F-4DE4-98E5-835D13A27EF0";
paths = (
{
closed = 1;
nodes = (
"264 -20 LINE",
"276 65 LINE",
"167 65 LINE",
"251 665 LINE",
"360 665 LINE",
"372 750 LINE",
"177 750 LINE",
"69 -20 LINE"
);
}
);
width = 367;
}
);
unicode = 005B;
},
{
glyphname = bracketright;
lastChange = "2019-08-14 18:46:20 +0000";
layers = (
{
layerId = "DA405910-5117-420C-9605-F5A44EE03BDF";
paths = (
{
closed = 1;
nodes = (
"323 750 LINE",
"146 750 LINE",
"137 686 LINE",
"249 686 LINE",
"159 43 LINE",
"47 43 LINE",
"38 -19 LINE",
"215 -19 LINE"
);
}
);
width = 367;
},
{
layerId = "37B2A381-2B9F-4DE4-98E5-835D13A27EF0";
paths = (
{
closed = 1;
nodes = (
"332 750 LINE",
"137 750 LINE",
"125 665 LINE",
"234 665 LINE",
"150 65 LINE",
"41 65 LINE",
"29 -20 LINE",
"224 -20 LINE"
);
}
);
width = 367;
}
);
unicode = 005D;
},
{
glyphname = hyphen;
lastChange = "2019-08-14 18:46:20 +0000";
layers = (
{
layerId = "DA405910-5117-420C-9605-F5A44EE03BDF";
paths = (
{
closed = 1;
nodes = (
"445 394 LINE",
"98 394 LINE",
"89 334 LINE",
"436 334 LINE"
);
}
);
width = 501;
},
{
layerId = "37B2A381-2B9F-4DE4-98E5-835D13A27EF0";
paths = (
{
closed = 1;
nodes = (
"447 406 LINE",
"100 406 LINE",
"88 322 LINE",
"435 322 LINE"
);
}
);
width = 501;
}
);
unicode = 002D;
},
{
glyphname = endash;
lastChange = "2019-08-14 18:46:20 +0000";
layers = (
{
layerId = "DA405910-5117-420C-9605-F5A44EE03BDF";
paths = (
{
closed = 1;
nodes = (
"647 394 LINE",
"28 394 LINE",
"19 334 LINE",
"638 334 LINE"
);
}
);
width = 633;
},
{
layerId = "37B2A381-2B9F-4DE4-98E5-835D13A27EF0";
paths = (
{
closed = 1;
nodes = (
"649 406 LINE",
"30 406 LINE",
"18 322 LINE",
"637 322 LINE"
);
}
);
width = 633;
}
);
unicode = 2013;
},
{
glyphname = emdash;
lastChange = "2019-08-14 18:46:20 +0000";
layers = (
{
layerId = "DA405910-5117-420C-9605-F5A44EE03BDF";
paths = (
{
closed = 1;
nodes = (
"1149 394 LINE",
"28 394 LINE",
"19 334 LINE",
"1140 334 LINE"
);
}
);
width = 1135;
},
{
layerId = "37B2A381-2B9F-4DE4-98E5-835D13A27EF0";
paths = (
{
closed = 1;
nodes = (
"1151 406 LINE",
"30 406 LINE",
"18 322 LINE",
"1139 322 LINE"
);
}
);
width = 1135;
}
);
unicode = 2014;
},
{
glyphname = underscore;
lastChange = "2019-08-14 18:46:20 +0000";
layers = (
{
layerId = "DA405910-5117-420C-9605-F5A44EE03BDF";
paths = (
{
closed = 1;
nodes = (
"570 -75 LINE",
"-38 -75 LINE",
"-46 -135 LINE",
"562 -135 LINE"
);
}
);
width = 622;
},
{
layerId = "37B2A381-2B9F-4DE4-98E5-835D13A27EF0";
paths = (
{
closed = 1;
nodes = (
"572 -63 LINE",
"-36 -63 LINE",
"-48 -147 LINE",
"560 -147 LINE"
);
}
);
width = 622;
}
);
unicode = 005F;
},
{
glyphname = quotedblleft;
lastChange = "2019-08-14 18:46:20 +0000";
layers = (
{
layerId = "DA405910-5117-420C-9605-F5A44EE03BDF";
paths = (
{
closed = 1;
nodes = (
"237 491 LINE",
"198 712 LINE",
"116 712 LINE",
"181 491 LINE"
);
},
{
closed = 1;
nodes = (
"389 491 LINE",
"350 712 LINE",
"268 712 LINE",
"333 491 LINE"
);
}
);
width = 394;
},
{
layerId = "37B2A381-2B9F-4DE4-98E5-835D13A27EF0";
paths = (
{
closed = 1;
nodes = (
"237 491 LINE",
"199 712 LINE",
"94 712 LINE",
"161 491 LINE"
);
},
{
closed = 1;
nodes = (
"411 491 LINE",
"373 712 LINE",
"268 712 LINE",
"335 491 LINE"
);
}
);
width = 394;
}
);
unicode = 201C;
},
{
glyphname = quotedblright;
lastChange = "2019-08-14 18:46:20 +0000";
layers = (
{
layerId = "DA405910-5117-420C-9605-F5A44EE03BDF";
paths = (
{
closed = 1;
nodes = (
"410 712 LINE",
"328 712 LINE",
"227 491 LINE",
"283 491 LINE"
);
},
{
closed = 1;
nodes = (
"258 712 LINE",
"176 712 LINE",
"75 491 LINE",
"131 491 LINE"
);
}
);
width = 394;
},
{
layerId = "37B2A381-2B9F-4DE4-98E5-835D13A27EF0";
paths = (
{
closed = 1;
nodes = (
"438 712 LINE",
"333 712 LINE",
"233 491 LINE",
"309 491 LINE"
);
},
{
closed = 1;
nodes = (
"264 712 LINE",
"159 712 LINE",
"59 491 LINE",
"135 491 LINE"
);
}
);
width = 404;
}
);
unicode = 201D;
},
{
glyphname = quoteleft;
lastChange = "2019-08-14 18:46:20 +0000";
layers = (
{
layerId = "DA405910-5117-420C-9605-F5A44EE03BDF";
paths = (
{
closed = 1;
nodes = (
"237 491 LINE",
"198 712 LINE",
"116 712 LINE",
"181 491 LINE"
);
}
);
width = 242;
},
{
layerId = "37B2A381-2B9F-4DE4-98E5-835D13A27EF0";
paths = (
{
closed = 1;
nodes = (
"241 491 LINE",
"203 712 LINE",
"98 712 LINE",
"165 491 LINE"
);
}
);
width = 230;
}
);
unicode = 2018;
},
{
glyphname = quoteright;
lastChange = "2019-08-14 18:46:20 +0000";
layers = (
{
layerId = "DA405910-5117-420C-9605-F5A44EE03BDF";
paths = (
{
closed = 1;
nodes = (
"258 712 LINE",
"176 712 LINE",
"75 491 LINE",
"131 491 LINE"
);
}
);
width = 242;
},
{
layerId = "37B2A381-2B9F-4DE4-98E5-835D13A27EF0";
paths = (
{
closed = 1;
nodes = (
"264 712 LINE",
"159 712 LINE",
"59 491 LINE",
"135 491 LINE"
);
}
);
width = 230;
}
);
unicode = 2019;
},
{
glyphname = guillemetleft;
lastChange = "2019-08-14 18:46:20 +0000";
layers = (
{
layerId = "DA405910-5117-420C-9605-F5A44EE03BDF";
paths = (
{
closed = 1;
nodes = (
"80 245 LINE",
"240 22 LINE",
"318 22 LINE",
"158 245 LINE",
"383 471 LINE",
"305 471 LINE"
);
},
{
closed = 1;
nodes = (
"351 245 LINE",
"511 22 LINE",
"589 22 LINE",
"429 245 LINE",
"654 471 LINE",
"576 471 LINE"
);
}
);
width = 714;
},
{
layerId = "37B2A381-2B9F-4DE4-98E5-835D13A27EF0";
paths = (
{
closed = 1;
nodes = (
"79 245 LINE",
"239 22 LINE",
"343 22 LINE",
"183 245 LINE",
"408 471 LINE",
"304 471 LINE"
);
},
{
closed = 1;
nodes = (
"336 245 LINE",
"496 22 LINE",
"600 22 LINE",
"440 245 LINE",
"665 471 LINE",
"561 471 LINE"
);
}
);
width = 714;
}
);
unicode = 00AB;
},
{
glyphname = guillemetright;
lastChange = "2019-08-14 18:46:20 +0000";
layers = (
{
layerId = "DA405910-5117-420C-9605-F5A44EE03BDF";
paths = (
{
closed = 1;
nodes = (
"395 471 LINE",
"556 245 LINE",
"334 22 LINE",
"412 22 LINE",
"634 245 LINE",
"473 471 LINE"
);
},
{
closed = 1;
nodes = (
"124 471 LINE",
"285 245 LINE",
"63 22 LINE",
"141 22 LINE",
"363 245 LINE",
"202 471 LINE"
);
}
);
width = 714;
},
{
layerId = "37B2A381-2B9F-4DE4-98E5-835D13A27EF0";
paths = (
{
closed = 1;
nodes = (
"370 471 LINE",
"531 245 LINE",
"309 22 LINE",
"413 22 LINE",
"635 245 LINE",
"474 471 LINE"
);
},
{
closed = 1;
nodes = (
"113 471 LINE",
"274 245 LINE",
"52 22 LINE",
"156 22 LINE",
"378 245 LINE",
"217 471 LINE"
);
}
);
width = 714;
}
);
unicode = 00BB;
},
{
glyphname = guilsinglleft;
lastChange = "2019-08-14 18:46:20 +0000";
layers = (
{
layerId = "DA405910-5117-420C-9605-F5A44EE03BDF";
paths = (
{
closed = 1;
nodes = (
"80 245 LINE",
"240 22 LINE",
"318 22 LINE",
"158 245 LINE",
"383 471 LINE",
"305 471 LINE"
);
}
);
width = 443;
},
{
layerId = "37B2A381-2B9F-4DE4-98E5-835D13A27EF0";
paths = (
{
closed = 1;
nodes = (
"72 245 LINE",
"232 22 LINE",
"336 22 LINE",
"176 245 LINE",
"401 471 LINE",
"297 471 LINE"
);
}
);
width = 443;
}
);
unicode = 2039;
},
{
glyphname = guilsinglright;
lastChange = "2019-08-14 18:46:20 +0000";
layers = (
{
layerId = "DA405910-5117-420C-9605-F5A44EE03BDF";
paths = (
{
closed = 1;
nodes = (
"124 471 LINE",
"285 245 LINE",
"63 22 LINE",
"141 22 LINE",
"363 245 LINE",
"202 471 LINE"
);
}
);
width = 443;
},
{
layerId = "37B2A381-2B9F-4DE4-98E5-835D13A27EF0";
paths = (
{
closed = 1;
nodes = (
"106 471 LINE",
"267 245 LINE",
"45 22 LINE",
"149 22 LINE",
"371 245 LINE",
"210 471 LINE"
);
}
);
width = 443;
}
);
unicode = 203A;
},
{
glyphname = quotedbl;
lastChange = "2019-08-14 18:46:20 +0000";
layers = (
{
layerId = "DA405910-5117-420C-9605-F5A44EE03BDF";
paths = (
{
closed = 1;
nodes = (
"202 712 LINE",
"130 712 LINE",
"111 491 LINE",
"157 491 LINE"
);
},
{
closed = 1;
nodes = (
"339 712 LINE",
"267 712 LINE",
"248 491 LINE",
"294 491 LINE"
);
}
);
width = 337;
},
{
layerId = "37B2A381-2B9F-4DE4-98E5-835D13A27EF0";
paths = (
{
closed = 1;
nodes = (
"202 712 LINE",
"114 712 LINE",
"95 491 LINE",
"157 491 LINE"
);
},
{
closed = 1;
nodes = (
"355 712 LINE",
"267 712 LINE",
"248 491 LINE",
"310 491 LINE"
);
}
);
width = 337;
}
);
unicode = 0022;
},
{
glyphname = quotesingle;
lastChange = "2019-08-14 18:46:20 +0000";
layers = (
{
layerId = "DA405910-5117-420C-9605-F5A44EE03BDF";
paths = (
{
closed = 1;
nodes = (
"202 712 LINE",
"130 712 LINE",
"111 491 LINE",
"157 491 LINE"
);
}
);
width = 200;
},
{
layerId = "37B2A381-2B9F-4DE4-98E5-835D13A27EF0";
paths = (
{
closed = 1;
nodes = (
"210 712 LINE",
"122 712 LINE",
"103 491 LINE",
"165 491 LINE"
);
}
);
width = 200;
}
);
unicode = 0027;
},
{
glyphname = cent;
lastChange = "2019-08-14 18:46:20 +0000";
layers = (
{
layerId = "DA405910-5117-420C-9605-F5A44EE03BDF";
paths = (
{
closed = 1;
nodes = (
"39 185 OFFCURVE",
"134 82 OFFCURVE",
"304 82 CURVE SMOOTH",
"435 82 OFFCURVE",
"540 143 OFFCURVE",
"591 245 CURVE",
"528 268 LINE",
"489 186 OFFCURVE",
"410 137 OFFCURVE",
"312 137 CURVE SMOOTH",
"183 137 OFFCURVE",
"113 219 OFFCURVE",
"131 347 CURVE SMOOTH",
"149 474 OFFCURVE",
"242 556 OFFCURVE",
"371 556 CURVE SMOOTH",
"472 556 OFFCURVE",
"537 507 OFFCURVE",
"552 426 CURVE",
"620 449 LINE",
"597 550 OFFCURVE",
"509 611 OFFCURVE",
"378 611 CURVE SMOOTH",
"208 611 OFFCURVE",
"85 508 OFFCURVE",
"62 347 CURVE SMOOTH"
);
},
{
closed = 1;
nodes = (
"243 -70 LINE",
"308 -70 LINE",
"425 762 LINE",
"360 762 LINE"
);
}
);
width = 610;
},
{
layerId = "37B2A381-2B9F-4DE4-98E5-835D13A27EF0";
paths = (
{
closed = 1;
nodes = (
"229 -82 LINE",
"318 -82 LINE",
"438 774 LINE",
"349 774 LINE"
);
},
{
closed = 1;
nodes = (
"436 81 OFFCURVE",
"545 146 OFFCURVE",
"594 255 CURVE",
"514 286 LINE",
"478 204 OFFCURVE",
"406 157 OFFCURVE",
"314 157 CURVE SMOOTH",
"197 157 OFFCURVE",
"134 230 OFFCURVE",
"150 347 CURVE SMOOTH",
"167 463 OFFCURVE",
"250 536 OFFCURVE",
"367 536 CURVE SMOOTH",
"462 536 OFFCURVE",
"521 489 OFFCURVE",
"533 408 CURVE",
"620 438 LINE",
"601 547 OFFCURVE",
"511 612 OFFCURVE",
"378 612 CURVE SMOOTH",
"208 612 OFFCURVE",
"84 508 OFFCURVE",
"61 347 CURVE SMOOTH",
"39 186 OFFCURVE",
"133 81 OFFCURVE",
"303 81 CURVE SMOOTH"
);
}
);
width = 610;
}
);
unicode = 00A2;
},
{
glyphname = currency;
lastChange = "2019-08-14 18:46:20 +0000";
layers = (
{
layerId = "DA405910-5117-420C-9605-F5A44EE03BDF";
paths = (
{
closed = 1;
nodes = (
"212 449 LINE",
"176 414 OFFCURVE",
"152 370 OFFCURVE",
"145 319 CURVE SMOOTH",
"138 267 OFFCURVE",
"150 222 OFFCURVE",
"176 186 CURVE",
"81 112 LINE",
"118 68 LINE",
"218 146 LINE",
"255 121 OFFCURVE",
"304 107 OFFCURVE",
"362 107 CURVE SMOOTH",
"419 107 OFFCURVE",
"471 121 OFFCURVE",
"514 145 CURVE",
"592 68 LINE",
"642 113 LINE",
"570 186 LINE",
"606 221 OFFCURVE",
"630 267 OFFCURVE",
"637 319 CURVE SMOOTH",
"644 370 OFFCURVE",
"633 415 OFFCURVE",
"607 451 CURVE",
"699 522 LINE",
"661 568 LINE",
"564 491 LINE",
"527 515 OFFCURVE",
"478 529 OFFCURVE",
"421 529 CURVE SMOOTH",
"363 529 OFFCURVE",
"310 515 OFFCURVE",
"265 490 CURVE",
"188 568 LINE",
"138 522 LINE"
);
},
{
closed = 1;
nodes = (
"217 399 OFFCURVE",
"305 477 OFFCURVE",
"413 477 CURVE SMOOTH",
"521 477 OFFCURVE",
"587 399 OFFCURVE",
"575 319 CURVE SMOOTH",
"564 238 OFFCURVE",
"476 159 OFFCURVE",
"368 159 CURVE SMOOTH",
"260 159 OFFCURVE",
"194 238 OFFCURVE",
"205 319 CURVE SMOOTH"
);
}
);
width = 758;
},
{
layerId = "37B2A381-2B9F-4DE4-98E5-835D13A27EF0";
paths = (
{
closed = 1;
nodes = (
"207 439 LINE",
"176 406 OFFCURVE",
"156 364 OFFCURVE",
"149 319 CURVE SMOOTH",
"143 273 OFFCURVE",
"152 231 OFFCURVE",
"174 196 CURVE",
"76 119 LINE",
"123 61 LINE",
"229 143 LINE",
"265 121 OFFCURVE",
"310 109 OFFCURVE",
"362 109 CURVE SMOOTH",
"412 109 OFFCURVE",
"460 120 OFFCURVE",
"502 142 CURVE",
"585 62 LINE",
"649 120 LINE",
"574 196 LINE",
"606 230 OFFCURVE",
"627 273 OFFCURVE",
"633 319 CURVE SMOOTH",
"640 364 OFFCURVE",
"631 406 OFFCURVE",
"608 441 CURVE",
"705 516 LINE",
"657 576 LINE",
"553 494 LINE",
"517 515 OFFCURVE",
"472 527 OFFCURVE",
"421 527 CURVE SMOOTH",
"369 527 OFFCURVE",
"320 515 OFFCURVE",
"277 493 CURVE",
"195 575 LINE",
"131 515 LINE"
);
},
{
closed = 1;
nodes = (
"239 393 OFFCURVE",
"321 456 OFFCURVE",
"410 456 CURVE SMOOTH",
"499 456 OFFCURVE",
"563 393 OFFCURVE",
"552 319 CURVE SMOOTH",
"542 244 OFFCURVE",
"460 180 OFFCURVE",
"371 180 CURVE SMOOTH",
"282 180 OFFCURVE",
"218 244 OFFCURVE",
"228 319 CURVE SMOOTH"
);
}
);
width = 758;
}
);
unicode = 00A4;
},
{
glyphname = dollar;
lastChange = "2019-08-14 18:46:20 +0000";
layers = (
{
layerId = "DA405910-5117-420C-9605-F5A44EE03BDF";
paths = (
{
closed = 1;
nodes = (
"283 -94 LINE",
"345 -94 LINE",
"469 786 LINE",
"407 786 LINE"
);
},
{
closed = 1;
nodes = (
"546 -20 OFFCURVE",
"642 77 OFFCURVE",
"657 175 CURVE SMOOTH",
"674 288 OFFCURVE",
"582 329 OFFCURVE",
"494 350 CURVE SMOOTH",
"418 368 OFFCURVE",
"330 381 OFFCURVE",
"287 391 CURVE SMOOTH",
"216 408 OFFCURVE",
"159 441 OFFCURVE",
"170 516 CURVE SMOOTH",
"177 565 OFFCURVE",
"246 650 OFFCURVE",
"421 648 CURVE SMOOTH",
"595 646 OFFCURVE",
"643 527 OFFCURVE",
"645 490 CURVE",
"714 509 LINE",
"706 572 OFFCURVE",
"650 712 OFFCURVE",
"430 712 CURVE SMOOTH",
"199 712 OFFCURVE",
"109 594 OFFCURVE",
"98 516 CURVE SMOOTH",
"82 403 OFFCURVE",
"149 352 OFFCURVE",
"261 327 CURVE SMOOTH",
"316 315 OFFCURVE",
"387 305 OFFCURVE",
"472 285 CURVE SMOOTH",
"535 270 OFFCURVE",
"596 247 OFFCURVE",
"586 177 CURVE SMOOTH",
"577 110 OFFCURVE",
"494 44 OFFCURVE",
"343 44 CURVE SMOOTH",
"179 44 OFFCURVE",
"117 156 OFFCURVE",
"112 194 CURVE",
"36 176 LINE",
"51 103 OFFCURVE",
"120 -20 OFFCURVE",
"332 -20 CURVE SMOOTH"
);
}
);
width = 691;
},
{
layerId = "37B2A381-2B9F-4DE4-98E5-835D13A27EF0";
paths = (
{
closed = 1;
nodes = (
"271 -94 LINE",
"355 -94 LINE",
"479 786 LINE",
"395 786 LINE"
);
},
{
closed = 1;
nodes = (
"515 -20 OFFCURVE",
"642 57 OFFCURVE",
"660 180 CURVE SMOOTH",
"674 273 OFFCURVE",
"620 331 OFFCURVE",
"494 361 CURVE SMOOTH",
"421 379 OFFCURVE",
"335 391 OFFCURVE",
"295 401 CURVE SMOOTH",
"214 420 OFFCURVE",
"180 455 OFFCURVE",
"188 511 CURVE SMOOTH",
"198 577 OFFCURVE",
"296 628 OFFCURVE",
"418 627 CURVE SMOOTH",
"579 625 OFFCURVE",
"622 517 OFFCURVE",
"626 471 CURVE",
"716 496 LINE",
"714 550 OFFCURVE",
"664 712 OFFCURVE",
"430 712 CURVE SMOOTH",
"200 712 OFFCURVE",
"106 589 OFFCURVE",
"95 511 CURVE SMOOTH",
"81 406 OFFCURVE",
"133 345 OFFCURVE",
"261 316 CURVE SMOOTH",
"314 305 OFFCURVE",
"383 295 OFFCURVE",
"464 276 CURVE SMOOTH",
"545 257 OFFCURVE",
"575 231 OFFCURVE",
"568 182 CURVE SMOOTH",
"559 114 OFFCURVE",
"468 65 OFFCURVE",
"346 65 CURVE SMOOTH",
"193 65 OFFCURVE",
"137 167 OFFCURVE",
"130 213 CURVE",
"36 190 LINE",
"46 121 OFFCURVE",
"109 -20 OFFCURVE",
"333 -20 CURVE SMOOTH"
);
}
);
width = 691;
}
);
unicode = 0024;
},
{
glyphname = euro;
lastChange = "2019-08-14 18:46:20 +0000";
layers = (
{
layerId = "DA405910-5117-420C-9605-F5A44EE03BDF";
paths = (
{
closed = 1;
nodes = (
"89 132 OFFCURVE",
"221 -20 OFFCURVE",
"432 -20 CURVE SMOOTH",
"593 -20 OFFCURVE",
"732 67 OFFCURVE",
"803 203 CURVE",
"739 228 LINE",
"682 117 OFFCURVE",
"570 44 OFFCURVE",
"441 44 CURVE SMOOTH",
"272 44 OFFCURVE",
"166 170 OFFCURVE",
"191 345 CURVE SMOOTH",
"216 520 OFFCURVE",
"357 648 OFFCURVE",
"526 648 CURVE SMOOTH",
"654 648 OFFCURVE",
"744 575 OFFCURVE",
"771 465 CURVE",
"842 489 LINE",
"809 625 OFFCURVE",
"696 712 OFFCURVE",
"535 712 CURVE SMOOTH",
"324 712 OFFCURVE",
"149 560 OFFCURVE",
"119 345 CURVE SMOOTH"
);
},
{
closed = 1;
nodes = (
"551 447 LINE",
"45 447 LINE",
"37 387 LINE",
"543 387 LINE"
);
},
{
closed = 1;
nodes = (
"531 301 LINE",
"25 301 LINE",
"16 241 LINE",
"522 241 LINE"
);
}
);
width = 826;
},
{
layerId = "37B2A381-2B9F-4DE4-98E5-835D13A27EF0";
paths = (
{
closed = 1;
nodes = (
"87 133 OFFCURVE",
"219 -20 OFFCURVE",
"430 -20 CURVE SMOOTH",
"592 -20 OFFCURVE",
"736 70 OFFCURVE",
"807 214 CURVE",
"724 247 LINE",
"671 135 OFFCURVE",
"564 65 OFFCURVE",
"442 65 CURVE SMOOTH",
"285 65 OFFCURVE",
"187 182 OFFCURVE",
"210 345 CURVE SMOOTH",
"233 508 OFFCURVE",
"364 627 OFFCURVE",
"521 627 CURVE SMOOTH",
"641 627 OFFCURVE",
"729 558 OFFCURVE",
"751 446 CURVE",
"843 477 LINE",
"813 623 OFFCURVE",
"695 712 OFFCURVE",
"533 712 CURVE SMOOTH",
"321 712 OFFCURVE",
"147 559 OFFCURVE",
"117 345 CURVE SMOOTH"
);
},
{
closed = 1;
nodes = (
"560 455 LINE",
"47 455 LINE",
"36 374 LINE",
"549 374 LINE"
);
},
{
closed = 1;
nodes = (
"541 314 LINE",
"28 314 LINE",
"16 233 LINE",
"529 233 LINE"
);
}
);
width = 826;
}
);
unicode = 20AC;
},
